<svg width="47" height="355" viewBox="0 0 47 355" fill="none" xmlns="http://www.w3.org/2000/svg">
<path d="M2.68786 4.42452C3.82282 4.42452 4.7429 3.50445 4.7429 2.36949C4.7429 1.23452 3.82282 0.314453 2.68786 0.314453C1.55289 0.314453 0.632812 1.23452 0.632812 2.36949C0.632812 3.50445 1.55289 4.42452 2.68786 4.42452Z" fill="#E3374B"/>
<path d="M16.7001 4.42452C17.835 4.42452 18.7551 3.50445 18.7551 2.36949C18.7551 1.23452 17.835 0.314453 16.7001 0.314453C15.5651 0.314453 14.645 1.23452 14.645 2.36949C14.645 3.50445 15.5651 4.42452 16.7001 4.42452Z" fill="#E3374B"/>
<path d="M30.7104 4.42452C31.8453 4.42452 32.7654 3.50445 32.7654 2.36949C32.7654 1.23452 31.8453 0.314453 30.7104 0.314453C29.5754 0.314453 28.6553 1.23452 28.6553 2.36949C28.6553 3.50445 29.5754 4.42452 30.7104 4.42452Z" fill="#E3374B"/>
<path d="M44.7226 4.42452C45.8576 4.42452 46.7776 3.50445 46.7776 2.36949C46.7776 1.23452 45.8576 0.314453 44.7226 0.314453C43.5876 0.314453 42.6675 1.23452 42.6675 2.36949C42.6675 3.50445 43.5876 4.42452 44.7226 4.42452Z" fill="#E3374B"/>
<path d="M2.68786 18.4358C3.82282 18.4358 4.7429 17.5157 4.7429 16.3807C4.7429 15.2458 3.82282 14.3257 2.68786 14.3257C1.55289 14.3257 0.632812 15.2458 0.632812 16.3807C0.632812 17.5157 1.55289 18.4358 2.68786 18.4358Z" fill="#E3374B"/>
<path d="M16.7001 18.4358C17.835 18.4358 18.7551 17.5157 18.7551 16.3807C18.7551 15.2458 17.835 14.3257 16.7001 14.3257C15.5651 14.3257 14.645 15.2458 14.645 16.3807C14.645 17.5157 15.5651 18.4358 16.7001 18.4358Z" fill="#E3374B"/>
<path d="M30.7104 18.4358C31.8453 18.4358 32.7654 17.5157 32.7654 16.3807C32.7654 15.2458 31.8453 14.3257 30.7104 14.3257C29.5754 14.3257 28.6553 15.2458 28.6553 16.3807C28.6553 17.5157 29.5754 18.4358 30.7104 18.4358Z" fill="#E3374B"/>
<path d="M44.7226 18.4358C45.8576 18.4358 46.7776 17.5157 46.7776 16.3807C46.7776 15.2458 45.8576 14.3257 44.7226 14.3257C43.5876 14.3257 42.6675 15.2458 42.6675 16.3807C42.6675 17.5157 43.5876 18.4358 44.7226 18.4358Z" fill="#E3374B"/>
<path d="M2.68786 32.447C3.82282 32.447 4.7429 31.527 4.7429 30.392C4.7429 29.257 3.82282 28.337 2.68786 28.337C1.55289 28.337 0.632812 29.257 0.632812 30.392C0.632812 31.527 1.55289 32.447 2.68786 32.447Z" fill="#E3374B"/>
<path d="M16.7001 32.447C17.835 32.447 18.7551 31.527 18.7551 30.392C18.7551 29.257 17.835 28.337 16.7001 28.337C15.5651 28.337 14.645 29.257 14.645 30.392C14.645 31.527 15.5651 32.447 16.7001 32.447Z" fill="#E3374B"/>
<path d="M30.7104 32.447C31.8453 32.447 32.7654 31.527 32.7654 30.392C32.7654 29.257 31.8453 28.337 30.7104 28.337C29.5754 28.337 28.6553 29.257 28.6553 30.392C28.6553 31.527 29.5754 32.447 30.7104 32.447Z" fill="#E3374B"/>
<path d="M44.7226 32.447C45.8576 32.447 46.7776 31.527 46.7776 30.392C46.7776 29.257 45.8576 28.337 44.7226 28.337C43.5876 28.337 42.6675 29.257 42.6675 30.392C42.6675 31.527 43.5876 32.447 44.7226 32.447Z" fill="#E3374B"/>
<path d="M2.68786 46.4592C3.82282 46.4592 4.7429 45.5391 4.7429 44.4042C4.7429 43.2692 3.82282 42.3492 2.68786 42.3492C1.55289 42.3492 0.632812 43.2692 0.632812 44.4042C0.632812 45.5391 1.55289 46.4592 2.68786 46.4592Z" fill="#E3374B"/>
<path d="M16.7001 46.4592C17.835 46.4592 18.7551 45.5391 18.7551 44.4042C18.7551 43.2692 17.835 42.3492 16.7001 42.3492C15.5651 42.3492 14.645 43.2692 14.645 44.4042C14.645 45.5391 15.5651 46.4592 16.7001 46.4592Z" fill="#E3374B"/>
<path d="M30.7104 46.4592C31.8453 46.4592 32.7654 45.5391 32.7654 44.4042C32.7654 43.2692 31.8453 42.3492 30.7104 42.3492C29.5754 42.3492 28.6553 43.2692 28.6553 44.4042C28.6553 45.5391 29.5754 46.4592 30.7104 46.4592Z" fill="#E3374B"/>
<path d="M44.7226 46.4592C45.8576 46.4592 46.7776 45.5391 46.7776 44.4042C46.7776 43.2692 45.8576 42.3492 44.7226 42.3492C43.5876 42.3492 42.6675 43.2692 42.6675 44.4042C42.6675 45.5391 43.5876 46.4592 44.7226 46.4592Z" fill="#E3374B"/>
<path d="M2.68786 60.4714C3.82282 60.4714 4.7429 59.5514 4.7429 58.4164C4.7429 57.2814 3.82282 56.3614 2.68786 56.3614C1.55289 56.3614 0.632812 57.2814 0.632812 58.4164C0.632812 59.5514 1.55289 60.4714 2.68786 60.4714Z" fill="#E3374B"/>
<path d="M16.7001 60.4714C17.835 60.4714 18.7551 59.5514 18.7551 58.4164C18.7551 57.2814 17.835 56.3614 16.7001 56.3614C15.5651 56.3614 14.645 57.2814 14.645 58.4164C14.645 59.5514 15.5651 60.4714 16.7001 60.4714Z" fill="#E3374B"/>
<path d="M30.7104 60.4714C31.8453 60.4714 32.7654 59.5514 32.7654 58.4164C32.7654 57.2814 31.8453 56.3614 30.7104 56.3614C29.5754 56.3614 28.6553 57.2814 28.6553 58.4164C28.6553 59.5514 29.5754 60.4714 30.7104 60.4714Z" fill="#E3374B"/>
<path d="M44.7226 60.4714C45.8576 60.4714 46.7776 59.5514 46.7776 58.4164C46.7776 57.2814 45.8576 56.3614 44.7226 56.3614C43.5876 56.3614 42.6675 57.2814 42.6675 58.4164C42.6675 59.5514 43.5876 60.4714 44.7226 60.4714Z" fill="#E3374B"/>
<path d="M2.68786 74.4827C3.82282 74.4827 4.7429 73.5626 4.7429 72.4277C4.7429 71.2927 3.82282 70.3726 2.68786 70.3726C1.55289 70.3726 0.632812 71.2927 0.632812 72.4277C0.632812 73.5626 1.55289 74.4827 2.68786 74.4827Z" fill="#E3374B"/>
<path d="M16.7001 74.4827C17.835 74.4827 18.7551 73.5626 18.7551 72.4277C18.7551 71.2927 17.835 70.3726 16.7001 70.3726C15.5651 70.3726 14.645 71.2927 14.645 72.4277C14.645 73.5626 15.5651 74.4827 16.7001 74.4827Z" fill="#E3374B"/>
<path d="M30.7104 74.4827C31.8453 74.4827 32.7654 73.5626 32.7654 72.4277C32.7654 71.2927 31.8453 70.3726 30.7104 70.3726C29.5754 70.3726 28.6553 71.2927 28.6553 72.4277C28.6553 73.5626 29.5754 74.4827 30.7104 74.4827Z" fill="#E3374B"/>
<path d="M44.7226 74.4827C45.8576 74.4827 46.7776 73.5626 46.7776 72.4277C46.7776 71.2927 45.8576 70.3726 44.7226 70.3726C43.5876 70.3726 42.6675 71.2927 42.6675 72.4277C42.6675 73.5626 43.5876 74.4827 44.7226 74.4827Z" fill="#E3374B"/>
<path d="M2.68786 88.4939C3.82282 88.4939 4.7429 87.5739 4.7429 86.4389C4.7429 85.3039 3.82282 84.3839 2.68786 84.3839C1.55289 84.3839 0.632812 85.3039 0.632812 86.4389C0.632812 87.5739 1.55289 88.4939 2.68786 88.4939Z" fill="#E3374B"/>
<path d="M16.7001 88.4939C17.835 88.4939 18.7551 87.5739 18.7551 86.4389C18.7551 85.3039 17.835 84.3839 16.7001 84.3839C15.5651 84.3839 14.645 85.3039 14.645 86.4389C14.645 87.5739 15.5651 88.4939 16.7001 88.4939Z" fill="#E3374B"/>
<path d="M30.7104 88.4939C31.8453 88.4939 32.7654 87.5739 32.7654 86.4389C32.7654 85.3039 31.8453 84.3839 30.7104 84.3839C29.5754 84.3839 28.6553 85.3039 28.6553 86.4389C28.6553 87.5739 29.5754 88.4939 30.7104 88.4939Z" fill="#E3374B"/>
<path d="M44.7226 88.4939C45.8576 88.4939 46.7776 87.5739 46.7776 86.4389C46.7776 85.3039 45.8576 84.3839 44.7226 84.3839C43.5876 84.3839 42.6675 85.3039 42.6675 86.4389C42.6675 87.5739 43.5876 88.4939 44.7226 88.4939Z" fill="#E3374B"/>
<path d="M2.68786 102.505C3.82282 102.505 4.7429 101.585 4.7429 100.45C4.7429 99.3152 3.82282 98.3951 2.68786 98.3951C1.55289 98.3951 0.632812 99.3152 0.632812 100.45C0.632812 101.585 1.55289 102.505 2.68786 102.505Z" fill="#E3374B"/>
<path d="M16.7001 102.505C17.835 102.505 18.7551 101.585 18.7551 100.45C18.7551 99.3152 17.835 98.3951 16.7001 98.3951C15.5651 98.3951 14.645 99.3152 14.645 100.45C14.645 101.585 15.5651 102.505 16.7001 102.505Z" fill="#E3374B"/>
<path d="M30.7104 102.505C31.8453 102.505 32.7654 101.585 32.7654 100.45C32.7654 99.3152 31.8453 98.3951 30.7104 98.3951C29.5754 98.3951 28.6553 99.3152 28.6553 100.45C28.6553 101.585 29.5754 102.505 30.7104 102.505Z" fill="#E3374B"/>
<path d="M44.7226 102.505C45.8576 102.505 46.7776 101.585 46.7776 100.45C46.7776 99.3152 45.8576 98.3951 44.7226 98.3951C43.5876 98.3951 42.6675 99.3152 42.6675 100.45C42.6675 101.585 43.5876 102.505 44.7226 102.505Z" fill="#E3374B"/>
<path d="M2.68786 116.517C3.82282 116.517 4.7429 115.597 4.7429 114.462C4.7429 113.327 3.82282 112.407 2.68786 112.407C1.55289 112.407 0.632812 113.327 0.632812 114.462C0.632812 115.597 1.55289 116.517 2.68786 116.517Z" fill="#E3374B"/>
<path d="M16.7001 116.517C17.835 116.517 18.7551 115.597 18.7551 114.462C18.7551 113.327 17.835 112.407 16.7001 112.407C15.5651 112.407 14.645 113.327 14.645 114.462C14.645 115.597 15.5651 116.517 16.7001 116.517Z" fill="#E3374B"/>
<path d="M30.7104 116.517C31.8453 116.517 32.7654 115.597 32.7654 114.462C32.7654 113.327 31.8453 112.407 30.7104 112.407C29.5754 112.407 28.6553 113.327 28.6553 114.462C28.6553 115.597 29.5754 116.517 30.7104 116.517Z" fill="#E3374B"/>
<path d="M44.7226 116.517C45.8576 116.517 46.7776 115.597 46.7776 114.462C46.7776 113.327 45.8576 112.407 44.7226 112.407C43.5876 112.407 42.6675 113.327 42.6675 114.462C42.6675 115.597 43.5876 116.517 44.7226 116.517Z" fill="#E3374B"/>
<path d="M2.68786 130.529C3.82282 130.529 4.7429 129.609 4.7429 128.474C4.7429 127.339 3.82282 126.419 2.68786 126.419C1.55289 126.419 0.632812 127.339 0.632812 128.474C0.632812 129.609 1.55289 130.529 2.68786 130.529Z" fill="#E3374B"/>
<path d="M16.7001 130.529C17.835 130.529 18.7551 129.609 18.7551 128.474C18.7551 127.339 17.835 126.419 16.7001 126.419C15.5651 126.419 14.645 127.339 14.645 128.474C14.645 129.609 15.5651 130.529 16.7001 130.529Z" fill="#E3374B"/>
<path d="M30.7104 130.529C31.8453 130.529 32.7654 129.609 32.7654 128.474C32.7654 127.339 31.8453 126.419 30.7104 126.419C29.5754 126.419 28.6553 127.339 28.6553 128.474C28.6553 129.609 29.5754 130.529 30.7104 130.529Z" fill="#E3374B"/>
<path d="M44.7226 130.529C45.8576 130.529 46.7776 129.609 46.7776 128.474C46.7776 127.339 45.8576 126.419 44.7226 126.419C43.5876 126.419 42.6675 127.339 42.6675 128.474C42.6675 129.609 43.5876 130.529 44.7226 130.529Z" fill="#E3374B"/>
<path d="M2.68786 144.541C3.82282 144.541 4.7429 143.621 4.7429 142.486C4.7429 141.351 3.82282 140.431 2.68786 140.431C1.55289 140.431 0.632812 141.351 0.632812 142.486C0.632812 143.621 1.55289 144.541 2.68786 144.541Z" fill="#E3374B"/>
<path d="M16.7001 144.541C17.835 144.541 18.7551 143.621 18.7551 142.486C18.7551 141.351 17.835 140.431 16.7001 140.431C15.5651 140.431 14.645 141.351 14.645 142.486C14.645 143.621 15.5651 144.541 16.7001 144.541Z" fill="#E3374B"/>
<path d="M30.7104 144.541C31.8453 144.541 32.7654 143.621 32.7654 142.486C32.7654 141.351 31.8453 140.431 30.7104 140.431C29.5754 140.431 28.6553 141.351 28.6553 142.486C28.6553 143.621 29.5754 144.541 30.7104 144.541Z" fill="#E3374B"/>
<path d="M44.7226 144.541C45.8576 144.541 46.7776 143.621 46.7776 142.486C46.7776 141.351 45.8576 140.431 44.7226 140.431C43.5876 140.431 42.6675 141.351 42.6675 142.486C42.6675 143.621 43.5876 144.541 44.7226 144.541Z" fill="#E3374B"/>
<path d="M2.68786 158.552C3.82282 158.552 4.7429 157.632 4.7429 156.497C4.7429 155.362 3.82282 154.442 2.68786 154.442C1.55289 154.442 0.632812 155.362 0.632812 156.497C0.632812 157.632 1.55289 158.552 2.68786 158.552Z" fill="#E3374B"/>
<path d="M16.7001 158.552C17.835 158.552 18.7551 157.632 18.7551 156.497C18.7551 155.362 17.835 154.442 16.7001 154.442C15.5651 154.442 14.645 155.362 14.645 156.497C14.645 157.632 15.5651 158.552 16.7001 158.552Z" fill="#E3374B"/>
<path d="M30.7104 158.552C31.8453 158.552 32.7654 157.632 32.7654 156.497C32.7654 155.362 31.8453 154.442 30.7104 154.442C29.5754 154.442 28.6553 155.362 28.6553 156.497C28.6553 157.632 29.5754 158.552 30.7104 158.552Z" fill="#E3374B"/>
<path d="M44.7226 158.552C45.8576 158.552 46.7776 157.632 46.7776 156.497C46.7776 155.362 45.8576 154.442 44.7226 154.442C43.5876 154.442 42.6675 155.362 42.6675 156.497C42.6675 157.632 43.5876 158.552 44.7226 158.552Z" fill="#E3374B"/>
<path d="M2.68786 172.563C3.82282 172.563 4.7429 171.643 4.7429 170.508C4.7429 169.373 3.82282 168.453 2.68786 168.453C1.55289 168.453 0.632812 169.373 0.632812 170.508C0.632812 171.643 1.55289 172.563 2.68786 172.563Z" fill="#E3374B"/>
<path d="M16.7001 172.563C17.835 172.563 18.7551 171.643 18.7551 170.508C18.7551 169.373 17.835 168.453 16.7001 168.453C15.5651 168.453 14.645 169.373 14.645 170.508C14.645 171.643 15.5651 172.563 16.7001 172.563Z" fill="#E3374B"/>
<path d="M30.7104 172.563C31.8453 172.563 32.7654 171.643 32.7654 170.508C32.7654 169.373 31.8453 168.453 30.7104 168.453C29.5754 168.453 28.6553 169.373 28.6553 170.508C28.6553 171.643 29.5754 172.563 30.7104 172.563Z" fill="#E3374B"/>
<path d="M44.7226 172.563C45.8576 172.563 46.7776 171.643 46.7776 170.508C46.7776 169.373 45.8576 168.453 44.7226 168.453C43.5876 168.453 42.6675 169.373 42.6675 170.508C42.6675 171.643 43.5876 172.563 44.7226 172.563Z" fill="#E3374B"/>
<path d="M2.68786 186.576C3.82282 186.576 4.7429 185.655 4.7429 184.52C4.7429 183.386 3.82282 182.465 2.68786 182.465C1.55289 182.465 0.632812 183.386 0.632812 184.52C0.632812 185.655 1.55289 186.576 2.68786 186.576Z" fill="#E3374B"/>
<path d="M16.7001 186.576C17.835 186.576 18.7551 185.655 18.7551 184.52C18.7551 183.386 17.835 182.465 16.7001 182.465C15.5651 182.465 14.645 183.386 14.645 184.52C14.645 185.655 15.5651 186.576 16.7001 186.576Z" fill="#E3374B"/>
<path d="M30.7104 186.576C31.8453 186.576 32.7654 185.655 32.7654 184.52C32.7654 183.386 31.8453 182.465 30.7104 182.465C29.5754 182.465 28.6553 183.386 28.6553 184.52C28.6553 185.655 29.5754 186.576 30.7104 186.576Z" fill="#E3374B"/>
<path d="M44.7226 186.576C45.8576 186.576 46.7776 185.655 46.7776 184.52C46.7776 183.386 45.8576 182.465 44.7226 182.465C43.5876 182.465 42.6675 183.386 42.6675 184.52C42.6675 185.655 43.5876 186.576 44.7226 186.576Z" fill="#E3374B"/>
<path d="M2.68786 200.587C3.82282 200.587 4.7429 199.667 4.7429 198.532C4.7429 197.397 3.82282 196.477 2.68786 196.477C1.55289 196.477 0.632812 197.397 0.632812 198.532C0.632812 199.667 1.55289 200.587 2.68786 200.587Z" fill="#E3374B"/>
<path d="M16.7001 200.587C17.835 200.587 18.7551 199.667 18.7551 198.532C18.7551 197.397 17.835 196.477 16.7001 196.477C15.5651 196.477 14.645 197.397 14.645 198.532C14.645 199.667 15.5651 200.587 16.7001 200.587Z" fill="#E3374B"/>
<path d="M30.7104 200.587C31.8453 200.587 32.7654 199.667 32.7654 198.532C32.7654 197.397 31.8453 196.477 30.7104 196.477C29.5754 196.477 28.6553 197.397 28.6553 198.532C28.6553 199.667 29.5754 200.587 30.7104 200.587Z" fill="#E3374B"/>
<path d="M44.7226 200.587C45.8576 200.587 46.7776 199.667 46.7776 198.532C46.7776 197.397 45.8576 196.477 44.7226 196.477C43.5876 196.477 42.6675 197.397 42.6675 198.532C42.6675 199.667 43.5876 200.587 44.7226 200.587Z" fill="#E3374B"/>
<path d="M2.68786 214.598C3.82282 214.598 4.7429 213.678 4.7429 212.543C4.7429 211.408 3.82282 210.488 2.68786 210.488C1.55289 210.488 0.632812 211.408 0.632812 212.543C0.632812 213.678 1.55289 214.598 2.68786 214.598Z" fill="#E3374B"/>
<path d="M16.7001 214.598C17.835 214.598 18.7551 213.678 18.7551 212.543C18.7551 211.408 17.835 210.488 16.7001 210.488C15.5651 210.488 14.645 211.408 14.645 212.543C14.645 213.678 15.5651 214.598 16.7001 214.598Z" fill="#E3374B"/>
<path d="M30.7104 214.598C31.8453 214.598 32.7654 213.678 32.7654 212.543C32.7654 211.408 31.8453 210.488 30.7104 210.488C29.5754 210.488 28.6553 211.408 28.6553 212.543C28.6553 213.678 29.5754 214.598 30.7104 214.598Z" fill="#E3374B"/>
<path d="M44.7226 214.598C45.8576 214.598 46.7776 213.678 46.7776 212.543C46.7776 211.408 45.8576 210.488 44.7226 210.488C43.5876 210.488 42.6675 211.408 42.6675 212.543C42.6675 213.678 43.5876 214.598 44.7226 214.598Z" fill="#E3374B"/>
<path d="M2.68786 228.61C3.82282 228.61 4.7429 227.69 4.7429 226.555C4.7429 225.42 3.82282 224.5 2.68786 224.5C1.55289 224.5 0.632812 225.42 0.632812 226.555C0.632812 227.69 1.55289 228.61 2.68786 228.61Z" fill="#E3374B"/>
<path d="M16.7001 228.61C17.835 228.61 18.7551 227.69 18.7551 226.555C18.7551 225.42 17.835 224.5 16.7001 224.5C15.5651 224.5 14.645 225.42 14.645 226.555C14.645 227.69 15.5651 228.61 16.7001 228.61Z" fill="#E3374B"/>
<path d="M30.7104 228.61C31.8453 228.61 32.7654 227.69 32.7654 226.555C32.7654 225.42 31.8453 224.5 30.7104 224.5C29.5754 224.5 28.6553 225.42 28.6553 226.555C28.6553 227.69 29.5754 228.61 30.7104 228.61Z" fill="#E3374B"/>
<path d="M44.7226 228.61C45.8576 228.61 46.7776 227.69 46.7776 226.555C46.7776 225.42 45.8576 224.5 44.7226 224.5C43.5876 224.5 42.6675 225.42 42.6675 226.555C42.6675 227.69 43.5876 228.61 44.7226 228.61Z" fill="#E3374B"/>
<path d="M2.68786 242.622C3.82282 242.622 4.7429 241.702 4.7429 240.567C4.7429 239.432 3.82282 238.512 2.68786 238.512C1.55289 238.512 0.632812 239.432 0.632812 240.567C0.632812 241.702 1.55289 242.622 2.68786 242.622Z" fill="#E3374B"/>
<path d="M16.7001 242.622C17.835 242.622 18.7551 241.702 18.7551 240.567C18.7551 239.432 17.835 238.512 16.7001 238.512C15.5651 238.512 14.645 239.432 14.645 240.567C14.645 241.702 15.5651 242.622 16.7001 242.622Z" fill="#E3374B"/>
<path d="M30.7104 242.622C31.8453 242.622 32.7654 241.702 32.7654 240.567C32.7654 239.432 31.8453 238.512 30.7104 238.512C29.5754 238.512 28.6553 239.432 28.6553 240.567C28.6553 241.702 29.5754 242.622 30.7104 242.622Z" fill="#E3374B"/>
<path d="M44.7226 242.622C45.8576 242.622 46.7776 241.702 46.7776 240.567C46.7776 239.432 45.8576 238.512 44.7226 238.512C43.5876 238.512 42.6675 239.432 42.6675 240.567C42.6675 241.702 43.5876 242.622 44.7226 242.622Z" fill="#E3374B"/>
<path d="M2.68786 256.634C3.82282 256.634 4.7429 255.714 4.7429 254.579C4.7429 253.444 3.82282 252.524 2.68786 252.524C1.55289 252.524 0.632812 253.444 0.632812 254.579C0.632812 255.714 1.55289 256.634 2.68786 256.634Z" fill="#E3374B"/>
<path d="M16.7001 256.634C17.835 256.634 18.7551 255.714 18.7551 254.579C18.7551 253.444 17.835 252.524 16.7001 252.524C15.5651 252.524 14.645 253.444 14.645 254.579C14.645 255.714 15.5651 256.634 16.7001 256.634Z" fill="#E3374B"/>
<path d="M30.7104 256.634C31.8453 256.634 32.7654 255.714 32.7654 254.579C32.7654 253.444 31.8453 252.524 30.7104 252.524C29.5754 252.524 28.6553 253.444 28.6553 254.579C28.6553 255.714 29.5754 256.634 30.7104 256.634Z" fill="#E3374B"/>
<path d="M44.7226 256.634C45.8576 256.634 46.7776 255.714 46.7776 254.579C46.7776 253.444 45.8576 252.524 44.7226 252.524C43.5876 252.524 42.6675 253.444 42.6675 254.579C42.6675 255.714 43.5876 256.634 44.7226 256.634Z" fill="#E3374B"/>
<path d="M2.68786 270.645C3.82282 270.645 4.7429 269.725 4.7429 268.59C4.7429 267.455 3.82282 266.535 2.68786 266.535C1.55289 266.535 0.632812 267.455 0.632812 268.59C0.632812 269.725 1.55289 270.645 2.68786 270.645Z" fill="#E3374B"/>
<path d="M16.7001 270.645C17.835 270.645 18.7551 269.725 18.7551 268.59C18.7551 267.455 17.835 266.535 16.7001 266.535C15.5651 266.535 14.645 267.455 14.645 268.59C14.645 269.725 15.5651 270.645 16.7001 270.645Z" fill="#E3374B"/>
<path d="M30.7104 270.645C31.8453 270.645 32.7654 269.725 32.7654 268.59C32.7654 267.455 31.8453 266.535 30.7104 266.535C29.5754 266.535 28.6553 267.455 28.6553 268.59C28.6553 269.725 29.5754 270.645 30.7104 270.645Z" fill="#E3374B"/>
<path d="M44.7226 270.645C45.8576 270.645 46.7776 269.725 46.7776 268.59C46.7776 267.455 45.8576 266.535 44.7226 266.535C43.5876 266.535 42.6675 267.455 42.6675 268.59C42.6675 269.725 43.5876 270.645 44.7226 270.645Z" fill="#E3374B"/>
<path d="M2.68786 284.656C3.82282 284.656 4.7429 283.736 4.7429 282.601C4.7429 281.466 3.82282 280.546 2.68786 280.546C1.55289 280.546 0.632812 281.466 0.632812 282.601C0.632812 283.736 1.55289 284.656 2.68786 284.656Z" fill="#E3374B"/>
<path d="M16.7001 284.656C17.835 284.656 18.7551 283.736 18.7551 282.601C18.7551 281.466 17.835 280.546 16.7001 280.546C15.5651 280.546 14.645 281.466 14.645 282.601C14.645 283.736 15.5651 284.656 16.7001 284.656Z" fill="#E3374B"/>
<path d="M30.7104 284.656C31.8453 284.656 32.7654 283.736 32.7654 282.601C32.7654 281.466 31.8453 280.546 30.7104 280.546C29.5754 280.546 28.6553 281.466 28.6553 282.601C28.6553 283.736 29.5754 284.656 30.7104 284.656Z" fill="#E3374B"/>
<path d="M44.7226 284.656C45.8576 284.656 46.7776 283.736 46.7776 282.601C46.7776 281.466 45.8576 280.546 44.7226 280.546C43.5876 280.546 42.6675 281.466 42.6675 282.601C42.6675 283.736 43.5876 284.656 44.7226 284.656Z" fill="#E3374B"/>
<path d="M2.68786 298.667C3.82282 298.667 4.7429 297.747 4.7429 296.612C4.7429 295.477 3.82282 294.557 2.68786 294.557C1.55289 294.557 0.632812 295.477 0.632812 296.612C0.632812 297.747 1.55289 298.667 2.68786 298.667Z" fill="#E3374B"/>
<path d="M16.7001 298.667C17.835 298.667 18.7551 297.747 18.7551 296.612C18.7551 295.477 17.835 294.557 16.7001 294.557C15.5651 294.557 14.645 295.477 14.645 296.612C14.645 297.747 15.5651 298.667 16.7001 298.667Z" fill="#E3374B"/>
<path d="M30.7104 298.667C31.8453 298.667 32.7654 297.747 32.7654 296.612C32.7654 295.477 31.8453 294.557 30.7104 294.557C29.5754 294.557 28.6553 295.477 28.6553 296.612C28.6553 297.747 29.5754 298.667 30.7104 298.667Z" fill="#E3374B"/>
<path d="M44.7226 298.667C45.8576 298.667 46.7776 297.747 46.7776 296.612C46.7776 295.477 45.8576 294.557 44.7226 294.557C43.5876 294.557 42.6675 295.477 42.6675 296.612C42.6675 297.747 43.5876 298.667 44.7226 298.667Z" fill="#E3374B"/>
<path d="M2.68786 312.681C3.82282 312.681 4.7429 311.761 4.7429 310.626C4.7429 309.491 3.82282 308.571 2.68786 308.571C1.55289 308.571 0.632812 309.491 0.632812 310.626C0.632812 311.761 1.55289 312.681 2.68786 312.681Z" fill="#E3374B"/>
<path d="M16.7001 312.681C17.835 312.681 18.7551 311.761 18.7551 310.626C18.7551 309.491 17.835 308.571 16.7001 308.571C15.5651 308.571 14.645 309.491 14.645 310.626C14.645 311.761 15.5651 312.681 16.7001 312.681Z" fill="#E3374B"/>
<path d="M30.7104 312.681C31.8453 312.681 32.7654 311.761 32.7654 310.626C32.7654 309.491 31.8453 308.571 30.7104 308.571C29.5754 308.571 28.6553 309.491 28.6553 310.626C28.6553 311.761 29.5754 312.681 30.7104 312.681Z" fill="#E3374B"/>
<path d="M44.7226 312.681C45.8576 312.681 46.7776 311.761 46.7776 310.626C46.7776 309.491 45.8576 308.571 44.7226 308.571C43.5876 308.571 42.6675 309.491 42.6675 310.626C42.6675 311.761 43.5876 312.681 44.7226 312.681Z" fill="#E3374B"/>
<path d="M2.68786 326.692C3.82282 326.692 4.7429 325.772 4.7429 324.637C4.7429 323.502 3.82282 322.582 2.68786 322.582C1.55289 322.582 0.632812 323.502 0.632812 324.637C0.632812 325.772 1.55289 326.692 2.68786 326.692Z" fill="#E3374B"/>
<path d="M16.7001 326.692C17.835 326.692 18.7551 325.772 18.7551 324.637C18.7551 323.502 17.835 322.582 16.7001 322.582C15.5651 322.582 14.645 323.502 14.645 324.637C14.645 325.772 15.5651 326.692 16.7001 326.692Z" fill="#E3374B"/>
<path d="M30.7104 326.692C31.8453 326.692 32.7654 325.772 32.7654 324.637C32.7654 323.502 31.8453 322.582 30.7104 322.582C29.5754 322.582 28.6553 323.502 28.6553 324.637C28.6553 325.772 29.5754 326.692 30.7104 326.692Z" fill="#E3374B"/>
<path d="M44.7226 326.692C45.8576 326.692 46.7776 325.772 46.7776 324.637C46.7776 323.502 45.8576 322.582 44.7226 322.582C43.5876 322.582 42.6675 323.502 42.6675 324.637C42.6675 325.772 43.5876 326.692 44.7226 326.692Z" fill="#E3374B"/>
<path d="M2.68786 340.703C3.82282 340.703 4.7429 339.783 4.7429 338.648C4.7429 337.513 3.82282 336.593 2.68786 336.593C1.55289 336.593 0.632812 337.513 0.632812 338.648C0.632812 339.783 1.55289 340.703 2.68786 340.703Z" fill="#E3374B"/>
<path d="M16.7001 340.703C17.835 340.703 18.7551 339.783 18.7551 338.648C18.7551 337.513 17.835 336.593 16.7001 336.593C15.5651 336.593 14.645 337.513 14.645 338.648C14.645 339.783 15.5651 340.703 16.7001 340.703Z" fill="#E3374B"/>
<path d="M30.7104 340.703C31.8453 340.703 32.7654 339.783 32.7654 338.648C32.7654 337.513 31.8453 336.593 30.7104 336.593C29.5754 336.593 28.6553 337.513 28.6553 338.648C28.6553 339.783 29.5754 340.703 30.7104 340.703Z" fill="#E3374B"/>
<path d="M44.7226 340.703C45.8576 340.703 46.7776 339.783 46.7776 338.648C46.7776 337.513 45.8576 336.593 44.7226 336.593C43.5876 336.593 42.6675 337.513 42.6675 338.648C42.6675 339.783 43.5876 340.703 44.7226 340.703Z" fill="#E3374B"/>
<path d="M2.68786 354.714C3.82282 354.714 4.7429 353.794 4.7429 352.659C4.7429 351.524 3.82282 350.604 2.68786 350.604C1.55289 350.604 0.632812 351.524 0.632812 352.659C0.632812 353.794 1.55289 354.714 2.68786 354.714Z" fill="#E3374B"/>
<path d="M16.7001 354.714C17.835 354.714 18.7551 353.794 18.7551 352.659C18.7551 351.524 17.835 350.604 16.7001 350.604C15.5651 350.604 14.645 351.524 14.645 352.659C14.645 353.794 15.5651 354.714 16.7001 354.714Z" fill="#E3374B"/>
<path d="M30.7104 354.714C31.8453 354.714 32.7654 353.794 32.7654 352.659C32.7654 351.524 31.8453 350.604 30.7104 350.604C29.5754 350.604 28.6553 351.524 28.6553 352.659C28.6553 353.794 29.5754 354.714 30.7104 354.714Z" fill="#E3374B"/>
<path d="M44.7226 354.714C45.8576 354.714 46.7776 353.794 46.7776 352.659C46.7776 351.524 45.8576 350.604 44.7226 350.604C43.5876 350.604 42.6675 351.524 42.6675 352.659C42.6675 353.794 43.5876 354.714 44.7226 354.714Z" fill="#E3374B"/>
</svg>
