<?xml version="1.0" standalone="no"?>
<!DOCTYPE svg PUBLIC "-//W3C//DTD SVG 20010904//EN"
 "http://www.w3.org/TR/2001/REC-SVG-20010904/DTD/svg10.dtd">
<svg version="1.0" xmlns="http://www.w3.org/2000/svg"
 width="848.000000pt" height="848.000000pt" viewBox="0 0 848.000000 848.000000"
 preserveAspectRatio="xMidYMid meet">
<metadata>
Created by potrace 1.11, written by Peter Selinger 2001-2013
</metadata>
<g transform="translate(0.000000,848.000000) scale(0.100000,-0.100000)"
fill="#000000" stroke="none">
<path d="M632 8471 c-4 -4 -8 -69 -7 -145 0 -159 -4 -153 95 -149 70 2 126 26
136 56 6 19 8 107 5 175 -1 9 -17 28 -35 40 -28 19 -50 24 -111 26 -41 1 -79
0 -83 -3z m164 -62 c13 -10 10 -157 -3 -170 -11 -11 -70 -15 -80 -6 -3 4 -6
39 -5 79 0 128 -3 119 40 112 20 -3 42 -10 48 -15z"/>
<path d="M2639 8465 c-6 -66 0 -279 9 -284 6 -3 38 -5 72 -4 44 1 69 8 93 24
46 33 51 45 52 132 1 73 -1 81 -26 108 -15 16 -35 29 -46 30 -92 5 -153 2
-154 -6z m153 -52 c7 -9 14 -46 15 -85 2 -75 -16 -110 -54 -103 -10 2 -22 4
-27 4 -4 1 -6 7 -3 15 3 8 3 17 -1 20 -5 6 -5 34 0 136 2 29 49 38 70 13z"/>
<path d="M4229 8470 c-8 -28 -3 -282 5 -287 23 -15 128 -4 161 17 52 32 57 43
56 129 -1 121 -22 143 -145 145 -42 1 -77 -1 -77 -4z m137 -54 c25 -8 32 -37
30 -116 -1 -47 -4 -56 -25 -66 -14 -7 -33 -9 -45 -5 -19 8 -21 17 -23 104 -2
104 -2 104 63 83z"/>
<path d="M5642 8470 c-4 -3 -8 -69 -8 -147 l0 -143 33 -1 c18 -1 44 -1 58 -1
53 0 61 3 99 36 l39 34 0 79 c0 88 -12 119 -51 134 -29 12 -157 19 -170 9z
m162 -62 c6 -8 10 -45 10 -82 -2 -82 -17 -102 -74 -97 -14 1 -17 36 -11 178 1
17 6 21 32 19 18 -1 37 -9 43 -18z"/>
<path d="M6771 8470 c-5 -4 -8 -268 -2 -290 0 -3 26 -5 56 -4 64 1 164 45 166
73 8 149 -2 194 -48 212 -29 12 -159 18 -172 9z m152 -55 c15 -6 18 -19 16
-86 -1 -51 -6 -83 -15 -90 -19 -16 -65 -18 -71 -4 -8 24 -8 185 1 188 14 5 50
1 69 -8z"/>
<path d="M7621 8470 c-4 -3 -7 -69 -7 -147 l-1 -143 26 -1 c88 -3 136 2 165
19 34 20 36 27 37 139 1 113 -23 135 -154 137 -32 1 -62 -1 -66 -4z m161 -58
c12 -12 14 -118 3 -150 -7 -25 -39 -42 -65 -35 -13 4 -16 21 -16 96 1 51 5 95
9 98 12 9 58 2 69 -9z"/>
<path d="M660 7629 c-1 -49 -1 -145 -1 -214 0 -69 0 -160 1 -203 l0 -79 110 4
c61 2 145 10 188 19 42 8 82 16 89 18 28 5 64 44 74 79 15 57 10 305 -8 347
-8 19 -14 37 -15 40 -2 10 -71 52 -101 62 -18 5 -101 12 -184 13 l-153 4 0
-90z m292 -15 c31 -29 42 -85 42 -216 1 -125 0 -128 -24 -145 -24 -17 -133
-23 -148 -8 -4 4 -8 91 -10 195 l-3 188 23 4 c42 7 102 -2 120 -18z"/>
<path d="M2650 7430 c0 -224 3 -289 12 -292 16 -6 232 0 270 7 39 6 109 40
133 63 12 10 27 21 35 24 18 6 21 25 22 163 1 153 -5 195 -34 239 -42 66 -84
77 -285 81 l-152 3 -1 -288z m257 201 c55 -2 79 -70 84 -236 2 -75 -18 -141
-46 -151 -14 -6 -86 -8 -122 -5 -19 2 -26 58 -27 228 l-1 162 30 3 c17 2 37 3
45 2 8 -2 25 -3 37 -3z"/>
<path d="M4257 7712 c-1 -4 -2 -135 -2 -292 l1 -285 112 3 c61 1 113 -2 116
-7 8 -13 73 -2 128 21 25 11 61 36 80 56 l33 37 1 154 c1 85 -4 170 -10 190
-15 48 -67 98 -118 112 -46 13 -336 22 -341 11z m298 -108 c24 -32 37 -94 40
-194 3 -110 -17 -169 -58 -171 -57 -2 -120 1 -125 6 -7 7 -12 366 -5 377 2 4
33 6 68 4 50 -2 69 -7 80 -22z"/>
<path d="M5670 7651 c-2 -416 0 -505 10 -511 6 -4 55 -5 110 -4 55 2 102 -1
104 -5 6 -9 34 -7 87 4 32 7 101 46 125 69 25 26 35 88 33 208 -3 179 -6 191
-48 236 -49 54 -95 65 -273 68 l-148 2 0 -67z m268 -26 c47 -10 66 -77 67
-227 0 -108 -2 -118 -22 -138 -27 -24 -134 -33 -155 -12 -16 16 -20 373 -5
384 11 7 68 4 115 -7z"/>
<path d="M6799 7682 c0 -50 0 -490 0 -522 l1 -26 108 0 c59 -1 121 -2 137 -3
40 -4 99 8 103 20 2 5 12 9 21 9 28 0 88 67 96 107 4 20 5 98 4 172 -3 177
-20 216 -114 256 -31 14 -74 18 -197 21 l-158 2 -1 -36z m262 -54 c50 -11 70
-66 75 -208 3 -107 -7 -155 -39 -172 -27 -15 -125 -14 -140 1 -7 7 -11 76 -12
196 -1 160 1 185 14 187 18 4 77 1 102 -4z"/>
<path d="M7619 7441 c-1 -3 -3 -70 -4 -148 l-2 -143 63 0 c46 0 74 6 101 21
64 35 67 41 66 128 -2 89 -12 117 -51 133 -29 12 -171 19 -173 9z m167 -63 c9
-14 8 -120 -1 -148 -8 -25 -43 -41 -65 -30 -12 7 -15 26 -14 92 1 45 2 88 3
93 1 14 69 7 77 -7z"/>
<path d="M2856 6703 c-1 -2 -44 -4 -94 -6 -50 -2 -95 -6 -98 -10 -9 -9 -11
-868 -2 -873 19 -12 305 -4 403 11 94 15 189 53 232 94 33 31 51 71 59 127 3
27 8 52 10 56 2 4 0 9 -5 13 -6 3 -7 13 -4 23 4 9 6 32 5 52 -1 19 -3 40 -3
45 0 6 0 35 1 65 1 30 1 57 0 60 -1 3 -3 28 -4 55 -4 83 -16 120 -54 171 -35
46 -102 89 -154 99 -11 2 -29 7 -41 11 -20 7 -245 12 -251 7z m199 -147 c17
-3 31 -5 33 -5 1 -1 4 0 6 2 14 8 56 -52 65 -92 20 -85 23 -115 26 -237 3
-141 -13 -205 -58 -238 -23 -17 -44 -21 -118 -22 -59 -1 -89 2 -90 10 -3 25
-8 192 -12 379 -3 189 -2 199 16 206 19 7 74 6 132 -3z"/>
<path d="M4507 6704 c-1 -1 -54 -5 -117 -7 -63 -3 -116 -6 -117 -6 -1 -1 -1
-197 0 -438 2 -427 2 -436 22 -440 69 -13 338 0 430 22 123 28 211 89 236 162
19 55 18 444 -1 504 -15 48 -43 93 -75 123 -16 15 -95 57 -115 61 -78 16 -253
28 -263 19z m181 -146 c33 -4 70 -55 83 -113 18 -84 19 -369 0 -413 -21 -50
-69 -70 -165 -68 l-79 1 -3 30 c-7 81 -16 545 -11 558 5 12 21 15 84 11 43 -2
84 -5 91 -6z"/>
<path d="M5828 6700 c-31 -3 -77 -5 -102 -5 -40 1 -46 -2 -47 -20 0 -11 -1
-206 -1 -433 0 -285 3 -417 10 -424 7 -7 49 -11 104 -10 303 5 432 33 522 115
62 57 68 85 68 318 0 238 -10 290 -67 356 -31 36 -99 80 -137 87 -7 2 -31 6
-52 11 -46 9 -216 12 -298 5z m257 -144 c11 -3 23 -4 27 -3 3 1 18 -9 32 -22
42 -39 57 -117 61 -308 5 -222 -24 -262 -192 -261 -59 0 -72 3 -72 17 0 9 -3
70 -6 136 -3 66 -7 191 -8 278 -2 156 -2 157 21 165 24 8 100 6 137 -2z"/>
<path d="M795 6680 c-22 -3 -61 -5 -87 -5 l-48 0 0 -127 c-1 -71 -1 -266 -1
-435 l-1 -307 29 -9 c24 -7 171 -3 343 8 60 4 109 14 131 26 11 5 19 7 19 5 0
-14 82 40 123 79 55 55 60 81 60 310 0 163 -8 262 -23 280 -5 6 -8 14 -8 19 0
4 -17 28 -37 53 -32 38 -97 79 -140 89 -5 1 -21 5 -35 7 -14 3 -27 6 -30 7
-12 5 -259 5 -295 0z m297 -154 c35 -17 53 -45 63 -96 3 -14 7 -36 11 -50 3
-14 7 -87 9 -162 4 -178 -9 -222 -73 -257 -24 -13 -181 -21 -188 -10 -8 14
-22 577 -15 596 4 10 163 -7 193 -21z"/>
<path d="M6797 6105 c1 -152 4 -283 7 -291 4 -12 29 -13 143 -9 163 5 169 6
232 40 79 43 90 73 89 242 0 112 -4 149 -18 180 -38 86 -105 110 -310 112
l-145 1 2 -275z m275 191 c41 -12 60 -70 63 -199 5 -162 -8 -185 -110 -192
-39 -3 -57 0 -66 11 -19 23 -20 372 -2 383 17 9 78 7 115 -3z"/>
<path d="M7615 5941 l0 -146 54 -3 c33 -2 66 3 86 12 18 9 36 16 39 16 4 0 16
9 28 20 18 17 21 30 21 98 -1 44 -6 89 -12 101 -19 34 -60 48 -141 49 l-76 0
1 -147z m171 78 c8 -13 8 -121 0 -146 -7 -23 -43 -39 -68 -31 -8 3 -12 32 -13
96 0 74 3 92 15 95 21 4 59 -4 66 -14z"/>
<path d="M740 5420 l-95 -5 -1 -570 c0 -313 1 -575 3 -580 6 -18 176 -22 413
-12 195 9 349 61 443 151 76 73 81 97 81 401 0 345 -7 382 -104 498 -42 51
-132 93 -245 113 -47 9 -359 11 -495 4z m425 -186 c123 -25 141 -65 161 -349
16 -225 1 -341 -50 -390 -39 -36 -63 -43 -179 -44 l-117 -2 -1 28 c-1 15 -3
42 -4 58 -3 24 -15 296 -16 340 0 6 2 29 3 53 2 23 0 42 -4 42 -4 0 -3 13 2
29 4 15 4 34 0 42 -5 7 -5 20 0 29 5 9 5 22 0 30 -5 8 -5 21 0 30 5 9 5 22 1
29 -5 7 -5 27 -2 44 6 28 11 32 46 35 22 2 41 5 42 6 4 4 86 -3 118 -10z"/>
<path d="M2876 5393 c-1 -1 -56 -4 -122 -7 -65 -2 -122 -5 -125 -5 -3 -1 -6
-262 -6 -580 l0 -579 61 -8 c64 -8 134 -8 358 0 207 7 363 58 447 145 63 65
75 129 74 395 0 355 -10 409 -95 502 -98 106 -197 135 -481 138 -60 1 -109 0
-111 -1z m294 -202 c69 -15 73 -17 97 -66 17 -34 25 -65 39 -155 11 -73 18
-356 10 -395 -14 -63 -36 -102 -74 -131 -40 -31 -43 -32 -156 -33 l-116 -2 -1
38 c-1 21 -4 90 -6 153 -3 63 -5 223 -6 354 l-2 239 30 4 c16 3 31 5 32 7 6 6
102 -2 153 -13z"/>
<path d="M4526 5392 c-2 -1 -54 -4 -117 -6 -63 -3 -116 -5 -119 -5 -3 -1 -5
-262 -5 -581 0 -573 0 -580 20 -581 11 0 31 -3 45 -6 32 -7 158 -7 340 0 136
5 227 20 298 49 15 6 29 12 32 13 70 24 160 102 186 162 8 17 16 53 19 80 8
69 8 446 0 522 -20 207 -143 319 -380 347 -58 7 -314 12 -319 6z m326 -206
c98 -28 115 -80 124 -376 5 -188 3 -218 -19 -305 -18 -66 -82 -95 -215 -95
-55 0 -103 4 -106 8 -11 17 -26 691 -18 754 3 20 10 28 31 30 60 7 150 0 203
-16z"/>
<path d="M5906 5083 c-1 -1 -50 -4 -109 -6 -59 -2 -110 -7 -113 -10 -4 -4 -7
-198 -7 -433 0 -351 3 -428 14 -435 14 -8 263 -5 373 6 147 14 276 89 306 179
12 38 20 416 8 416 -4 0 -5 7 -2 14 11 27 -25 121 -61 164 -39 45 -114 85
-181 97 -36 7 -223 13 -228 8z m177 -147 c34 -5 73 -30 86 -53 5 -10 12 -36
16 -58 3 -22 9 -51 11 -65 3 -14 7 -85 8 -159 3 -159 -7 -199 -62 -233 -29
-18 -50 -22 -114 -21 -44 0 -81 3 -84 5 -10 11 -24 562 -14 577 12 18 64 20
153 7z"/>
<path d="M6799 4782 c-3 -170 0 -523 5 -530 2 -4 50 -8 106 -7 69 1 104 -3
111 -11 16 -20 105 -2 163 33 78 47 81 57 82 242 1 144 -1 169 -17 201 -45 85
-93 103 -296 106 l-153 2 -1 -36z m273 -53 c40 -17 60 -76 64 -196 3 -127 -8
-169 -50 -182 -44 -13 -124 -12 -133 2 -7 11 -13 365 -7 378 6 11 99 9 126 -2z"/>
<path d="M7619 4527 c-1 -1 -3 -68 -4 -149 l-2 -148 59 0 c59 0 134 26 158 55
15 18 15 166 1 193 -18 34 -50 45 -133 48 -43 2 -79 2 -79 1z m166 -67 c5 -8
8 -73 6 -121 -1 -29 -29 -66 -48 -63 -7 1 -19 2 -26 3 -9 1 -12 25 -12 89 0
48 4 92 7 98 8 12 65 7 73 -6z"/>
<path d="M2760 3810 l-105 -5 -2 -732 -2 -731 62 -9 c106 -14 509 -4 628 17
92 16 91 16 124 29 17 6 55 21 85 33 64 26 117 61 181 124 88 84 93 112 93
499 0 392 -7 445 -70 553 -54 91 -170 176 -269 196 -16 4 -41 9 -55 12 -14 2
-38 7 -55 10 -40 8 -482 10 -615 4z m555 -254 c95 -17 142 -58 161 -136 4 -19
8 -37 9 -40 1 -3 5 -36 9 -75 5 -38 10 -79 12 -90 3 -15 16 -295 16 -350 0
-37 -13 -126 -24 -160 -19 -59 -39 -82 -94 -106 -42 -19 -68 -22 -182 -23 -94
0 -135 3 -141 12 -9 16 -16 278 -16 662 l0 305 33 2 c19 1 35 3 37 5 7 6 137
2 180 -6z"/>
<path d="M695 3770 l-80 -5 0 -727 c0 -401 2 -729 5 -729 40 -10 94 -12 315
-11 143 0 287 3 320 7 164 16 334 88 428 180 69 68 83 94 96 171 11 62 8 699
-3 745 -34 145 -117 253 -237 309 -119 55 -174 62 -484 64 -154 0 -316 -1
-360 -4z m595 -243 c46 -10 87 -30 102 -51 26 -36 55 -134 63 -211 4 -38 9
-83 11 -100 2 -16 6 -113 9 -215 5 -164 3 -193 -15 -254 -19 -68 -51 -116 -77
-116 -7 0 -13 -4 -13 -9 0 -5 -17 -12 -37 -16 -44 -9 -272 -15 -290 -8 -7 3
-13 15 -13 26 0 12 -2 83 -5 157 -10 246 -14 776 -6 789 4 7 32 15 62 18 30 3
55 6 56 7 3 2 130 -12 153 -17z"/>
<path d="M4566 3503 c-1 -2 -62 -4 -135 -7 -72 -2 -135 -6 -138 -10 -4 -3 -7
-265 -7 -581 -1 -568 -1 -575 19 -576 11 0 31 -3 45 -6 49 -11 459 -2 519 11
113 25 223 79 283 140 74 74 80 109 79 411 -1 257 -7 325 -31 387 -18 44 -92
132 -133 156 -52 33 -153 61 -240 68 -82 7 -257 11 -261 7z m275 -213 c57 -17
69 -25 82 -53 17 -37 24 -59 33 -107 12 -67 14 -96 19 -270 5 -155 3 -182 -13
-233 -11 -32 -21 -59 -23 -61 -30 -20 -67 -41 -79 -44 -30 -8 -221 -8 -226 -1
-3 5 -7 28 -9 51 -2 24 -4 43 -5 43 -4 0 -11 302 -12 485 -2 194 -2 194 21
200 56 13 149 8 212 -10z"/>
<path d="M5890 3190 c-41 -3 -105 -5 -142 -5 -38 0 -68 -4 -69 -10 -4 -82 0
-855 5 -864 5 -8 57 -10 184 -6 214 7 229 8 313 34 101 32 179 101 195 174 10
47 6 414 -6 462 -39 171 -183 235 -480 215z m215 -151 c42 -12 65 -39 77 -90
16 -71 19 -97 22 -237 4 -167 -7 -207 -67 -239 -34 -17 -184 -26 -193 -11 -10
16 -24 532 -15 571 3 16 13 18 75 16 39 -1 84 -6 101 -10z"/>
<path d="M6833 2902 c-30 -3 -33 -7 -34 -35 -3 -170 1 -538 5 -546 4 -6 12 -8
19 -6 25 10 188 11 194 2 12 -20 163 13 163 35 0 5 7 8 14 8 8 0 28 17 43 37
28 36 28 38 29 191 2 154 -4 195 -36 238 -41 56 -105 74 -270 77 -52 1 -110 1
-127 -1z m232 -92 c47 -16 66 -68 70 -195 6 -162 -13 -195 -113 -195 -78 0
-76 -4 -77 202 -1 101 0 185 1 189 5 10 86 10 119 -1z"/>
<path d="M7619 2636 c-4 -2 -7 -273 -3 -286 9 -35 176 -1 213 43 9 11 13 44
13 96 0 86 -16 124 -55 137 -16 5 -158 13 -168 10z m160 -65 c19 -12 18 -134
-2 -164 -12 -18 -22 -23 -44 -20 l-29 5 2 91 c1 51 2 93 3 95 3 6 57 1 70 -7z"/>
<path d="M770 1860 l-135 -5 0 -877 c0 -779 1 -878 15 -879 8 -1 32 -2 53 -2
20 -1 37 -4 37 -7 0 -4 98 -5 218 -3 119 2 246 4 282 4 36 1 69 4 75 7 5 3 23
7 40 8 38 2 122 13 155 21 92 21 261 87 268 105 2 4 10 8 17 8 16 0 106 70
146 114 16 17 38 49 48 71 19 38 24 56 40 155 7 45 6 691 -2 765 -16 157 -72
273 -180 376 -52 50 -192 108 -302 125 -16 3 -43 7 -60 11 -39 7 -541 9 -715
3z m665 -284 c102 -23 169 -89 189 -186 3 -14 8 -36 11 -50 37 -150 54 -652
26 -747 -1 -2 0 -5 2 -6 1 -2 -4 -11 -12 -20 -7 -10 -11 -17 -7 -17 11 0 -24
-73 -42 -86 -23 -18 -103 -58 -121 -61 -47 -7 -178 -16 -248 -17 -67 -2 -84 1
-87 14 -13 42 -19 122 -23 300 -2 107 -6 256 -8 330 -3 74 -6 226 -8 337 l-3
203 31 5 c16 3 44 6 60 8 37 5 212 -1 240 -7z"/>
<path d="M2857 1554 c-1 -2 -48 -4 -104 -5 l-102 -1 2 -731 c2 -721 2 -730 22
-736 11 -3 155 -4 320 -4 294 2 312 3 462 38 35 8 150 62 190 89 20 14 60 48
89 76 82 80 89 115 88 490 0 302 -6 424 -22 458 -5 9 -21 42 -35 72 -61 126
-184 212 -337 235 -25 4 -54 10 -65 12 -21 6 -503 12 -508 7z m468 -250 c50
-9 94 -30 116 -58 41 -50 71 -243 73 -473 1 -57 4 -103 8 -103 4 0 5 -6 3 -13
-3 -7 -6 -44 -8 -82 -1 -39 -5 -75 -9 -80 -3 -6 -9 -27 -13 -47 -9 -49 -32
-73 -91 -100 -41 -18 -70 -22 -179 -23 -71 -1 -135 -1 -141 2 -12 4 -19 234
-19 678 l0 300 45 5 c56 7 162 4 215 -6z"/>
<path d="M4425 1242 c-2 -2 -33 -4 -68 -3 -43 0 -66 -4 -69 -12 -2 -7 -3 -268
-3 -582 l1 -570 29 -5 c39 -6 445 -3 510 4 58 6 149 34 220 67 54 25 164 127
166 153 2 17 5 35 9 39 11 13 15 455 5 560 -11 114 -43 180 -123 254 -36 33
-145 77 -222 89 -48 7 -448 13 -455 6z m408 -199 c88 -24 106 -53 132 -213 3
-19 8 -116 11 -215 6 -243 -9 -296 -101 -335 -30 -13 -65 -17 -140 -16 l-100
1 -7 40 c-13 69 -27 620 -19 732 2 24 143 28 224 6z"/>
<path d="M5866 983 c-1 -1 -44 -4 -94 -5 -91 -3 -92 -3 -93 -28 -1 -34 -1
-822 0 -836 1 -14 8 -15 121 -16 296 -4 436 28 524 118 20 21 41 56 48 78 15
54 13 420 -2 478 -30 109 -89 165 -210 198 -38 11 -285 22 -294 13z m226 -149
c54 -11 75 -32 87 -82 21 -92 23 -108 26 -241 4 -221 -18 -254 -172 -259 l-93
-4 -1 29 c-1 15 -3 71 -5 123 -11 254 -9 432 5 440 15 8 104 5 153 -6z"/>
<path d="M6799 638 c-2 -159 0 -540 4 -544 2 -3 67 -6 143 -8 164 -5 215 7
274 63 47 45 54 81 48 258 -5 144 -17 184 -71 220 -48 33 -107 42 -259 43
l-138 0 -1 -32z m286 -72 c30 -20 47 -86 51 -196 4 -112 -7 -155 -44 -174 -32
-15 -118 -14 -134 2 -9 9 -12 68 -13 195 -1 175 0 182 20 187 32 9 97 1 120
-14z"/>
<path d="M7619 376 c-1 -1 -3 -67 -3 -148 l-2 -148 30 -1 c62 -2 92 3 132 21
60 27 66 39 66 129 -1 124 -19 143 -144 146 -43 1 -79 1 -79 1z m172 -79 c4
-54 -2 -130 -11 -147 -6 -12 -21 -20 -35 -20 -14 0 -28 -1 -32 -2 -4 -2 -8 40
-8 92 0 75 3 96 15 101 19 8 70 -10 71 -24z"/>
</g>
</svg>
