<svg width="420" height="114" viewBox="0 0 420 114" fill="none" xmlns="http://www.w3.org/2000/svg">
<line x1="109.582" y1="0.603277" x2="350.497" y2="0.603277" stroke="#888888" stroke-width="0.793446"/>
<line x1="109.582" y1="113.307" x2="350.497" y2="113.307" stroke="#888888" stroke-width="0.793446"/>
<g filter="url(#filter0_d)">
<path d="M413.091 34.2631C413.091 35.5011 414.095 36.5047 415.333 36.5047C416.571 36.5047 417.574 35.5011 417.574 34.2631C417.574 33.0251 416.571 32.0215 415.333 32.0215C414.095 32.0215 413.091 33.0251 413.091 34.2631Z" fill="url(#paint0_linear)"/>
<path d="M413.091 49.5443C413.091 50.7823 414.095 51.7859 415.333 51.7859C416.571 51.7859 417.574 50.7823 417.574 49.5443C417.574 48.3063 416.571 47.3027 415.333 47.3027C414.095 47.3027 413.091 48.3063 413.091 49.5443Z" fill="url(#paint1_linear)"/>
<path d="M413.091 64.8305C413.091 66.0685 414.095 67.0721 415.333 67.0721C416.571 67.0721 417.574 66.0685 417.574 64.8305C417.574 63.5925 416.571 62.5889 415.333 62.5889C414.095 62.5889 413.091 63.5925 413.091 64.8305Z" fill="url(#paint2_linear)"/>
<path d="M413.091 80.1117C413.091 81.3497 414.095 82.3533 415.333 82.3533C416.571 82.3533 417.574 81.3497 417.574 80.1117C417.574 78.8737 416.571 77.8701 415.333 77.8701C414.095 77.8701 413.091 78.8737 413.091 80.1117Z" fill="url(#paint3_linear)"/>
<path d="M397.806 34.2611C397.806 35.4991 398.809 36.5027 400.047 36.5027C401.285 36.5027 402.289 35.4991 402.289 34.2611C402.289 33.0231 401.285 32.0195 400.047 32.0195C398.809 32.0195 397.806 33.0231 397.806 34.2611Z" fill="url(#paint4_linear)"/>
<path d="M397.806 49.5443C397.806 50.7823 398.809 51.7859 400.047 51.7859C401.285 51.7859 402.289 50.7823 402.289 49.5443C402.289 48.3063 401.285 47.3027 400.047 47.3027C398.809 47.3027 397.806 48.3063 397.806 49.5443Z" fill="url(#paint5_linear)"/>
<path d="M397.806 64.8305C397.806 66.0685 398.809 67.0721 400.047 67.0721C401.285 67.0721 402.289 66.0685 402.289 64.8305C402.289 63.5925 401.285 62.5889 400.047 62.5889C398.809 62.5889 397.806 63.5925 397.806 64.8305Z" fill="url(#paint6_linear)"/>
<path d="M397.806 80.1117C397.806 81.3497 398.809 82.3533 400.047 82.3533C401.285 82.3533 402.289 81.3497 402.289 80.1117C402.289 78.8737 401.285 77.8701 400.047 77.8701C398.809 77.8701 397.806 78.8737 397.806 80.1117Z" fill="url(#paint7_linear)"/>
<path d="M382.523 34.2611C382.523 35.4991 383.526 36.5027 384.764 36.5027C386.002 36.5027 387.006 35.4991 387.006 34.2611C387.006 33.0231 386.002 32.0195 384.764 32.0195C383.526 32.0195 382.523 33.0231 382.523 34.2611Z" fill="url(#paint8_linear)"/>
<path d="M382.523 49.5443C382.523 50.7823 383.526 51.7859 384.764 51.7859C386.002 51.7859 387.006 50.7823 387.006 49.5443C387.006 48.3063 386.002 47.3027 384.764 47.3027C383.526 47.3027 382.523 48.3063 382.523 49.5443Z" fill="url(#paint9_linear)"/>
<path d="M382.523 64.8305C382.523 66.0685 383.526 67.0721 384.764 67.0721C386.002 67.0721 387.006 66.0685 387.006 64.8305C387.006 63.5925 386.002 62.5889 384.764 62.5889C383.526 62.5889 382.523 63.5925 382.523 64.8305Z" fill="url(#paint10_linear)"/>
<path d="M382.523 80.1117C382.523 81.3497 383.526 82.3533 384.764 82.3533C386.002 82.3533 387.006 81.3497 387.006 80.1117C387.006 78.8737 386.002 77.8701 384.764 77.8701C383.526 77.8701 382.523 78.8737 382.523 80.1117Z" fill="url(#paint11_linear)"/>
<path d="M367.239 34.2611C367.239 35.4991 368.243 36.5027 369.481 36.5027C370.719 36.5027 371.723 35.4991 371.723 34.2611C371.723 33.0231 370.719 32.0195 369.481 32.0195C368.243 32.0195 367.239 33.0231 367.239 34.2611Z" fill="url(#paint12_linear)"/>
<path d="M367.239 49.5443C367.239 50.7823 368.243 51.7859 369.481 51.7859C370.719 51.7859 371.723 50.7823 371.723 49.5443C371.723 48.3063 370.719 47.3027 369.481 47.3027C368.243 47.3027 367.239 48.3063 367.239 49.5443Z" fill="url(#paint13_linear)"/>
<path d="M367.239 64.8305C367.239 66.0685 368.243 67.0721 369.481 67.0721C370.719 67.0721 371.723 66.0685 371.723 64.8305C371.723 63.5925 370.719 62.5889 369.481 62.5889C368.243 62.5889 367.239 63.5925 367.239 64.8305Z" fill="url(#paint14_linear)"/>
<path d="M367.239 80.1117C367.239 81.3497 368.243 82.3533 369.481 82.3533C370.719 82.3533 371.723 81.3497 371.723 80.1117C371.723 78.8737 370.719 77.8701 369.481 77.8701C368.243 77.8701 367.239 78.8737 367.239 80.1117Z" fill="url(#paint15_linear)"/>
<path d="M351.956 34.2611C351.956 35.4991 352.96 36.5027 354.198 36.5027C355.436 36.5027 356.439 35.4991 356.439 34.2611C356.439 33.0231 355.436 32.0195 354.198 32.0195C352.96 32.0195 351.956 33.0231 351.956 34.2611Z" fill="url(#paint16_linear)"/>
<path d="M351.956 49.5443C351.956 50.7823 352.96 51.7859 354.198 51.7859C355.436 51.7859 356.439 50.7823 356.439 49.5443C356.439 48.3063 355.436 47.3027 354.198 47.3027C352.96 47.3027 351.956 48.3063 351.956 49.5443Z" fill="url(#paint17_linear)"/>
<path d="M351.956 64.8305C351.956 66.0685 352.96 67.0721 354.198 67.0721C355.436 67.0721 356.439 66.0685 356.439 64.8305C356.439 63.5925 355.436 62.5889 354.198 62.5889C352.96 62.5889 351.956 63.5925 351.956 64.8305Z" fill="url(#paint18_linear)"/>
<path d="M351.956 80.1117C351.956 81.3497 352.96 82.3533 354.198 82.3533C355.436 82.3533 356.439 81.3497 356.439 80.1117C356.439 78.8737 355.436 77.8701 354.198 77.8701C352.96 77.8701 351.956 78.8737 351.956 80.1117Z" fill="url(#paint19_linear)"/>
<path d="M336.673 34.2611C336.673 35.4991 337.677 36.5027 338.915 36.5027C340.153 36.5027 341.156 35.4991 341.156 34.2611C341.156 33.0231 340.153 32.0195 338.915 32.0195C337.677 32.0195 336.673 33.0231 336.673 34.2611Z" fill="url(#paint20_linear)"/>
<path d="M336.673 49.5443C336.673 50.7823 337.677 51.7859 338.915 51.7859C340.153 51.7859 341.156 50.7823 341.156 49.5443C341.156 48.3063 340.153 47.3027 338.915 47.3027C337.677 47.3027 336.673 48.3063 336.673 49.5443Z" fill="url(#paint21_linear)"/>
<path d="M336.673 64.8305C336.673 66.0685 337.677 67.0721 338.915 67.0721C340.153 67.0721 341.156 66.0685 341.156 64.8305C341.156 63.5925 340.153 62.5889 338.915 62.5889C337.677 62.5889 336.673 63.5925 336.673 64.8305Z" fill="url(#paint22_linear)"/>
<path d="M336.673 80.1117C336.673 81.3497 337.677 82.3533 338.915 82.3533C340.153 82.3533 341.156 81.3497 341.156 80.1117C341.156 78.8737 340.153 77.8701 338.915 77.8701C337.677 77.8701 336.673 78.8737 336.673 80.1117Z" fill="url(#paint23_linear)"/>
<path d="M321.388 34.2611C321.388 35.4991 322.392 36.5027 323.629 36.5027C324.867 36.5027 325.871 35.4991 325.871 34.2611C325.871 33.0231 324.867 32.0195 323.629 32.0195C322.392 32.0195 321.388 33.0231 321.388 34.2611Z" fill="url(#paint24_linear)"/>
<path d="M321.388 49.5443C321.388 50.7823 322.392 51.7859 323.629 51.7859C324.867 51.7859 325.871 50.7823 325.871 49.5443C325.871 48.3063 324.867 47.3027 323.629 47.3027C322.392 47.3027 321.388 48.3063 321.388 49.5443Z" fill="url(#paint25_linear)"/>
<path d="M321.388 64.8305C321.388 66.0685 322.392 67.0721 323.629 67.0721C324.867 67.0721 325.871 66.0685 325.871 64.8305C325.871 63.5925 324.867 62.5889 323.629 62.5889C322.392 62.5889 321.388 63.5925 321.388 64.8305Z" fill="url(#paint26_linear)"/>
<path d="M321.388 80.1117C321.388 81.3497 322.392 82.3533 323.629 82.3533C324.867 82.3533 325.871 81.3497 325.871 80.1117C325.871 78.8737 324.867 77.8701 323.629 77.8701C322.392 77.8701 321.388 78.8737 321.388 80.1117Z" fill="url(#paint27_linear)"/>
<path d="M306.105 34.2611C306.105 35.4991 307.108 36.5027 308.346 36.5027C309.584 36.5027 310.588 35.4991 310.588 34.2611C310.588 33.0231 309.584 32.0195 308.346 32.0195C307.108 32.0195 306.105 33.0231 306.105 34.2611Z" fill="url(#paint28_linear)"/>
<path d="M306.105 49.5443C306.105 50.7823 307.108 51.7859 308.346 51.7859C309.584 51.7859 310.588 50.7823 310.588 49.5443C310.588 48.3063 309.584 47.3027 308.346 47.3027C307.108 47.3027 306.105 48.3063 306.105 49.5443Z" fill="url(#paint29_linear)"/>
<path d="M306.105 64.8305C306.105 66.0685 307.108 67.0721 308.346 67.0721C309.584 67.0721 310.588 66.0685 310.588 64.8305C310.588 63.5925 309.584 62.5889 308.346 62.5889C307.108 62.5889 306.105 63.5925 306.105 64.8305Z" fill="url(#paint30_linear)"/>
<path d="M306.105 80.1117C306.105 81.3497 307.108 82.3533 308.346 82.3533C309.584 82.3533 310.588 81.3497 310.588 80.1117C310.588 78.8737 309.584 77.8701 308.346 77.8701C307.108 77.8701 306.105 78.8737 306.105 80.1117Z" fill="url(#paint31_linear)"/>
<path d="M290.822 34.2611C290.822 35.4991 291.825 36.5027 293.063 36.5027C294.301 36.5027 295.305 35.4991 295.305 34.2611C295.305 33.0231 294.301 32.0195 293.063 32.0195C291.825 32.0195 290.822 33.0231 290.822 34.2611Z" fill="url(#paint32_linear)"/>
<path d="M290.822 49.5443C290.822 50.7823 291.825 51.7859 293.063 51.7859C294.301 51.7859 295.305 50.7823 295.305 49.5443C295.305 48.3063 294.301 47.3027 293.063 47.3027C291.825 47.3027 290.822 48.3063 290.822 49.5443Z" fill="url(#paint33_linear)"/>
<path d="M290.822 64.8305C290.822 66.0685 291.825 67.0721 293.063 67.0721C294.301 67.0721 295.305 66.0685 295.305 64.8305C295.305 63.5925 294.301 62.5889 293.063 62.5889C291.825 62.5889 290.822 63.5925 290.822 64.8305Z" fill="url(#paint34_linear)"/>
<path d="M290.822 80.1117C290.822 81.3497 291.825 82.3533 293.063 82.3533C294.301 82.3533 295.305 81.3497 295.305 80.1117C295.305 78.8737 294.301 77.8701 293.063 77.8701C291.825 77.8701 290.822 78.8737 290.822 80.1117Z" fill="url(#paint35_linear)"/>
<path d="M275.538 34.2611C275.538 35.4991 276.542 36.5027 277.78 36.5027C279.018 36.5027 280.021 35.4991 280.021 34.2611C280.021 33.0231 279.018 32.0195 277.78 32.0195C276.542 32.0195 275.538 33.0231 275.538 34.2611Z" fill="url(#paint36_linear)"/>
<path d="M275.538 49.5443C275.538 50.7823 276.542 51.7859 277.78 51.7859C279.018 51.7859 280.021 50.7823 280.021 49.5443C280.021 48.3063 279.018 47.3027 277.78 47.3027C276.542 47.3027 275.538 48.3063 275.538 49.5443Z" fill="url(#paint37_linear)"/>
<path d="M275.538 64.8305C275.538 66.0685 276.542 67.0721 277.78 67.0721C279.018 67.0721 280.021 66.0685 280.021 64.8305C280.021 63.5925 279.018 62.5889 277.78 62.5889C276.542 62.5889 275.538 63.5925 275.538 64.8305Z" fill="url(#paint38_linear)"/>
<path d="M275.538 80.1117C275.538 81.3497 276.542 82.3533 277.78 82.3533C279.018 82.3533 280.021 81.3497 280.021 80.1117C280.021 78.8737 279.018 77.8701 277.78 77.8701C276.542 77.8701 275.538 78.8737 275.538 80.1117Z" fill="url(#paint39_linear)"/>
<path d="M260.255 34.2611C260.255 35.4991 261.259 36.5027 262.497 36.5027C263.735 36.5027 264.738 35.4991 264.738 34.2611C264.738 33.0231 263.735 32.0195 262.497 32.0195C261.259 32.0195 260.255 33.0231 260.255 34.2611Z" fill="url(#paint40_linear)"/>
<path d="M260.255 49.5443C260.255 50.7823 261.259 51.7859 262.497 51.7859C263.735 51.7859 264.738 50.7823 264.738 49.5443C264.738 48.3063 263.735 47.3027 262.497 47.3027C261.259 47.3027 260.255 48.3063 260.255 49.5443Z" fill="url(#paint41_linear)"/>
<path d="M260.255 64.8305C260.255 66.0685 261.259 67.0721 262.497 67.0721C263.735 67.0721 264.738 66.0685 264.738 64.8305C264.738 63.5925 263.735 62.5889 262.497 62.5889C261.259 62.5889 260.255 63.5925 260.255 64.8305Z" fill="url(#paint42_linear)"/>
<path d="M260.255 80.1117C260.255 81.3497 261.259 82.3533 262.497 82.3533C263.735 82.3533 264.738 81.3497 264.738 80.1117C264.738 78.8737 263.735 77.8701 262.497 77.8701C261.259 77.8701 260.255 78.8737 260.255 80.1117Z" fill="url(#paint43_linear)"/>
<path d="M244.97 34.2611C244.97 35.4991 245.974 36.5027 247.212 36.5027C248.45 36.5027 249.453 35.4991 249.453 34.2611C249.453 33.0231 248.45 32.0195 247.212 32.0195C245.974 32.0195 244.97 33.0231 244.97 34.2611Z" fill="url(#paint44_linear)"/>
<path d="M244.97 49.5443C244.97 50.7823 245.974 51.7859 247.212 51.7859C248.45 51.7859 249.453 50.7823 249.453 49.5443C249.453 48.3063 248.45 47.3027 247.212 47.3027C245.974 47.3027 244.97 48.3063 244.97 49.5443Z" fill="url(#paint45_linear)"/>
<path d="M244.97 64.8305C244.97 66.0685 245.974 67.0721 247.212 67.0721C248.45 67.0721 249.453 66.0685 249.453 64.8305C249.453 63.5925 248.45 62.5889 247.212 62.5889C245.974 62.5889 244.97 63.5925 244.97 64.8305Z" fill="url(#paint46_linear)"/>
<path d="M244.97 80.1117C244.97 81.3497 245.974 82.3533 247.212 82.3533C248.45 82.3533 249.453 81.3497 249.453 80.1117C249.453 78.8737 248.45 77.8701 247.212 77.8701C245.974 77.8701 244.97 78.8737 244.97 80.1117Z" fill="url(#paint47_linear)"/>
<path d="M229.687 34.2611C229.687 35.4991 230.69 36.5027 231.928 36.5027C233.166 36.5027 234.17 35.4991 234.17 34.2611C234.17 33.0231 233.166 32.0195 231.928 32.0195C230.69 32.0195 229.687 33.0231 229.687 34.2611Z" fill="url(#paint48_linear)"/>
<path d="M229.687 49.5443C229.687 50.7823 230.69 51.7859 231.928 51.7859C233.166 51.7859 234.17 50.7823 234.17 49.5443C234.17 48.3063 233.166 47.3027 231.928 47.3027C230.69 47.3027 229.687 48.3063 229.687 49.5443Z" fill="url(#paint49_linear)"/>
<path d="M229.687 64.8305C229.687 66.0685 230.69 67.0721 231.928 67.0721C233.166 67.0721 234.17 66.0685 234.17 64.8305C234.17 63.5925 233.166 62.5889 231.928 62.5889C230.69 62.5889 229.687 63.5925 229.687 64.8305Z" fill="url(#paint50_linear)"/>
<path d="M229.687 80.1117C229.687 81.3497 230.69 82.3533 231.928 82.3533C233.166 82.3533 234.17 81.3497 234.17 80.1117C234.17 78.8737 233.166 77.8701 231.928 77.8701C230.69 77.8701 229.687 78.8737 229.687 80.1117Z" fill="url(#paint51_linear)"/>
<path d="M214.404 34.2611C214.404 35.4991 215.407 36.5027 216.645 36.5027C217.883 36.5027 218.887 35.4991 218.887 34.2611C218.887 33.0231 217.883 32.0195 216.645 32.0195C215.407 32.0195 214.404 33.0231 214.404 34.2611Z" fill="url(#paint52_linear)"/>
<path d="M214.404 49.5443C214.404 50.7823 215.407 51.7859 216.645 51.7859C217.883 51.7859 218.887 50.7823 218.887 49.5443C218.887 48.3063 217.883 47.3027 216.645 47.3027C215.407 47.3027 214.404 48.3063 214.404 49.5443Z" fill="url(#paint53_linear)"/>
<path d="M214.404 64.8305C214.404 66.0685 215.407 67.0721 216.645 67.0721C217.883 67.0721 218.887 66.0685 218.887 64.8305C218.887 63.5925 217.883 62.5889 216.645 62.5889C215.407 62.5889 214.404 63.5925 214.404 64.8305Z" fill="url(#paint54_linear)"/>
<path d="M214.404 80.1117C214.404 81.3497 215.407 82.3533 216.645 82.3533C217.883 82.3533 218.887 81.3497 218.887 80.1117C218.887 78.8737 217.883 77.8701 216.645 77.8701C215.407 77.8701 214.404 78.8737 214.404 80.1117Z" fill="url(#paint55_linear)"/>
<path d="M199.12 34.2611C199.12 35.4991 200.124 36.5027 201.362 36.5027C202.6 36.5027 203.604 35.4991 203.604 34.2611C203.604 33.0231 202.6 32.0195 201.362 32.0195C200.124 32.0195 199.12 33.0231 199.12 34.2611Z" fill="url(#paint56_linear)"/>
<path d="M199.12 49.5443C199.12 50.7823 200.124 51.7859 201.362 51.7859C202.6 51.7859 203.604 50.7823 203.604 49.5443C203.604 48.3063 202.6 47.3027 201.362 47.3027C200.124 47.3027 199.12 48.3063 199.12 49.5443Z" fill="url(#paint57_linear)"/>
<path d="M199.12 64.8305C199.12 66.0685 200.124 67.0721 201.362 67.0721C202.6 67.0721 203.604 66.0685 203.604 64.8305C203.604 63.5925 202.6 62.5889 201.362 62.5889C200.124 62.5889 199.12 63.5925 199.12 64.8305Z" fill="url(#paint58_linear)"/>
<path d="M199.12 80.1117C199.12 81.3497 200.124 82.3533 201.362 82.3533C202.6 82.3533 203.604 81.3497 203.604 80.1117C203.604 78.8737 202.6 77.8701 201.362 77.8701C200.124 77.8701 199.12 78.8737 199.12 80.1117Z" fill="url(#paint59_linear)"/>
<path d="M183.835 34.2611C183.835 35.4991 184.839 36.5027 186.077 36.5027C187.315 36.5027 188.318 35.4991 188.318 34.2611C188.318 33.0231 187.315 32.0195 186.077 32.0195C184.839 32.0195 183.835 33.0231 183.835 34.2611Z" fill="url(#paint60_linear)"/>
<path d="M183.835 49.5443C183.835 50.7823 184.839 51.7859 186.077 51.7859C187.315 51.7859 188.318 50.7823 188.318 49.5443C188.318 48.3063 187.315 47.3027 186.077 47.3027C184.839 47.3027 183.835 48.3063 183.835 49.5443Z" fill="url(#paint61_linear)"/>
<path d="M183.835 64.8305C183.835 66.0685 184.839 67.0721 186.077 67.0721C187.315 67.0721 188.318 66.0685 188.318 64.8305C188.318 63.5925 187.315 62.5889 186.077 62.5889C184.839 62.5889 183.835 63.5925 183.835 64.8305Z" fill="url(#paint62_linear)"/>
<path d="M183.835 80.1117C183.835 81.3497 184.839 82.3533 186.077 82.3533C187.315 82.3533 188.318 81.3497 188.318 80.1117C188.318 78.8737 187.315 77.8701 186.077 77.8701C184.839 77.8701 183.835 78.8737 183.835 80.1117Z" fill="url(#paint63_linear)"/>
<path d="M168.552 34.2611C168.552 35.4991 169.556 36.5027 170.794 36.5027C172.032 36.5027 173.035 35.4991 173.035 34.2611C173.035 33.0231 172.032 32.0195 170.794 32.0195C169.556 32.0195 168.552 33.0231 168.552 34.2611Z" fill="url(#paint64_linear)"/>
<path d="M168.552 49.5443C168.552 50.7823 169.556 51.7859 170.794 51.7859C172.032 51.7859 173.035 50.7823 173.035 49.5443C173.035 48.3063 172.032 47.3027 170.794 47.3027C169.556 47.3027 168.552 48.3063 168.552 49.5443Z" fill="url(#paint65_linear)"/>
<path d="M168.552 64.8305C168.552 66.0685 169.556 67.0721 170.794 67.0721C172.032 67.0721 173.035 66.0685 173.035 64.8305C173.035 63.5925 172.032 62.5889 170.794 62.5889C169.556 62.5889 168.552 63.5925 168.552 64.8305Z" fill="url(#paint66_linear)"/>
<path d="M168.552 80.1117C168.552 81.3497 169.556 82.3533 170.794 82.3533C172.032 82.3533 173.035 81.3497 173.035 80.1117C173.035 78.8737 172.032 77.8701 170.794 77.8701C169.556 77.8701 168.552 78.8737 168.552 80.1117Z" fill="url(#paint67_linear)"/>
<path d="M153.265 34.2611C153.265 35.4991 154.268 36.5027 155.506 36.5027C156.744 36.5027 157.748 35.4991 157.748 34.2611C157.748 33.0231 156.744 32.0195 155.506 32.0195C154.268 32.0195 153.265 33.0231 153.265 34.2611Z" fill="url(#paint68_linear)"/>
<path d="M153.265 49.5443C153.265 50.7823 154.268 51.7859 155.506 51.7859C156.744 51.7859 157.748 50.7823 157.748 49.5443C157.748 48.3063 156.744 47.3027 155.506 47.3027C154.268 47.3027 153.265 48.3063 153.265 49.5443Z" fill="url(#paint69_linear)"/>
<path d="M153.265 64.8305C153.265 66.0685 154.268 67.0721 155.506 67.0721C156.744 67.0721 157.748 66.0685 157.748 64.8305C157.748 63.5925 156.744 62.5889 155.506 62.5889C154.268 62.5889 153.265 63.5925 153.265 64.8305Z" fill="url(#paint70_linear)"/>
<path d="M153.265 80.1117C153.265 81.3497 154.268 82.3533 155.506 82.3533C156.744 82.3533 157.748 81.3497 157.748 80.1117C157.748 78.8737 156.744 77.8701 155.506 77.8701C154.268 77.8701 153.265 78.8737 153.265 80.1117Z" fill="url(#paint71_linear)"/>
<path d="M137.986 34.2611C137.986 35.4991 138.989 36.5027 140.227 36.5027C141.465 36.5027 142.469 35.4991 142.469 34.2611C142.469 33.0231 141.465 32.0195 140.227 32.0195C138.989 32.0195 137.986 33.0231 137.986 34.2611Z" fill="url(#paint72_linear)"/>
<path d="M137.986 49.5443C137.986 50.7823 138.989 51.7859 140.227 51.7859C141.465 51.7859 142.469 50.7823 142.469 49.5443C142.469 48.3063 141.465 47.3027 140.227 47.3027C138.989 47.3027 137.986 48.3063 137.986 49.5443Z" fill="url(#paint73_linear)"/>
<path d="M137.986 64.8305C137.986 66.0685 138.989 67.0721 140.227 67.0721C141.465 67.0721 142.469 66.0685 142.469 64.8305C142.469 63.5925 141.465 62.5889 140.227 62.5889C138.989 62.5889 137.986 63.5925 137.986 64.8305Z" fill="url(#paint74_linear)"/>
<path d="M137.986 80.1117C137.986 81.3497 138.989 82.3533 140.227 82.3533C141.465 82.3533 142.469 81.3497 142.469 80.1117C142.469 78.8737 141.465 77.8701 140.227 77.8701C138.989 77.8701 137.986 78.8737 137.986 80.1117Z" fill="url(#paint75_linear)"/>
<path d="M122.702 34.2611C122.702 35.4991 123.706 36.5027 124.944 36.5027C126.182 36.5027 127.186 35.4991 127.186 34.2611C127.186 33.0231 126.182 32.0195 124.944 32.0195C123.706 32.0195 122.702 33.0231 122.702 34.2611Z" fill="url(#paint76_linear)"/>
<path d="M122.702 49.5443C122.702 50.7823 123.706 51.7859 124.944 51.7859C126.182 51.7859 127.186 50.7823 127.186 49.5443C127.186 48.3063 126.182 47.3027 124.944 47.3027C123.706 47.3027 122.702 48.3063 122.702 49.5443Z" fill="url(#paint77_linear)"/>
<path d="M122.702 64.8305C122.702 66.0685 123.706 67.0721 124.944 67.0721C126.182 67.0721 127.186 66.0685 127.186 64.8305C127.186 63.5925 126.182 62.5889 124.944 62.5889C123.706 62.5889 122.702 63.5925 122.702 64.8305Z" fill="url(#paint78_linear)"/>
<path d="M122.702 80.1117C122.702 81.3497 123.706 82.3533 124.944 82.3533C126.182 82.3533 127.186 81.3497 127.186 80.1117C127.186 78.8737 126.182 77.8701 124.944 77.8701C123.706 77.8701 122.702 78.8737 122.702 80.1117Z" fill="url(#paint79_linear)"/>
<path d="M107.421 34.2611C107.421 35.4991 108.425 36.5027 109.663 36.5027C110.901 36.5027 111.904 35.4991 111.904 34.2611C111.904 33.0231 110.901 32.0195 109.663 32.0195C108.425 32.0195 107.421 33.0231 107.421 34.2611Z" fill="url(#paint80_linear)"/>
<path d="M107.421 49.5443C107.421 50.7823 108.425 51.7859 109.663 51.7859C110.901 51.7859 111.904 50.7823 111.904 49.5443C111.904 48.3063 110.901 47.3027 109.663 47.3027C108.425 47.3027 107.421 48.3063 107.421 49.5443Z" fill="url(#paint81_linear)"/>
<path d="M107.421 64.8305C107.421 66.0685 108.425 67.0721 109.663 67.0721C110.901 67.0721 111.904 66.0685 111.904 64.8305C111.904 63.5925 110.901 62.5889 109.663 62.5889C108.425 62.5889 107.421 63.5925 107.421 64.8305Z" fill="url(#paint82_linear)"/>
<path d="M107.421 80.1117C107.421 81.3497 108.425 82.3533 109.663 82.3533C110.901 82.3533 111.904 81.3497 111.904 80.1117C111.904 78.8737 110.901 77.8701 109.663 77.8701C108.425 77.8701 107.421 78.8737 107.421 80.1117Z" fill="url(#paint83_linear)"/>
<path d="M92.134 34.2611C92.134 35.4991 93.1376 36.5027 94.3756 36.5027C95.6136 36.5027 96.6172 35.4991 96.6172 34.2611C96.6172 33.0231 95.6136 32.0195 94.3756 32.0195C93.1376 32.0195 92.134 33.0231 92.134 34.2611Z" fill="url(#paint84_linear)"/>
<path d="M92.134 49.5443C92.134 50.7823 93.1376 51.7859 94.3756 51.7859C95.6136 51.7859 96.6172 50.7823 96.6172 49.5443C96.6172 48.3063 95.6136 47.3027 94.3756 47.3027C93.1376 47.3027 92.134 48.3063 92.134 49.5443Z" fill="url(#paint85_linear)"/>
<path d="M92.134 64.8305C92.134 66.0685 93.1376 67.0721 94.3756 67.0721C95.6136 67.0721 96.6172 66.0685 96.6172 64.8305C96.6172 63.5925 95.6136 62.5889 94.3756 62.5889C93.1376 62.5889 92.134 63.5925 92.134 64.8305Z" fill="url(#paint86_linear)"/>
<path d="M92.134 80.1117C92.134 81.3497 93.1376 82.3533 94.3756 82.3533C95.6136 82.3533 96.6172 81.3497 96.6172 80.1117C96.6172 78.8737 95.6136 77.8701 94.3756 77.8701C93.1376 77.8701 92.134 78.8737 92.134 80.1117Z" fill="url(#paint87_linear)"/>
<path d="M76.8508 34.2611C76.8508 35.4991 77.8544 36.5027 79.0924 36.5027C80.3304 36.5027 81.334 35.4991 81.334 34.2611C81.334 33.0231 80.3304 32.0195 79.0924 32.0195C77.8544 32.0195 76.8508 33.0231 76.8508 34.2611Z" fill="url(#paint88_linear)"/>
<path d="M76.8508 49.5443C76.8508 50.7823 77.8544 51.7859 79.0924 51.7859C80.3304 51.7859 81.334 50.7823 81.334 49.5443C81.334 48.3063 80.3304 47.3027 79.0924 47.3027C77.8544 47.3027 76.8508 48.3063 76.8508 49.5443Z" fill="url(#paint89_linear)"/>
<path d="M76.8508 64.8305C76.8508 66.0685 77.8544 67.0721 79.0924 67.0721C80.3304 67.0721 81.334 66.0685 81.334 64.8305C81.334 63.5925 80.3304 62.5889 79.0924 62.5889C77.8544 62.5889 76.8508 63.5925 76.8508 64.8305Z" fill="url(#paint90_linear)"/>
<path d="M76.8508 80.1117C76.8508 81.3497 77.8544 82.3533 79.0924 82.3533C80.3304 82.3533 81.334 81.3497 81.334 80.1117C81.334 78.8737 80.3304 77.8701 79.0924 77.8701C77.8544 77.8701 76.8508 78.8737 76.8508 80.1117Z" fill="url(#paint91_linear)"/>
<path d="M61.5676 34.2611C61.5676 35.4991 62.5712 36.5027 63.8092 36.5027C65.0472 36.5027 66.0508 35.4991 66.0508 34.2611C66.0508 33.0231 65.0472 32.0195 63.8092 32.0195C62.5712 32.0195 61.5676 33.0231 61.5676 34.2611Z" fill="url(#paint92_linear)"/>
<path d="M61.5676 49.5443C61.5676 50.7823 62.5712 51.7859 63.8092 51.7859C65.0472 51.7859 66.0508 50.7823 66.0508 49.5443C66.0508 48.3063 65.0472 47.3027 63.8092 47.3027C62.5712 47.3027 61.5676 48.3063 61.5676 49.5443Z" fill="url(#paint93_linear)"/>
<path d="M61.5676 64.8305C61.5676 66.0685 62.5712 67.0721 63.8092 67.0721C65.0472 67.0721 66.0508 66.0685 66.0508 64.8305C66.0508 63.5925 65.0472 62.5889 63.8092 62.5889C62.5712 62.5889 61.5676 63.5925 61.5676 64.8305Z" fill="url(#paint94_linear)"/>
<path d="M61.5676 80.1117C61.5676 81.3497 62.5712 82.3533 63.8092 82.3533C65.0472 82.3533 66.0508 81.3497 66.0508 80.1117C66.0508 78.8737 65.0472 77.8701 63.8092 77.8701C62.5712 77.8701 61.5676 78.8737 61.5676 80.1117Z" fill="url(#paint95_linear)"/>
<path d="M46.2864 34.2611C46.2864 35.4991 47.2899 36.5027 48.5279 36.5027C49.7659 36.5027 50.7695 35.4991 50.7695 34.2611C50.7695 33.0231 49.7659 32.0195 48.5279 32.0195C47.2899 32.0195 46.2864 33.0231 46.2864 34.2611Z" fill="url(#paint96_linear)"/>
<path d="M46.2864 49.5443C46.2864 50.7823 47.2899 51.7859 48.5279 51.7859C49.7659 51.7859 50.7695 50.7823 50.7695 49.5443C50.7695 48.3063 49.7659 47.3027 48.5279 47.3027C47.2899 47.3027 46.2864 48.3063 46.2864 49.5443Z" fill="url(#paint97_linear)"/>
<path d="M46.2864 64.8305C46.2864 66.0685 47.2899 67.0721 48.5279 67.0721C49.7659 67.0721 50.7695 66.0685 50.7695 64.8305C50.7695 63.5925 49.7659 62.5889 48.5279 62.5889C47.2899 62.5889 46.2864 63.5925 46.2864 64.8305Z" fill="url(#paint98_linear)"/>
<path d="M46.2864 80.1117C46.2864 81.3497 47.2899 82.3533 48.5279 82.3533C49.7659 82.3533 50.7695 81.3497 50.7695 80.1117C50.7695 78.8737 49.7659 77.8701 48.5279 77.8701C47.2899 77.8701 46.2864 78.8737 46.2864 80.1117Z" fill="url(#paint99_linear)"/>
<path d="M30.9992 34.2611C30.9992 35.4991 32.0028 36.5027 33.2408 36.5027C34.4788 36.5027 35.4824 35.4991 35.4824 34.2611C35.4824 33.0231 34.4788 32.0195 33.2408 32.0195C32.0028 32.0195 30.9992 33.0231 30.9992 34.2611Z" fill="url(#paint100_linear)"/>
<path d="M30.9992 49.5443C30.9992 50.7823 32.0028 51.7859 33.2408 51.7859C34.4788 51.7859 35.4824 50.7823 35.4824 49.5443C35.4824 48.3063 34.4788 47.3027 33.2408 47.3027C32.0028 47.3027 30.9992 48.3063 30.9992 49.5443Z" fill="url(#paint101_linear)"/>
<path d="M30.9992 64.8305C30.9992 66.0685 32.0028 67.0721 33.2408 67.0721C34.4788 67.0721 35.4824 66.0685 35.4824 64.8305C35.4824 63.5925 34.4788 62.5889 33.2408 62.5889C32.0028 62.5889 30.9992 63.5925 30.9992 64.8305Z" fill="url(#paint102_linear)"/>
<path d="M30.9992 80.1117C30.9992 81.3497 32.0028 82.3533 33.2408 82.3533C34.4788 82.3533 35.4824 81.3497 35.4824 80.1117C35.4824 78.8737 34.4788 77.8701 33.2408 77.8701C32.0028 77.8701 30.9992 78.8737 30.9992 80.1117Z" fill="url(#paint103_linear)"/>
</g>
<defs>
<filter id="filter0_d" x="0.849033" y="24.8785" width="418.313" height="82.0717" filterUnits="userSpaceOnUse" color-interpolation-filters="sRGB">
<feFlood flood-opacity="0" result="BackgroundImageFix"/>
<feColorMatrix in="SourceAlpha" type="matrix" values="0 0 0 0 0 0 0 0 0 0 0 0 0 0 0 0 0 0 127 0"/>
<feOffset dx="-14.282" dy="8.72791"/>
<feGaussianBlur stdDeviation="7.93446"/>
<feColorMatrix type="matrix" values="0 0 0 0 0.308133 0 0 0 0 0.00666666 0 0 0 0 0.8 0 0 0 0.25 0"/>
<feBlend mode="normal" in2="BackgroundImageFix" result="effect1_dropShadow"/>
<feBlend mode="normal" in="SourceGraphic" in2="effect1_dropShadow" result="shape"/>
</filter>
<linearGradient id="paint0_linear" x1="415.929" y1="36.0547" x2="414.77" y2="32.1903" gradientUnits="userSpaceOnUse">
<stop stop-color="#FFD59C"/>
<stop offset="0.2045" stop-color="#FC453A"/>
<stop offset="0.890625" stop-color="#862FA0"/>
<stop offset="1" stop-color="#351683"/>
</linearGradient>
<linearGradient id="paint1_linear" x1="415.929" y1="51.3359" x2="414.77" y2="47.4716" gradientUnits="userSpaceOnUse">
<stop stop-color="#FFD59C"/>
<stop offset="0.2045" stop-color="#FC453A"/>
<stop offset="0.890625" stop-color="#862FA0"/>
<stop offset="1" stop-color="#351683"/>
</linearGradient>
<linearGradient id="paint2_linear" x1="415.929" y1="66.622" x2="414.77" y2="62.7577" gradientUnits="userSpaceOnUse">
<stop stop-color="#FFD59C"/>
<stop offset="0.2045" stop-color="#FC453A"/>
<stop offset="0.890625" stop-color="#862FA0"/>
<stop offset="1" stop-color="#351683"/>
</linearGradient>
<linearGradient id="paint3_linear" x1="415.929" y1="81.9033" x2="414.77" y2="78.039" gradientUnits="userSpaceOnUse">
<stop stop-color="#FFD59C"/>
<stop offset="0.2045" stop-color="#FC453A"/>
<stop offset="0.890625" stop-color="#862FA0"/>
<stop offset="1" stop-color="#351683"/>
</linearGradient>
<linearGradient id="paint4_linear" x1="400.644" y1="36.0527" x2="399.485" y2="32.1884" gradientUnits="userSpaceOnUse">
<stop stop-color="#FFD59C"/>
<stop offset="0.2045" stop-color="#FC453A"/>
<stop offset="0.890625" stop-color="#862FA0"/>
<stop offset="1" stop-color="#351683"/>
</linearGradient>
<linearGradient id="paint5_linear" x1="400.644" y1="51.3359" x2="399.485" y2="47.4716" gradientUnits="userSpaceOnUse">
<stop stop-color="#FFD59C"/>
<stop offset="0.2045" stop-color="#FC453A"/>
<stop offset="0.890625" stop-color="#862FA0"/>
<stop offset="1" stop-color="#351683"/>
</linearGradient>
<linearGradient id="paint6_linear" x1="400.644" y1="66.622" x2="399.485" y2="62.7577" gradientUnits="userSpaceOnUse">
<stop stop-color="#FFD59C"/>
<stop offset="0.2045" stop-color="#FC453A"/>
<stop offset="0.890625" stop-color="#862FA0"/>
<stop offset="1" stop-color="#351683"/>
</linearGradient>
<linearGradient id="paint7_linear" x1="400.644" y1="81.9033" x2="399.485" y2="78.039" gradientUnits="userSpaceOnUse">
<stop stop-color="#FFD59C"/>
<stop offset="0.2045" stop-color="#FC453A"/>
<stop offset="0.890625" stop-color="#862FA0"/>
<stop offset="1" stop-color="#351683"/>
</linearGradient>
<linearGradient id="paint8_linear" x1="385.361" y1="36.0527" x2="384.202" y2="32.1884" gradientUnits="userSpaceOnUse">
<stop stop-color="#FFD59C"/>
<stop offset="0.2045" stop-color="#FC453A"/>
<stop offset="0.890625" stop-color="#862FA0"/>
<stop offset="1" stop-color="#351683"/>
</linearGradient>
<linearGradient id="paint9_linear" x1="385.361" y1="51.3359" x2="384.202" y2="47.4716" gradientUnits="userSpaceOnUse">
<stop stop-color="#FFD59C"/>
<stop offset="0.2045" stop-color="#FC453A"/>
<stop offset="0.890625" stop-color="#862FA0"/>
<stop offset="1" stop-color="#351683"/>
</linearGradient>
<linearGradient id="paint10_linear" x1="385.361" y1="66.622" x2="384.202" y2="62.7577" gradientUnits="userSpaceOnUse">
<stop stop-color="#FFD59C"/>
<stop offset="0.2045" stop-color="#FC453A"/>
<stop offset="0.890625" stop-color="#862FA0"/>
<stop offset="1" stop-color="#351683"/>
</linearGradient>
<linearGradient id="paint11_linear" x1="385.361" y1="81.9033" x2="384.202" y2="78.039" gradientUnits="userSpaceOnUse">
<stop stop-color="#FFD59C"/>
<stop offset="0.2045" stop-color="#FC453A"/>
<stop offset="0.890625" stop-color="#862FA0"/>
<stop offset="1" stop-color="#351683"/>
</linearGradient>
<linearGradient id="paint12_linear" x1="370.077" y1="36.0527" x2="368.919" y2="32.1884" gradientUnits="userSpaceOnUse">
<stop stop-color="#FFD59C"/>
<stop offset="0.2045" stop-color="#FC453A"/>
<stop offset="0.890625" stop-color="#862FA0"/>
<stop offset="1" stop-color="#351683"/>
</linearGradient>
<linearGradient id="paint13_linear" x1="370.077" y1="51.3359" x2="368.919" y2="47.4716" gradientUnits="userSpaceOnUse">
<stop stop-color="#FFD59C"/>
<stop offset="0.2045" stop-color="#FC453A"/>
<stop offset="0.890625" stop-color="#862FA0"/>
<stop offset="1" stop-color="#351683"/>
</linearGradient>
<linearGradient id="paint14_linear" x1="370.077" y1="66.622" x2="368.919" y2="62.7577" gradientUnits="userSpaceOnUse">
<stop stop-color="#FFD59C"/>
<stop offset="0.2045" stop-color="#FC453A"/>
<stop offset="0.890625" stop-color="#862FA0"/>
<stop offset="1" stop-color="#351683"/>
</linearGradient>
<linearGradient id="paint15_linear" x1="370.077" y1="81.9033" x2="368.919" y2="78.039" gradientUnits="userSpaceOnUse">
<stop stop-color="#FFD59C"/>
<stop offset="0.2045" stop-color="#FC453A"/>
<stop offset="0.890625" stop-color="#862FA0"/>
<stop offset="1" stop-color="#351683"/>
</linearGradient>
<linearGradient id="paint16_linear" x1="354.794" y1="36.0527" x2="353.636" y2="32.1884" gradientUnits="userSpaceOnUse">
<stop stop-color="#FFD59C"/>
<stop offset="0.2045" stop-color="#FC453A"/>
<stop offset="0.890625" stop-color="#862FA0"/>
<stop offset="1" stop-color="#351683"/>
</linearGradient>
<linearGradient id="paint17_linear" x1="354.794" y1="51.3359" x2="353.636" y2="47.4716" gradientUnits="userSpaceOnUse">
<stop stop-color="#FFD59C"/>
<stop offset="0.2045" stop-color="#FC453A"/>
<stop offset="0.890625" stop-color="#862FA0"/>
<stop offset="1" stop-color="#351683"/>
</linearGradient>
<linearGradient id="paint18_linear" x1="354.794" y1="66.622" x2="353.636" y2="62.7577" gradientUnits="userSpaceOnUse">
<stop stop-color="#FFD59C"/>
<stop offset="0.2045" stop-color="#FC453A"/>
<stop offset="0.890625" stop-color="#862FA0"/>
<stop offset="1" stop-color="#351683"/>
</linearGradient>
<linearGradient id="paint19_linear" x1="354.794" y1="81.9033" x2="353.636" y2="78.039" gradientUnits="userSpaceOnUse">
<stop stop-color="#FFD59C"/>
<stop offset="0.2045" stop-color="#FC453A"/>
<stop offset="0.890625" stop-color="#862FA0"/>
<stop offset="1" stop-color="#351683"/>
</linearGradient>
<linearGradient id="paint20_linear" x1="339.511" y1="36.0527" x2="338.352" y2="32.1884" gradientUnits="userSpaceOnUse">
<stop stop-color="#FFD59C"/>
<stop offset="0.2045" stop-color="#FC453A"/>
<stop offset="0.890625" stop-color="#862FA0"/>
<stop offset="1" stop-color="#351683"/>
</linearGradient>
<linearGradient id="paint21_linear" x1="339.511" y1="51.3359" x2="338.352" y2="47.4716" gradientUnits="userSpaceOnUse">
<stop stop-color="#FFD59C"/>
<stop offset="0.2045" stop-color="#FC453A"/>
<stop offset="0.890625" stop-color="#862FA0"/>
<stop offset="1" stop-color="#351683"/>
</linearGradient>
<linearGradient id="paint22_linear" x1="339.511" y1="66.622" x2="338.352" y2="62.7577" gradientUnits="userSpaceOnUse">
<stop stop-color="#FFD59C"/>
<stop offset="0.2045" stop-color="#FC453A"/>
<stop offset="0.890625" stop-color="#862FA0"/>
<stop offset="1" stop-color="#351683"/>
</linearGradient>
<linearGradient id="paint23_linear" x1="339.511" y1="81.9033" x2="338.352" y2="78.039" gradientUnits="userSpaceOnUse">
<stop stop-color="#FFD59C"/>
<stop offset="0.2045" stop-color="#FC453A"/>
<stop offset="0.890625" stop-color="#862FA0"/>
<stop offset="1" stop-color="#351683"/>
</linearGradient>
<linearGradient id="paint24_linear" x1="324.226" y1="36.0527" x2="323.067" y2="32.1884" gradientUnits="userSpaceOnUse">
<stop stop-color="#FFD59C"/>
<stop offset="0.2045" stop-color="#FC453A"/>
<stop offset="0.890625" stop-color="#862FA0"/>
<stop offset="1" stop-color="#351683"/>
</linearGradient>
<linearGradient id="paint25_linear" x1="324.226" y1="51.3359" x2="323.067" y2="47.4716" gradientUnits="userSpaceOnUse">
<stop stop-color="#FFD59C"/>
<stop offset="0.2045" stop-color="#FC453A"/>
<stop offset="0.890625" stop-color="#862FA0"/>
<stop offset="1" stop-color="#351683"/>
</linearGradient>
<linearGradient id="paint26_linear" x1="324.226" y1="66.622" x2="323.067" y2="62.7577" gradientUnits="userSpaceOnUse">
<stop stop-color="#FFD59C"/>
<stop offset="0.2045" stop-color="#FC453A"/>
<stop offset="0.890625" stop-color="#862FA0"/>
<stop offset="1" stop-color="#351683"/>
</linearGradient>
<linearGradient id="paint27_linear" x1="324.226" y1="81.9033" x2="323.067" y2="78.039" gradientUnits="userSpaceOnUse">
<stop stop-color="#FFD59C"/>
<stop offset="0.2045" stop-color="#FC453A"/>
<stop offset="0.890625" stop-color="#862FA0"/>
<stop offset="1" stop-color="#351683"/>
</linearGradient>
<linearGradient id="paint28_linear" x1="308.943" y1="36.0527" x2="307.784" y2="32.1884" gradientUnits="userSpaceOnUse">
<stop stop-color="#FFD59C"/>
<stop offset="0.2045" stop-color="#FC453A"/>
<stop offset="0.890625" stop-color="#862FA0"/>
<stop offset="1" stop-color="#351683"/>
</linearGradient>
<linearGradient id="paint29_linear" x1="308.943" y1="51.3359" x2="307.784" y2="47.4716" gradientUnits="userSpaceOnUse">
<stop stop-color="#FFD59C"/>
<stop offset="0.2045" stop-color="#FC453A"/>
<stop offset="0.890625" stop-color="#862FA0"/>
<stop offset="1" stop-color="#351683"/>
</linearGradient>
<linearGradient id="paint30_linear" x1="308.943" y1="66.622" x2="307.784" y2="62.7577" gradientUnits="userSpaceOnUse">
<stop stop-color="#FFD59C"/>
<stop offset="0.2045" stop-color="#FC453A"/>
<stop offset="0.890625" stop-color="#862FA0"/>
<stop offset="1" stop-color="#351683"/>
</linearGradient>
<linearGradient id="paint31_linear" x1="308.943" y1="81.9033" x2="307.784" y2="78.039" gradientUnits="userSpaceOnUse">
<stop stop-color="#FFD59C"/>
<stop offset="0.2045" stop-color="#FC453A"/>
<stop offset="0.890625" stop-color="#862FA0"/>
<stop offset="1" stop-color="#351683"/>
</linearGradient>
<linearGradient id="paint32_linear" x1="293.659" y1="36.0527" x2="292.501" y2="32.1884" gradientUnits="userSpaceOnUse">
<stop stop-color="#FFD59C"/>
<stop offset="0.2045" stop-color="#FC453A"/>
<stop offset="0.890625" stop-color="#862FA0"/>
<stop offset="1" stop-color="#351683"/>
</linearGradient>
<linearGradient id="paint33_linear" x1="293.659" y1="51.3359" x2="292.501" y2="47.4716" gradientUnits="userSpaceOnUse">
<stop stop-color="#FFD59C"/>
<stop offset="0.2045" stop-color="#FC453A"/>
<stop offset="0.890625" stop-color="#862FA0"/>
<stop offset="1" stop-color="#351683"/>
</linearGradient>
<linearGradient id="paint34_linear" x1="293.659" y1="66.622" x2="292.501" y2="62.7577" gradientUnits="userSpaceOnUse">
<stop stop-color="#FFD59C"/>
<stop offset="0.2045" stop-color="#FC453A"/>
<stop offset="0.890625" stop-color="#862FA0"/>
<stop offset="1" stop-color="#351683"/>
</linearGradient>
<linearGradient id="paint35_linear" x1="293.659" y1="81.9033" x2="292.501" y2="78.039" gradientUnits="userSpaceOnUse">
<stop stop-color="#FFD59C"/>
<stop offset="0.2045" stop-color="#FC453A"/>
<stop offset="0.890625" stop-color="#862FA0"/>
<stop offset="1" stop-color="#351683"/>
</linearGradient>
<linearGradient id="paint36_linear" x1="278.376" y1="36.0527" x2="277.218" y2="32.1884" gradientUnits="userSpaceOnUse">
<stop stop-color="#FFD59C"/>
<stop offset="0.2045" stop-color="#FC453A"/>
<stop offset="0.890625" stop-color="#862FA0"/>
<stop offset="1" stop-color="#351683"/>
</linearGradient>
<linearGradient id="paint37_linear" x1="278.376" y1="51.3359" x2="277.218" y2="47.4716" gradientUnits="userSpaceOnUse">
<stop stop-color="#FFD59C"/>
<stop offset="0.2045" stop-color="#FC453A"/>
<stop offset="0.890625" stop-color="#862FA0"/>
<stop offset="1" stop-color="#351683"/>
</linearGradient>
<linearGradient id="paint38_linear" x1="278.376" y1="66.622" x2="277.218" y2="62.7577" gradientUnits="userSpaceOnUse">
<stop stop-color="#FFD59C"/>
<stop offset="0.2045" stop-color="#FC453A"/>
<stop offset="0.890625" stop-color="#862FA0"/>
<stop offset="1" stop-color="#351683"/>
</linearGradient>
<linearGradient id="paint39_linear" x1="278.376" y1="81.9033" x2="277.218" y2="78.039" gradientUnits="userSpaceOnUse">
<stop stop-color="#FFD59C"/>
<stop offset="0.2045" stop-color="#FC453A"/>
<stop offset="0.890625" stop-color="#862FA0"/>
<stop offset="1" stop-color="#351683"/>
</linearGradient>
<linearGradient id="paint40_linear" x1="263.093" y1="36.0527" x2="261.934" y2="32.1884" gradientUnits="userSpaceOnUse">
<stop stop-color="#FFD59C"/>
<stop offset="0.2045" stop-color="#FC453A"/>
<stop offset="0.890625" stop-color="#862FA0"/>
<stop offset="1" stop-color="#351683"/>
</linearGradient>
<linearGradient id="paint41_linear" x1="263.093" y1="51.3359" x2="261.934" y2="47.4716" gradientUnits="userSpaceOnUse">
<stop stop-color="#FFD59C"/>
<stop offset="0.2045" stop-color="#FC453A"/>
<stop offset="0.890625" stop-color="#862FA0"/>
<stop offset="1" stop-color="#351683"/>
</linearGradient>
<linearGradient id="paint42_linear" x1="263.093" y1="66.622" x2="261.934" y2="62.7577" gradientUnits="userSpaceOnUse">
<stop stop-color="#FFD59C"/>
<stop offset="0.2045" stop-color="#FC453A"/>
<stop offset="0.890625" stop-color="#862FA0"/>
<stop offset="1" stop-color="#351683"/>
</linearGradient>
<linearGradient id="paint43_linear" x1="263.093" y1="81.9033" x2="261.934" y2="78.039" gradientUnits="userSpaceOnUse">
<stop stop-color="#FFD59C"/>
<stop offset="0.2045" stop-color="#FC453A"/>
<stop offset="0.890625" stop-color="#862FA0"/>
<stop offset="1" stop-color="#351683"/>
</linearGradient>
<linearGradient id="paint44_linear" x1="247.808" y1="36.0527" x2="246.649" y2="32.1884" gradientUnits="userSpaceOnUse">
<stop stop-color="#FFD59C"/>
<stop offset="0.2045" stop-color="#FC453A"/>
<stop offset="0.890625" stop-color="#862FA0"/>
<stop offset="1" stop-color="#351683"/>
</linearGradient>
<linearGradient id="paint45_linear" x1="247.808" y1="51.3359" x2="246.649" y2="47.4716" gradientUnits="userSpaceOnUse">
<stop stop-color="#FFD59C"/>
<stop offset="0.2045" stop-color="#FC453A"/>
<stop offset="0.890625" stop-color="#862FA0"/>
<stop offset="1" stop-color="#351683"/>
</linearGradient>
<linearGradient id="paint46_linear" x1="247.808" y1="66.622" x2="246.649" y2="62.7577" gradientUnits="userSpaceOnUse">
<stop stop-color="#FFD59C"/>
<stop offset="0.2045" stop-color="#FC453A"/>
<stop offset="0.890625" stop-color="#862FA0"/>
<stop offset="1" stop-color="#351683"/>
</linearGradient>
<linearGradient id="paint47_linear" x1="247.808" y1="81.9033" x2="246.649" y2="78.039" gradientUnits="userSpaceOnUse">
<stop stop-color="#FFD59C"/>
<stop offset="0.2045" stop-color="#FC453A"/>
<stop offset="0.890625" stop-color="#862FA0"/>
<stop offset="1" stop-color="#351683"/>
</linearGradient>
<linearGradient id="paint48_linear" x1="232.525" y1="36.0527" x2="231.366" y2="32.1884" gradientUnits="userSpaceOnUse">
<stop stop-color="#FFD59C"/>
<stop offset="0.2045" stop-color="#FC453A"/>
<stop offset="0.890625" stop-color="#862FA0"/>
<stop offset="1" stop-color="#351683"/>
</linearGradient>
<linearGradient id="paint49_linear" x1="232.525" y1="51.3359" x2="231.366" y2="47.4716" gradientUnits="userSpaceOnUse">
<stop stop-color="#FFD59C"/>
<stop offset="0.2045" stop-color="#FC453A"/>
<stop offset="0.890625" stop-color="#862FA0"/>
<stop offset="1" stop-color="#351683"/>
</linearGradient>
<linearGradient id="paint50_linear" x1="232.525" y1="66.622" x2="231.366" y2="62.7577" gradientUnits="userSpaceOnUse">
<stop stop-color="#FFD59C"/>
<stop offset="0.2045" stop-color="#FC453A"/>
<stop offset="0.890625" stop-color="#862FA0"/>
<stop offset="1" stop-color="#351683"/>
</linearGradient>
<linearGradient id="paint51_linear" x1="232.525" y1="81.9033" x2="231.366" y2="78.039" gradientUnits="userSpaceOnUse">
<stop stop-color="#FFD59C"/>
<stop offset="0.2045" stop-color="#FC453A"/>
<stop offset="0.890625" stop-color="#862FA0"/>
<stop offset="1" stop-color="#351683"/>
</linearGradient>
<linearGradient id="paint52_linear" x1="217.242" y1="36.0527" x2="216.083" y2="32.1884" gradientUnits="userSpaceOnUse">
<stop stop-color="#FFD59C"/>
<stop offset="0.2045" stop-color="#FC453A"/>
<stop offset="0.890625" stop-color="#862FA0"/>
<stop offset="1" stop-color="#351683"/>
</linearGradient>
<linearGradient id="paint53_linear" x1="217.242" y1="51.3359" x2="216.083" y2="47.4716" gradientUnits="userSpaceOnUse">
<stop stop-color="#FFD59C"/>
<stop offset="0.2045" stop-color="#FC453A"/>
<stop offset="0.890625" stop-color="#862FA0"/>
<stop offset="1" stop-color="#351683"/>
</linearGradient>
<linearGradient id="paint54_linear" x1="217.242" y1="66.622" x2="216.083" y2="62.7577" gradientUnits="userSpaceOnUse">
<stop stop-color="#FFD59C"/>
<stop offset="0.2045" stop-color="#FC453A"/>
<stop offset="0.890625" stop-color="#862FA0"/>
<stop offset="1" stop-color="#351683"/>
</linearGradient>
<linearGradient id="paint55_linear" x1="217.242" y1="81.9033" x2="216.083" y2="78.039" gradientUnits="userSpaceOnUse">
<stop stop-color="#FFD59C"/>
<stop offset="0.2045" stop-color="#FC453A"/>
<stop offset="0.890625" stop-color="#862FA0"/>
<stop offset="1" stop-color="#351683"/>
</linearGradient>
<linearGradient id="paint56_linear" x1="201.958" y1="36.0527" x2="200.8" y2="32.1884" gradientUnits="userSpaceOnUse">
<stop stop-color="#FFD59C"/>
<stop offset="0.2045" stop-color="#FC453A"/>
<stop offset="0.890625" stop-color="#862FA0"/>
<stop offset="1" stop-color="#351683"/>
</linearGradient>
<linearGradient id="paint57_linear" x1="201.958" y1="51.3359" x2="200.8" y2="47.4716" gradientUnits="userSpaceOnUse">
<stop stop-color="#FFD59C"/>
<stop offset="0.2045" stop-color="#FC453A"/>
<stop offset="0.890625" stop-color="#862FA0"/>
<stop offset="1" stop-color="#351683"/>
</linearGradient>
<linearGradient id="paint58_linear" x1="201.958" y1="66.622" x2="200.8" y2="62.7577" gradientUnits="userSpaceOnUse">
<stop stop-color="#FFD59C"/>
<stop offset="0.2045" stop-color="#FC453A"/>
<stop offset="0.890625" stop-color="#862FA0"/>
<stop offset="1" stop-color="#351683"/>
</linearGradient>
<linearGradient id="paint59_linear" x1="201.958" y1="81.9033" x2="200.8" y2="78.039" gradientUnits="userSpaceOnUse">
<stop stop-color="#FFD59C"/>
<stop offset="0.2045" stop-color="#FC453A"/>
<stop offset="0.890625" stop-color="#862FA0"/>
<stop offset="1" stop-color="#351683"/>
</linearGradient>
<linearGradient id="paint60_linear" x1="186.673" y1="36.0527" x2="185.515" y2="32.1884" gradientUnits="userSpaceOnUse">
<stop stop-color="#FFD59C"/>
<stop offset="0.2045" stop-color="#FC453A"/>
<stop offset="0.890625" stop-color="#862FA0"/>
<stop offset="1" stop-color="#351683"/>
</linearGradient>
<linearGradient id="paint61_linear" x1="186.673" y1="51.3359" x2="185.515" y2="47.4716" gradientUnits="userSpaceOnUse">
<stop stop-color="#FFD59C"/>
<stop offset="0.2045" stop-color="#FC453A"/>
<stop offset="0.890625" stop-color="#862FA0"/>
<stop offset="1" stop-color="#351683"/>
</linearGradient>
<linearGradient id="paint62_linear" x1="186.673" y1="66.622" x2="185.515" y2="62.7577" gradientUnits="userSpaceOnUse">
<stop stop-color="#FFD59C"/>
<stop offset="0.2045" stop-color="#FC453A"/>
<stop offset="0.890625" stop-color="#862FA0"/>
<stop offset="1" stop-color="#351683"/>
</linearGradient>
<linearGradient id="paint63_linear" x1="186.673" y1="81.9033" x2="185.515" y2="78.039" gradientUnits="userSpaceOnUse">
<stop stop-color="#FFD59C"/>
<stop offset="0.2045" stop-color="#FC453A"/>
<stop offset="0.890625" stop-color="#862FA0"/>
<stop offset="1" stop-color="#351683"/>
</linearGradient>
<linearGradient id="paint64_linear" x1="171.39" y1="36.0527" x2="170.231" y2="32.1884" gradientUnits="userSpaceOnUse">
<stop stop-color="#FFD59C"/>
<stop offset="0.2045" stop-color="#FC453A"/>
<stop offset="0.890625" stop-color="#862FA0"/>
<stop offset="1" stop-color="#351683"/>
</linearGradient>
<linearGradient id="paint65_linear" x1="171.39" y1="51.3359" x2="170.231" y2="47.4716" gradientUnits="userSpaceOnUse">
<stop stop-color="#FFD59C"/>
<stop offset="0.2045" stop-color="#FC453A"/>
<stop offset="0.890625" stop-color="#862FA0"/>
<stop offset="1" stop-color="#351683"/>
</linearGradient>
<linearGradient id="paint66_linear" x1="171.39" y1="66.622" x2="170.231" y2="62.7577" gradientUnits="userSpaceOnUse">
<stop stop-color="#FFD59C"/>
<stop offset="0.2045" stop-color="#FC453A"/>
<stop offset="0.890625" stop-color="#862FA0"/>
<stop offset="1" stop-color="#351683"/>
</linearGradient>
<linearGradient id="paint67_linear" x1="171.39" y1="81.9033" x2="170.231" y2="78.039" gradientUnits="userSpaceOnUse">
<stop stop-color="#FFD59C"/>
<stop offset="0.2045" stop-color="#FC453A"/>
<stop offset="0.890625" stop-color="#862FA0"/>
<stop offset="1" stop-color="#351683"/>
</linearGradient>
<linearGradient id="paint68_linear" x1="156.103" y1="36.0527" x2="154.944" y2="32.1884" gradientUnits="userSpaceOnUse">
<stop stop-color="#FFD59C"/>
<stop offset="0.2045" stop-color="#FC453A"/>
<stop offset="0.890625" stop-color="#862FA0"/>
<stop offset="1" stop-color="#351683"/>
</linearGradient>
<linearGradient id="paint69_linear" x1="156.103" y1="51.3359" x2="154.944" y2="47.4716" gradientUnits="userSpaceOnUse">
<stop stop-color="#FFD59C"/>
<stop offset="0.2045" stop-color="#FC453A"/>
<stop offset="0.890625" stop-color="#862FA0"/>
<stop offset="1" stop-color="#351683"/>
</linearGradient>
<linearGradient id="paint70_linear" x1="156.103" y1="66.622" x2="154.944" y2="62.7577" gradientUnits="userSpaceOnUse">
<stop stop-color="#FFD59C"/>
<stop offset="0.2045" stop-color="#FC453A"/>
<stop offset="0.890625" stop-color="#862FA0"/>
<stop offset="1" stop-color="#351683"/>
</linearGradient>
<linearGradient id="paint71_linear" x1="156.103" y1="81.9033" x2="154.944" y2="78.039" gradientUnits="userSpaceOnUse">
<stop stop-color="#FFD59C"/>
<stop offset="0.2045" stop-color="#FC453A"/>
<stop offset="0.890625" stop-color="#862FA0"/>
<stop offset="1" stop-color="#351683"/>
</linearGradient>
<linearGradient id="paint72_linear" x1="140.824" y1="36.0527" x2="139.665" y2="32.1884" gradientUnits="userSpaceOnUse">
<stop stop-color="#FFD59C"/>
<stop offset="0.2045" stop-color="#FC453A"/>
<stop offset="0.890625" stop-color="#862FA0"/>
<stop offset="1" stop-color="#351683"/>
</linearGradient>
<linearGradient id="paint73_linear" x1="140.824" y1="51.3359" x2="139.665" y2="47.4716" gradientUnits="userSpaceOnUse">
<stop stop-color="#FFD59C"/>
<stop offset="0.2045" stop-color="#FC453A"/>
<stop offset="0.890625" stop-color="#862FA0"/>
<stop offset="1" stop-color="#351683"/>
</linearGradient>
<linearGradient id="paint74_linear" x1="140.824" y1="66.622" x2="139.665" y2="62.7577" gradientUnits="userSpaceOnUse">
<stop stop-color="#FFD59C"/>
<stop offset="0.2045" stop-color="#FC453A"/>
<stop offset="0.890625" stop-color="#862FA0"/>
<stop offset="1" stop-color="#351683"/>
</linearGradient>
<linearGradient id="paint75_linear" x1="140.824" y1="81.9033" x2="139.665" y2="78.039" gradientUnits="userSpaceOnUse">
<stop stop-color="#FFD59C"/>
<stop offset="0.2045" stop-color="#FC453A"/>
<stop offset="0.890625" stop-color="#862FA0"/>
<stop offset="1" stop-color="#351683"/>
</linearGradient>
<linearGradient id="paint76_linear" x1="125.54" y1="36.0527" x2="124.382" y2="32.1884" gradientUnits="userSpaceOnUse">
<stop stop-color="#FFD59C"/>
<stop offset="0.2045" stop-color="#FC453A"/>
<stop offset="0.890625" stop-color="#862FA0"/>
<stop offset="1" stop-color="#351683"/>
</linearGradient>
<linearGradient id="paint77_linear" x1="125.54" y1="51.3359" x2="124.382" y2="47.4716" gradientUnits="userSpaceOnUse">
<stop stop-color="#FFD59C"/>
<stop offset="0.2045" stop-color="#FC453A"/>
<stop offset="0.890625" stop-color="#862FA0"/>
<stop offset="1" stop-color="#351683"/>
</linearGradient>
<linearGradient id="paint78_linear" x1="125.54" y1="66.622" x2="124.382" y2="62.7577" gradientUnits="userSpaceOnUse">
<stop stop-color="#FFD59C"/>
<stop offset="0.2045" stop-color="#FC453A"/>
<stop offset="0.890625" stop-color="#862FA0"/>
<stop offset="1" stop-color="#351683"/>
</linearGradient>
<linearGradient id="paint79_linear" x1="125.54" y1="81.9033" x2="124.382" y2="78.039" gradientUnits="userSpaceOnUse">
<stop stop-color="#FFD59C"/>
<stop offset="0.2045" stop-color="#FC453A"/>
<stop offset="0.890625" stop-color="#862FA0"/>
<stop offset="1" stop-color="#351683"/>
</linearGradient>
<linearGradient id="paint80_linear" x1="110.259" y1="36.0527" x2="109.101" y2="32.1884" gradientUnits="userSpaceOnUse">
<stop stop-color="#FFD59C"/>
<stop offset="0.2045" stop-color="#FC453A"/>
<stop offset="0.890625" stop-color="#862FA0"/>
<stop offset="1" stop-color="#351683"/>
</linearGradient>
<linearGradient id="paint81_linear" x1="110.259" y1="51.3359" x2="109.101" y2="47.4716" gradientUnits="userSpaceOnUse">
<stop stop-color="#FFD59C"/>
<stop offset="0.2045" stop-color="#FC453A"/>
<stop offset="0.890625" stop-color="#862FA0"/>
<stop offset="1" stop-color="#351683"/>
</linearGradient>
<linearGradient id="paint82_linear" x1="110.259" y1="66.622" x2="109.101" y2="62.7577" gradientUnits="userSpaceOnUse">
<stop stop-color="#FFD59C"/>
<stop offset="0.2045" stop-color="#FC453A"/>
<stop offset="0.890625" stop-color="#862FA0"/>
<stop offset="1" stop-color="#351683"/>
</linearGradient>
<linearGradient id="paint83_linear" x1="110.259" y1="81.9033" x2="109.101" y2="78.039" gradientUnits="userSpaceOnUse">
<stop stop-color="#FFD59C"/>
<stop offset="0.2045" stop-color="#FC453A"/>
<stop offset="0.890625" stop-color="#862FA0"/>
<stop offset="1" stop-color="#351683"/>
</linearGradient>
<linearGradient id="paint84_linear" x1="94.972" y1="36.0527" x2="93.8134" y2="32.1884" gradientUnits="userSpaceOnUse">
<stop stop-color="#FFD59C"/>
<stop offset="0.2045" stop-color="#FC453A"/>
<stop offset="0.890625" stop-color="#862FA0"/>
<stop offset="1" stop-color="#351683"/>
</linearGradient>
<linearGradient id="paint85_linear" x1="94.972" y1="51.3359" x2="93.8134" y2="47.4716" gradientUnits="userSpaceOnUse">
<stop stop-color="#FFD59C"/>
<stop offset="0.2045" stop-color="#FC453A"/>
<stop offset="0.890625" stop-color="#862FA0"/>
<stop offset="1" stop-color="#351683"/>
</linearGradient>
<linearGradient id="paint86_linear" x1="94.972" y1="66.622" x2="93.8134" y2="62.7577" gradientUnits="userSpaceOnUse">
<stop stop-color="#FFD59C"/>
<stop offset="0.2045" stop-color="#FC453A"/>
<stop offset="0.890625" stop-color="#862FA0"/>
<stop offset="1" stop-color="#351683"/>
</linearGradient>
<linearGradient id="paint87_linear" x1="94.972" y1="81.9033" x2="93.8134" y2="78.039" gradientUnits="userSpaceOnUse">
<stop stop-color="#FFD59C"/>
<stop offset="0.2045" stop-color="#FC453A"/>
<stop offset="0.890625" stop-color="#862FA0"/>
<stop offset="1" stop-color="#351683"/>
</linearGradient>
<linearGradient id="paint88_linear" x1="79.6888" y1="36.0527" x2="78.5302" y2="32.1884" gradientUnits="userSpaceOnUse">
<stop stop-color="#FFD59C"/>
<stop offset="0.2045" stop-color="#FC453A"/>
<stop offset="0.890625" stop-color="#862FA0"/>
<stop offset="1" stop-color="#351683"/>
</linearGradient>
<linearGradient id="paint89_linear" x1="79.6888" y1="51.3359" x2="78.5302" y2="47.4716" gradientUnits="userSpaceOnUse">
<stop stop-color="#FFD59C"/>
<stop offset="0.2045" stop-color="#FC453A"/>
<stop offset="0.890625" stop-color="#862FA0"/>
<stop offset="1" stop-color="#351683"/>
</linearGradient>
<linearGradient id="paint90_linear" x1="79.6888" y1="66.622" x2="78.5302" y2="62.7577" gradientUnits="userSpaceOnUse">
<stop stop-color="#FFD59C"/>
<stop offset="0.2045" stop-color="#FC453A"/>
<stop offset="0.890625" stop-color="#862FA0"/>
<stop offset="1" stop-color="#351683"/>
</linearGradient>
<linearGradient id="paint91_linear" x1="79.6888" y1="81.9033" x2="78.5302" y2="78.039" gradientUnits="userSpaceOnUse">
<stop stop-color="#FFD59C"/>
<stop offset="0.2045" stop-color="#FC453A"/>
<stop offset="0.890625" stop-color="#862FA0"/>
<stop offset="1" stop-color="#351683"/>
</linearGradient>
<linearGradient id="paint92_linear" x1="64.4056" y1="36.0527" x2="63.247" y2="32.1884" gradientUnits="userSpaceOnUse">
<stop stop-color="#FFD59C"/>
<stop offset="0.2045" stop-color="#FC453A"/>
<stop offset="0.890625" stop-color="#862FA0"/>
<stop offset="1" stop-color="#351683"/>
</linearGradient>
<linearGradient id="paint93_linear" x1="64.4056" y1="51.3359" x2="63.247" y2="47.4716" gradientUnits="userSpaceOnUse">
<stop stop-color="#FFD59C"/>
<stop offset="0.2045" stop-color="#FC453A"/>
<stop offset="0.890625" stop-color="#862FA0"/>
<stop offset="1" stop-color="#351683"/>
</linearGradient>
<linearGradient id="paint94_linear" x1="64.4056" y1="66.622" x2="63.247" y2="62.7577" gradientUnits="userSpaceOnUse">
<stop stop-color="#FFD59C"/>
<stop offset="0.2045" stop-color="#FC453A"/>
<stop offset="0.890625" stop-color="#862FA0"/>
<stop offset="1" stop-color="#351683"/>
</linearGradient>
<linearGradient id="paint95_linear" x1="64.4056" y1="81.9033" x2="63.247" y2="78.039" gradientUnits="userSpaceOnUse">
<stop stop-color="#FFD59C"/>
<stop offset="0.2045" stop-color="#FC453A"/>
<stop offset="0.890625" stop-color="#862FA0"/>
<stop offset="1" stop-color="#351683"/>
</linearGradient>
<linearGradient id="paint96_linear" x1="49.1243" y1="36.0527" x2="47.9657" y2="32.1884" gradientUnits="userSpaceOnUse">
<stop stop-color="#FFD59C"/>
<stop offset="0.2045" stop-color="#FC453A"/>
<stop offset="0.890625" stop-color="#862FA0"/>
<stop offset="1" stop-color="#351683"/>
</linearGradient>
<linearGradient id="paint97_linear" x1="49.1243" y1="51.3359" x2="47.9657" y2="47.4716" gradientUnits="userSpaceOnUse">
<stop stop-color="#FFD59C"/>
<stop offset="0.2045" stop-color="#FC453A"/>
<stop offset="0.890625" stop-color="#862FA0"/>
<stop offset="1" stop-color="#351683"/>
</linearGradient>
<linearGradient id="paint98_linear" x1="49.1243" y1="66.622" x2="47.9657" y2="62.7577" gradientUnits="userSpaceOnUse">
<stop stop-color="#FFD59C"/>
<stop offset="0.2045" stop-color="#FC453A"/>
<stop offset="0.890625" stop-color="#862FA0"/>
<stop offset="1" stop-color="#351683"/>
</linearGradient>
<linearGradient id="paint99_linear" x1="49.1243" y1="81.9033" x2="47.9657" y2="78.039" gradientUnits="userSpaceOnUse">
<stop stop-color="#FFD59C"/>
<stop offset="0.2045" stop-color="#FC453A"/>
<stop offset="0.890625" stop-color="#862FA0"/>
<stop offset="1" stop-color="#351683"/>
</linearGradient>
<linearGradient id="paint100_linear" x1="33.8372" y1="36.0527" x2="32.6786" y2="32.1884" gradientUnits="userSpaceOnUse">
<stop stop-color="#FFD59C"/>
<stop offset="0.2045" stop-color="#FC453A"/>
<stop offset="0.890625" stop-color="#862FA0"/>
<stop offset="1" stop-color="#351683"/>
</linearGradient>
<linearGradient id="paint101_linear" x1="33.8372" y1="51.3359" x2="32.6786" y2="47.4716" gradientUnits="userSpaceOnUse">
<stop stop-color="#FFD59C"/>
<stop offset="0.2045" stop-color="#FC453A"/>
<stop offset="0.890625" stop-color="#862FA0"/>
<stop offset="1" stop-color="#351683"/>
</linearGradient>
<linearGradient id="paint102_linear" x1="33.8372" y1="66.622" x2="32.6786" y2="62.7577" gradientUnits="userSpaceOnUse">
<stop stop-color="#FFD59C"/>
<stop offset="0.2045" stop-color="#FC453A"/>
<stop offset="0.890625" stop-color="#862FA0"/>
<stop offset="1" stop-color="#351683"/>
</linearGradient>
<linearGradient id="paint103_linear" x1="33.8372" y1="81.9033" x2="32.6786" y2="78.039" gradientUnits="userSpaceOnUse">
<stop stop-color="#FFD59C"/>
<stop offset="0.2045" stop-color="#FC453A"/>
<stop offset="0.890625" stop-color="#862FA0"/>
<stop offset="1" stop-color="#351683"/>
</linearGradient>
</defs>
</svg>
