<svg width="49" height="374" viewBox="0 0 49 374" fill="none" xmlns="http://www.w3.org/2000/svg">
<path d="M2.37108 4.33638C3.56841 4.33638 4.53904 3.36576 4.53904 2.16843C4.53904 0.971111 3.56841 0.000488281 2.37108 0.000488281C1.17376 0.000488281 0.203125 0.971111 0.203125 2.16843C0.203125 3.36576 1.17376 4.33638 2.37108 4.33638Z" fill="white"/>
<path d="M17.1523 4.33638C18.3497 4.33638 19.3203 3.36576 19.3203 2.16843C19.3203 0.971111 18.3497 0.000488281 17.1523 0.000488281C15.955 0.000488281 14.9844 0.971111 14.9844 2.16843C14.9844 3.36576 15.955 4.33638 17.1523 4.33638Z" fill="white"/>
<path d="M31.9336 4.33638C33.1309 4.33638 34.1015 3.36576 34.1015 2.16843C34.1015 0.971111 33.1309 0.000488281 31.9336 0.000488281C30.7363 0.000488281 29.7656 0.971111 29.7656 2.16843C29.7656 3.36576 30.7363 4.33638 31.9336 4.33638Z" fill="white"/>
<path d="M46.7148 4.33638C47.9122 4.33638 48.8828 3.36576 48.8828 2.16843C48.8828 0.971111 47.9122 0.000488281 46.7148 0.000488281C45.5175 0.000488281 44.5469 0.971111 44.5469 2.16843C44.5469 3.36576 45.5175 4.33638 46.7148 4.33638Z" fill="white"/>
<path d="M2.37108 19.1179C3.56841 19.1179 4.53904 18.1473 4.53904 16.9499C4.53904 15.7526 3.56841 14.782 2.37108 14.782C1.17376 14.782 0.203125 15.7526 0.203125 16.9499C0.203125 18.1473 1.17376 19.1179 2.37108 19.1179Z" fill="white"/>
<path d="M17.1523 19.1179C18.3497 19.1179 19.3203 18.1473 19.3203 16.9499C19.3203 15.7526 18.3497 14.782 17.1523 14.782C15.955 14.782 14.9844 15.7526 14.9844 16.9499C14.9844 18.1473 15.955 19.1179 17.1523 19.1179Z" fill="white"/>
<path d="M31.9336 19.1179C33.1309 19.1179 34.1015 18.1473 34.1015 16.9499C34.1015 15.7526 33.1309 14.782 31.9336 14.782C30.7363 14.782 29.7656 15.7526 29.7656 16.9499C29.7656 18.1473 30.7363 19.1179 31.9336 19.1179Z" fill="white"/>
<path d="M46.7148 19.1179C47.9122 19.1179 48.8828 18.1473 48.8828 16.9499C48.8828 15.7526 47.9122 14.782 46.7148 14.782C45.5175 14.782 44.5469 15.7526 44.5469 16.9499C44.5469 18.1473 45.5175 19.1179 46.7148 19.1179Z" fill="white"/>
<path d="M2.37108 33.8994C3.56841 33.8994 4.53904 32.9287 4.53904 31.7314C4.53904 30.5341 3.56841 29.5635 2.37108 29.5635C1.17376 29.5635 0.203125 30.5341 0.203125 31.7314C0.203125 32.9287 1.17376 33.8994 2.37108 33.8994Z" fill="white"/>
<path d="M17.1523 33.8994C18.3497 33.8994 19.3203 32.9287 19.3203 31.7314C19.3203 30.5341 18.3497 29.5635 17.1523 29.5635C15.955 29.5635 14.9844 30.5341 14.9844 31.7314C14.9844 32.9287 15.955 33.8994 17.1523 33.8994Z" fill="white"/>
<path d="M31.9336 33.8994C33.1309 33.8994 34.1015 32.9287 34.1015 31.7314C34.1015 30.5341 33.1309 29.5635 31.9336 29.5635C30.7363 29.5635 29.7656 30.5341 29.7656 31.7314C29.7656 32.9287 30.7363 33.8994 31.9336 33.8994Z" fill="white"/>
<path d="M46.7148 33.8994C47.9122 33.8994 48.8828 32.9287 48.8828 31.7314C48.8828 30.5341 47.9122 29.5635 46.7148 29.5635C45.5175 29.5635 44.5469 30.5341 44.5469 31.7314C44.5469 32.9287 45.5175 33.8994 46.7148 33.8994Z" fill="white"/>
<path d="M2.37108 48.6806C3.56841 48.6806 4.53904 47.71 4.53904 46.5127C4.53904 45.3153 3.56841 44.3447 2.37108 44.3447C1.17376 44.3447 0.203125 45.3153 0.203125 46.5127C0.203125 47.71 1.17376 48.6806 2.37108 48.6806Z" fill="white"/>
<path d="M17.1523 48.6806C18.3497 48.6806 19.3203 47.71 19.3203 46.5127C19.3203 45.3153 18.3497 44.3447 17.1523 44.3447C15.955 44.3447 14.9844 45.3153 14.9844 46.5127C14.9844 47.71 15.955 48.6806 17.1523 48.6806Z" fill="white"/>
<path d="M31.9336 48.6806C33.1309 48.6806 34.1015 47.71 34.1015 46.5127C34.1015 45.3153 33.1309 44.3447 31.9336 44.3447C30.7363 44.3447 29.7656 45.3153 29.7656 46.5127C29.7656 47.71 30.7363 48.6806 31.9336 48.6806Z" fill="white"/>
<path d="M46.7148 48.6806C47.9122 48.6806 48.8828 47.71 48.8828 46.5127C48.8828 45.3153 47.9122 44.3447 46.7148 44.3447C45.5175 44.3447 44.5469 45.3153 44.5469 46.5127C44.5469 47.71 45.5175 48.6806 46.7148 48.6806Z" fill="white"/>
<path d="M2.37108 63.4624C3.56841 63.4624 4.53904 62.4917 4.53904 61.2944C4.53904 60.0971 3.56841 59.1265 2.37108 59.1265C1.17376 59.1265 0.203125 60.0971 0.203125 61.2944C0.203125 62.4917 1.17376 63.4624 2.37108 63.4624Z" fill="white"/>
<path d="M17.1523 63.4624C18.3497 63.4624 19.3203 62.4917 19.3203 61.2944C19.3203 60.0971 18.3497 59.1265 17.1523 59.1265C15.955 59.1265 14.9844 60.0971 14.9844 61.2944C14.9844 62.4917 15.955 63.4624 17.1523 63.4624Z" fill="white"/>
<path d="M31.9336 63.4624C33.1309 63.4624 34.1015 62.4917 34.1015 61.2944C34.1015 60.0971 33.1309 59.1265 31.9336 59.1265C30.7363 59.1265 29.7656 60.0971 29.7656 61.2944C29.7656 62.4917 30.7363 63.4624 31.9336 63.4624Z" fill="white"/>
<path d="M46.7148 63.4624C47.9122 63.4624 48.8828 62.4917 48.8828 61.2944C48.8828 60.0971 47.9122 59.1265 46.7148 59.1265C45.5175 59.1265 44.5469 60.0971 44.5469 61.2944C44.5469 62.4917 45.5175 63.4624 46.7148 63.4624Z" fill="white"/>
<path d="M2.37108 78.2436C3.56841 78.2436 4.53904 77.273 4.53904 76.0757C4.53904 74.8783 3.56841 73.9077 2.37108 73.9077C1.17376 73.9077 0.203125 74.8783 0.203125 76.0757C0.203125 77.273 1.17376 78.2436 2.37108 78.2436Z" fill="white"/>
<path d="M17.1523 78.2436C18.3497 78.2436 19.3203 77.273 19.3203 76.0757C19.3203 74.8783 18.3497 73.9077 17.1523 73.9077C15.955 73.9077 14.9844 74.8783 14.9844 76.0757C14.9844 77.273 15.955 78.2436 17.1523 78.2436Z" fill="white"/>
<path d="M31.9336 78.2436C33.1309 78.2436 34.1015 77.273 34.1015 76.0757C34.1015 74.8783 33.1309 73.9077 31.9336 73.9077C30.7363 73.9077 29.7656 74.8783 29.7656 76.0757C29.7656 77.273 30.7363 78.2436 31.9336 78.2436Z" fill="white"/>
<path d="M46.7148 78.2436C47.9122 78.2436 48.8828 77.273 48.8828 76.0757C48.8828 74.8783 47.9122 73.9077 46.7148 73.9077C45.5175 73.9077 44.5469 74.8783 44.5469 76.0757C44.5469 77.273 45.5175 78.2436 46.7148 78.2436Z" fill="white"/>
<path d="M2.37108 93.0251C3.56841 93.0251 4.53904 92.0545 4.53904 90.8572C4.53904 89.6598 3.56841 88.6892 2.37108 88.6892C1.17376 88.6892 0.203125 89.6598 0.203125 90.8572C0.203125 92.0545 1.17376 93.0251 2.37108 93.0251Z" fill="white"/>
<path d="M17.1523 93.0251C18.3497 93.0251 19.3203 92.0545 19.3203 90.8572C19.3203 89.6598 18.3497 88.6892 17.1523 88.6892C15.955 88.6892 14.9844 89.6598 14.9844 90.8572C14.9844 92.0545 15.955 93.0251 17.1523 93.0251Z" fill="white"/>
<path d="M31.9336 93.0251C33.1309 93.0251 34.1015 92.0545 34.1015 90.8572C34.1015 89.6598 33.1309 88.6892 31.9336 88.6892C30.7363 88.6892 29.7656 89.6598 29.7656 90.8572C29.7656 92.0545 30.7363 93.0251 31.9336 93.0251Z" fill="white"/>
<path d="M46.7148 93.0251C47.9122 93.0251 48.8828 92.0545 48.8828 90.8572C48.8828 89.6598 47.9122 88.6892 46.7148 88.6892C45.5175 88.6892 44.5469 89.6598 44.5469 90.8572C44.5469 92.0545 45.5175 93.0251 46.7148 93.0251Z" fill="white"/>
<path d="M2.37108 107.807C3.56841 107.807 4.53904 106.836 4.53904 105.639C4.53904 104.441 3.56841 103.471 2.37108 103.471C1.17376 103.471 0.203125 104.441 0.203125 105.639C0.203125 106.836 1.17376 107.807 2.37108 107.807Z" fill="white"/>
<path d="M17.1523 107.807C18.3497 107.807 19.3203 106.836 19.3203 105.639C19.3203 104.441 18.3497 103.471 17.1523 103.471C15.955 103.471 14.9844 104.441 14.9844 105.639C14.9844 106.836 15.955 107.807 17.1523 107.807Z" fill="white"/>
<path d="M31.9336 107.807C33.1309 107.807 34.1015 106.836 34.1015 105.639C34.1015 104.441 33.1309 103.471 31.9336 103.471C30.7363 103.471 29.7656 104.441 29.7656 105.639C29.7656 106.836 30.7363 107.807 31.9336 107.807Z" fill="white"/>
<path d="M46.7148 107.807C47.9122 107.807 48.8828 106.836 48.8828 105.639C48.8828 104.441 47.9122 103.471 46.7148 103.471C45.5175 103.471 44.5469 104.441 44.5469 105.639C44.5469 106.836 45.5175 107.807 46.7148 107.807Z" fill="white"/>
<path d="M2.37108 122.588C3.56841 122.588 4.53904 121.617 4.53904 120.42C4.53904 119.223 3.56841 118.252 2.37108 118.252C1.17376 118.252 0.203125 119.223 0.203125 120.42C0.203125 121.617 1.17376 122.588 2.37108 122.588Z" fill="white"/>
<path d="M17.1523 122.588C18.3497 122.588 19.3203 121.617 19.3203 120.42C19.3203 119.223 18.3497 118.252 17.1523 118.252C15.955 118.252 14.9844 119.223 14.9844 120.42C14.9844 121.617 15.955 122.588 17.1523 122.588Z" fill="white"/>
<path d="M31.9336 122.588C33.1309 122.588 34.1015 121.617 34.1015 120.42C34.1015 119.223 33.1309 118.252 31.9336 118.252C30.7363 118.252 29.7656 119.223 29.7656 120.42C29.7656 121.617 30.7363 122.588 31.9336 122.588Z" fill="white"/>
<path d="M46.7148 122.588C47.9122 122.588 48.8828 121.617 48.8828 120.42C48.8828 119.223 47.9122 118.252 46.7148 118.252C45.5175 118.252 44.5469 119.223 44.5469 120.42C44.5469 121.617 45.5175 122.588 46.7148 122.588Z" fill="white"/>
<path d="M2.37108 137.37C3.56841 137.37 4.53904 136.399 4.53904 135.202C4.53904 134.004 3.56841 133.034 2.37108 133.034C1.17376 133.034 0.203125 134.004 0.203125 135.202C0.203125 136.399 1.17376 137.37 2.37108 137.37Z" fill="white"/>
<path d="M17.1523 137.37C18.3497 137.37 19.3203 136.399 19.3203 135.202C19.3203 134.004 18.3497 133.034 17.1523 133.034C15.955 133.034 14.9844 134.004 14.9844 135.202C14.9844 136.399 15.955 137.37 17.1523 137.37Z" fill="white"/>
<path d="M31.9336 137.37C33.1309 137.37 34.1015 136.399 34.1015 135.202C34.1015 134.004 33.1309 133.034 31.9336 133.034C30.7363 133.034 29.7656 134.004 29.7656 135.202C29.7656 136.399 30.7363 137.37 31.9336 137.37Z" fill="white"/>
<path d="M46.7148 137.37C47.9122 137.37 48.8828 136.399 48.8828 135.202C48.8828 134.004 47.9122 133.034 46.7148 133.034C45.5175 133.034 44.5469 134.004 44.5469 135.202C44.5469 136.399 45.5175 137.37 46.7148 137.37Z" fill="white"/>
<path d="M2.37108 152.151C3.56841 152.151 4.53904 151.18 4.53904 149.983C4.53904 148.786 3.56841 147.815 2.37108 147.815C1.17376 147.815 0.203125 148.786 0.203125 149.983C0.203125 151.18 1.17376 152.151 2.37108 152.151Z" fill="white"/>
<path d="M17.1523 152.151C18.3497 152.151 19.3203 151.18 19.3203 149.983C19.3203 148.786 18.3497 147.815 17.1523 147.815C15.955 147.815 14.9844 148.786 14.9844 149.983C14.9844 151.18 15.955 152.151 17.1523 152.151Z" fill="white"/>
<path d="M31.9336 152.151C33.1309 152.151 34.1015 151.18 34.1015 149.983C34.1015 148.786 33.1309 147.815 31.9336 147.815C30.7363 147.815 29.7656 148.786 29.7656 149.983C29.7656 151.18 30.7363 152.151 31.9336 152.151Z" fill="white"/>
<path d="M46.7148 152.151C47.9122 152.151 48.8828 151.18 48.8828 149.983C48.8828 148.786 47.9122 147.815 46.7148 147.815C45.5175 147.815 44.5469 148.786 44.5469 149.983C44.5469 151.18 45.5175 152.151 46.7148 152.151Z" fill="white"/>
<path d="M2.37108 166.933C3.56841 166.933 4.53904 165.962 4.53904 164.765C4.53904 163.567 3.56841 162.597 2.37108 162.597C1.17376 162.597 0.203125 163.567 0.203125 164.765C0.203125 165.962 1.17376 166.933 2.37108 166.933Z" fill="white"/>
<path d="M17.1523 166.933C18.3497 166.933 19.3203 165.962 19.3203 164.765C19.3203 163.567 18.3497 162.597 17.1523 162.597C15.955 162.597 14.9844 163.567 14.9844 164.765C14.9844 165.962 15.955 166.933 17.1523 166.933Z" fill="white"/>
<path d="M31.9336 166.933C33.1309 166.933 34.1015 165.962 34.1015 164.765C34.1015 163.567 33.1309 162.597 31.9336 162.597C30.7363 162.597 29.7656 163.567 29.7656 164.765C29.7656 165.962 30.7363 166.933 31.9336 166.933Z" fill="white"/>
<path d="M46.7148 166.933C47.9122 166.933 48.8828 165.962 48.8828 164.765C48.8828 163.567 47.9122 162.597 46.7148 162.597C45.5175 162.597 44.5469 163.567 44.5469 164.765C44.5469 165.962 45.5175 166.933 46.7148 166.933Z" fill="white"/>
<path d="M2.37108 181.714C3.56841 181.714 4.53904 180.743 4.53904 179.546C4.53904 178.349 3.56841 177.378 2.37108 177.378C1.17376 177.378 0.203125 178.349 0.203125 179.546C0.203125 180.743 1.17376 181.714 2.37108 181.714Z" fill="white"/>
<path d="M17.1523 181.714C18.3497 181.714 19.3203 180.743 19.3203 179.546C19.3203 178.349 18.3497 177.378 17.1523 177.378C15.955 177.378 14.9844 178.349 14.9844 179.546C14.9844 180.743 15.955 181.714 17.1523 181.714Z" fill="white"/>
<path d="M31.9336 181.714C33.1309 181.714 34.1015 180.743 34.1015 179.546C34.1015 178.349 33.1309 177.378 31.9336 177.378C30.7363 177.378 29.7656 178.349 29.7656 179.546C29.7656 180.743 30.7363 181.714 31.9336 181.714Z" fill="white"/>
<path d="M46.7148 181.714C47.9122 181.714 48.8828 180.743 48.8828 179.546C48.8828 178.349 47.9122 177.378 46.7148 177.378C45.5175 177.378 44.5469 178.349 44.5469 179.546C44.5469 180.743 45.5175 181.714 46.7148 181.714Z" fill="white"/>
<path d="M2.37108 196.495C3.56841 196.495 4.53904 195.524 4.53904 194.327C4.53904 193.13 3.56841 192.159 2.37108 192.159C1.17376 192.159 0.203125 193.13 0.203125 194.327C0.203125 195.524 1.17376 196.495 2.37108 196.495Z" fill="white"/>
<path d="M17.1523 196.495C18.3497 196.495 19.3203 195.524 19.3203 194.327C19.3203 193.13 18.3497 192.159 17.1523 192.159C15.955 192.159 14.9844 193.13 14.9844 194.327C14.9844 195.524 15.955 196.495 17.1523 196.495Z" fill="white"/>
<path d="M31.9336 196.495C33.1309 196.495 34.1015 195.524 34.1015 194.327C34.1015 193.13 33.1309 192.159 31.9336 192.159C30.7363 192.159 29.7656 193.13 29.7656 194.327C29.7656 195.524 30.7363 196.495 31.9336 196.495Z" fill="white"/>
<path d="M46.7148 196.495C47.9122 196.495 48.8828 195.524 48.8828 194.327C48.8828 193.13 47.9122 192.159 46.7148 192.159C45.5175 192.159 44.5469 193.13 44.5469 194.327C44.5469 195.524 45.5175 196.495 46.7148 196.495Z" fill="white"/>
<path d="M2.37108 211.277C3.56841 211.277 4.53904 210.306 4.53904 209.109C4.53904 207.912 3.56841 206.941 2.37108 206.941C1.17376 206.941 0.203125 207.912 0.203125 209.109C0.203125 210.306 1.17376 211.277 2.37108 211.277Z" fill="white"/>
<path d="M17.1523 211.277C18.3497 211.277 19.3203 210.306 19.3203 209.109C19.3203 207.912 18.3497 206.941 17.1523 206.941C15.955 206.941 14.9844 207.912 14.9844 209.109C14.9844 210.306 15.955 211.277 17.1523 211.277Z" fill="white"/>
<path d="M31.9336 211.277C33.1309 211.277 34.1015 210.306 34.1015 209.109C34.1015 207.912 33.1309 206.941 31.9336 206.941C30.7363 206.941 29.7656 207.912 29.7656 209.109C29.7656 210.306 30.7363 211.277 31.9336 211.277Z" fill="white"/>
<path d="M46.7148 211.277C47.9122 211.277 48.8828 210.306 48.8828 209.109C48.8828 207.912 47.9122 206.941 46.7148 206.941C45.5175 206.941 44.5469 207.912 44.5469 209.109C44.5469 210.306 45.5175 211.277 46.7148 211.277Z" fill="white"/>
<path d="M2.37108 226.058C3.56841 226.058 4.53904 225.087 4.53904 223.89C4.53904 222.693 3.56841 221.722 2.37108 221.722C1.17376 221.722 0.203125 222.693 0.203125 223.89C0.203125 225.087 1.17376 226.058 2.37108 226.058Z" fill="white"/>
<path d="M17.1523 226.058C18.3497 226.058 19.3203 225.087 19.3203 223.89C19.3203 222.693 18.3497 221.722 17.1523 221.722C15.955 221.722 14.9844 222.693 14.9844 223.89C14.9844 225.087 15.955 226.058 17.1523 226.058Z" fill="white"/>
<path d="M31.9336 226.058C33.1309 226.058 34.1015 225.087 34.1015 223.89C34.1015 222.693 33.1309 221.722 31.9336 221.722C30.7363 221.722 29.7656 222.693 29.7656 223.89C29.7656 225.087 30.7363 226.058 31.9336 226.058Z" fill="white"/>
<path d="M46.7148 226.058C47.9122 226.058 48.8828 225.087 48.8828 223.89C48.8828 222.693 47.9122 221.722 46.7148 221.722C45.5175 221.722 44.5469 222.693 44.5469 223.89C44.5469 225.087 45.5175 226.058 46.7148 226.058Z" fill="white"/>
<path d="M2.37108 240.84C3.56841 240.84 4.53904 239.869 4.53904 238.672C4.53904 237.475 3.56841 236.504 2.37108 236.504C1.17376 236.504 0.203125 237.475 0.203125 238.672C0.203125 239.869 1.17376 240.84 2.37108 240.84Z" fill="white"/>
<path d="M17.1523 240.84C18.3497 240.84 19.3203 239.869 19.3203 238.672C19.3203 237.475 18.3497 236.504 17.1523 236.504C15.955 236.504 14.9844 237.475 14.9844 238.672C14.9844 239.869 15.955 240.84 17.1523 240.84Z" fill="white"/>
<path d="M31.9336 240.84C33.1309 240.84 34.1015 239.869 34.1015 238.672C34.1015 237.475 33.1309 236.504 31.9336 236.504C30.7363 236.504 29.7656 237.475 29.7656 238.672C29.7656 239.869 30.7363 240.84 31.9336 240.84Z" fill="white"/>
<path d="M46.7148 240.84C47.9122 240.84 48.8828 239.869 48.8828 238.672C48.8828 237.475 47.9122 236.504 46.7148 236.504C45.5175 236.504 44.5469 237.475 44.5469 238.672C44.5469 239.869 45.5175 240.84 46.7148 240.84Z" fill="white"/>
<path d="M2.37108 255.621C3.56841 255.621 4.53904 254.65 4.53904 253.453C4.53904 252.256 3.56841 251.285 2.37108 251.285C1.17376 251.285 0.203125 252.256 0.203125 253.453C0.203125 254.65 1.17376 255.621 2.37108 255.621Z" fill="white"/>
<path d="M17.1523 255.621C18.3497 255.621 19.3203 254.65 19.3203 253.453C19.3203 252.256 18.3497 251.285 17.1523 251.285C15.955 251.285 14.9844 252.256 14.9844 253.453C14.9844 254.65 15.955 255.621 17.1523 255.621Z" fill="white"/>
<path d="M31.9336 255.621C33.1309 255.621 34.1015 254.65 34.1015 253.453C34.1015 252.256 33.1309 251.285 31.9336 251.285C30.7363 251.285 29.7656 252.256 29.7656 253.453C29.7656 254.65 30.7363 255.621 31.9336 255.621Z" fill="white"/>
<path d="M46.7148 255.621C47.9122 255.621 48.8828 254.65 48.8828 253.453C48.8828 252.256 47.9122 251.285 46.7148 251.285C45.5175 251.285 44.5469 252.256 44.5469 253.453C44.5469 254.65 45.5175 255.621 46.7148 255.621Z" fill="white"/>
<path d="M2.37108 270.402C3.56841 270.402 4.53904 269.432 4.53904 268.234C4.53904 267.037 3.56841 266.066 2.37108 266.066C1.17376 266.066 0.203125 267.037 0.203125 268.234C0.203125 269.432 1.17376 270.402 2.37108 270.402Z" fill="white"/>
<path d="M17.1523 270.402C18.3497 270.402 19.3203 269.432 19.3203 268.234C19.3203 267.037 18.3497 266.066 17.1523 266.066C15.955 266.066 14.9844 267.037 14.9844 268.234C14.9844 269.432 15.955 270.402 17.1523 270.402Z" fill="white"/>
<path d="M31.9336 270.402C33.1309 270.402 34.1015 269.432 34.1015 268.234C34.1015 267.037 33.1309 266.066 31.9336 266.066C30.7363 266.066 29.7656 267.037 29.7656 268.234C29.7656 269.432 30.7363 270.402 31.9336 270.402Z" fill="white"/>
<path d="M46.7148 270.402C47.9122 270.402 48.8828 269.432 48.8828 268.234C48.8828 267.037 47.9122 266.066 46.7148 266.066C45.5175 266.066 44.5469 267.037 44.5469 268.234C44.5469 269.432 45.5175 270.402 46.7148 270.402Z" fill="white"/>
<path d="M2.37108 285.184C3.56841 285.184 4.53904 284.213 4.53904 283.016C4.53904 281.819 3.56841 280.848 2.37108 280.848C1.17376 280.848 0.203125 281.819 0.203125 283.016C0.203125 284.213 1.17376 285.184 2.37108 285.184Z" fill="white"/>
<path d="M17.1523 285.184C18.3497 285.184 19.3203 284.213 19.3203 283.016C19.3203 281.819 18.3497 280.848 17.1523 280.848C15.955 280.848 14.9844 281.819 14.9844 283.016C14.9844 284.213 15.955 285.184 17.1523 285.184Z" fill="white"/>
<path d="M31.9336 285.184C33.1309 285.184 34.1015 284.213 34.1015 283.016C34.1015 281.819 33.1309 280.848 31.9336 280.848C30.7363 280.848 29.7656 281.819 29.7656 283.016C29.7656 284.213 30.7363 285.184 31.9336 285.184Z" fill="white"/>
<path d="M46.7148 285.184C47.9122 285.184 48.8828 284.213 48.8828 283.016C48.8828 281.819 47.9122 280.848 46.7148 280.848C45.5175 280.848 44.5469 281.819 44.5469 283.016C44.5469 284.213 45.5175 285.184 46.7148 285.184Z" fill="white"/>
<path d="M2.37108 299.965C3.56841 299.965 4.53904 298.995 4.53904 297.797C4.53904 296.6 3.56841 295.629 2.37108 295.629C1.17376 295.629 0.203125 296.6 0.203125 297.797C0.203125 298.995 1.17376 299.965 2.37108 299.965Z" fill="white"/>
<path d="M17.1523 299.965C18.3497 299.965 19.3203 298.995 19.3203 297.797C19.3203 296.6 18.3497 295.629 17.1523 295.629C15.955 295.629 14.9844 296.6 14.9844 297.797C14.9844 298.995 15.955 299.965 17.1523 299.965Z" fill="white"/>
<path d="M31.9336 299.965C33.1309 299.965 34.1015 298.995 34.1015 297.797C34.1015 296.6 33.1309 295.629 31.9336 295.629C30.7363 295.629 29.7656 296.6 29.7656 297.797C29.7656 298.995 30.7363 299.965 31.9336 299.965Z" fill="white"/>
<path d="M46.7148 299.965C47.9122 299.965 48.8828 298.995 48.8828 297.797C48.8828 296.6 47.9122 295.629 46.7148 295.629C45.5175 295.629 44.5469 296.6 44.5469 297.797C44.5469 298.995 45.5175 299.965 46.7148 299.965Z" fill="white"/>
<path d="M2.37108 314.747C3.56841 314.747 4.53904 313.776 4.53904 312.579C4.53904 311.382 3.56841 310.411 2.37108 310.411C1.17376 310.411 0.203125 311.382 0.203125 312.579C0.203125 313.776 1.17376 314.747 2.37108 314.747Z" fill="white"/>
<path d="M17.1523 314.747C18.3497 314.747 19.3203 313.776 19.3203 312.579C19.3203 311.382 18.3497 310.411 17.1523 310.411C15.955 310.411 14.9844 311.382 14.9844 312.579C14.9844 313.776 15.955 314.747 17.1523 314.747Z" fill="white"/>
<path d="M31.9336 314.747C33.1309 314.747 34.1015 313.776 34.1015 312.579C34.1015 311.382 33.1309 310.411 31.9336 310.411C30.7363 310.411 29.7656 311.382 29.7656 312.579C29.7656 313.776 30.7363 314.747 31.9336 314.747Z" fill="white"/>
<path d="M46.7148 314.747C47.9122 314.747 48.8828 313.776 48.8828 312.579C48.8828 311.382 47.9122 310.411 46.7148 310.411C45.5175 310.411 44.5469 311.382 44.5469 312.579C44.5469 313.776 45.5175 314.747 46.7148 314.747Z" fill="white"/>
<path d="M2.37108 329.528C3.56841 329.528 4.53904 328.558 4.53904 327.36C4.53904 326.163 3.56841 325.192 2.37108 325.192C1.17376 325.192 0.203125 326.163 0.203125 327.36C0.203125 328.558 1.17376 329.528 2.37108 329.528Z" fill="white"/>
<path d="M17.1523 329.528C18.3497 329.528 19.3203 328.558 19.3203 327.36C19.3203 326.163 18.3497 325.192 17.1523 325.192C15.955 325.192 14.9844 326.163 14.9844 327.36C14.9844 328.558 15.955 329.528 17.1523 329.528Z" fill="white"/>
<path d="M31.9336 329.528C33.1309 329.528 34.1015 328.558 34.1015 327.36C34.1015 326.163 33.1309 325.192 31.9336 325.192C30.7363 325.192 29.7656 326.163 29.7656 327.36C29.7656 328.558 30.7363 329.528 31.9336 329.528Z" fill="white"/>
<path d="M46.7148 329.528C47.9122 329.528 48.8828 328.558 48.8828 327.36C48.8828 326.163 47.9122 325.192 46.7148 325.192C45.5175 325.192 44.5469 326.163 44.5469 327.36C44.5469 328.558 45.5175 329.528 46.7148 329.528Z" fill="white"/>
<path d="M2.37108 344.31C3.56841 344.31 4.53904 343.339 4.53904 342.142C4.53904 340.945 3.56841 339.974 2.37108 339.974C1.17376 339.974 0.203125 340.945 0.203125 342.142C0.203125 343.339 1.17376 344.31 2.37108 344.31Z" fill="white"/>
<path d="M17.1523 344.31C18.3497 344.31 19.3203 343.339 19.3203 342.142C19.3203 340.945 18.3497 339.974 17.1523 339.974C15.955 339.974 14.9844 340.945 14.9844 342.142C14.9844 343.339 15.955 344.31 17.1523 344.31Z" fill="white"/>
<path d="M31.9336 344.31C33.1309 344.31 34.1015 343.339 34.1015 342.142C34.1015 340.945 33.1309 339.974 31.9336 339.974C30.7363 339.974 29.7656 340.945 29.7656 342.142C29.7656 343.339 30.7363 344.31 31.9336 344.31Z" fill="white"/>
<path d="M46.7148 344.31C47.9122 344.31 48.8828 343.339 48.8828 342.142C48.8828 340.945 47.9122 339.974 46.7148 339.974C45.5175 339.974 44.5469 340.945 44.5469 342.142C44.5469 343.339 45.5175 344.31 46.7148 344.31Z" fill="white"/>
<path d="M2.37108 359.091C3.56841 359.091 4.53904 358.121 4.53904 356.923C4.53904 355.726 3.56841 354.755 2.37108 354.755C1.17376 354.755 0.203125 355.726 0.203125 356.923C0.203125 358.121 1.17376 359.091 2.37108 359.091Z" fill="white"/>
<path d="M17.1523 359.091C18.3497 359.091 19.3203 358.121 19.3203 356.923C19.3203 355.726 18.3497 354.755 17.1523 354.755C15.955 354.755 14.9844 355.726 14.9844 356.923C14.9844 358.121 15.955 359.091 17.1523 359.091Z" fill="white"/>
<path d="M31.9336 359.091C33.1309 359.091 34.1015 358.121 34.1015 356.923C34.1015 355.726 33.1309 354.755 31.9336 354.755C30.7363 354.755 29.7656 355.726 29.7656 356.923C29.7656 358.121 30.7363 359.091 31.9336 359.091Z" fill="white"/>
<path d="M46.7148 359.091C47.9122 359.091 48.8828 358.121 48.8828 356.923C48.8828 355.726 47.9122 354.755 46.7148 354.755C45.5175 354.755 44.5469 355.726 44.5469 356.923C44.5469 358.121 45.5175 359.091 46.7148 359.091Z" fill="white"/>
<path d="M2.37108 373.872C3.56841 373.872 4.53904 372.902 4.53904 371.705C4.53904 370.507 3.56841 369.537 2.37108 369.537C1.17376 369.537 0.203125 370.507 0.203125 371.705C0.203125 372.902 1.17376 373.872 2.37108 373.872Z" fill="white"/>
<path d="M17.1523 373.872C18.3497 373.872 19.3203 372.902 19.3203 371.705C19.3203 370.507 18.3497 369.537 17.1523 369.537C15.955 369.537 14.9844 370.507 14.9844 371.705C14.9844 372.902 15.955 373.872 17.1523 373.872Z" fill="white"/>
<path d="M31.9336 373.872C33.1309 373.872 34.1015 372.902 34.1015 371.705C34.1015 370.507 33.1309 369.537 31.9336 369.537C30.7363 369.537 29.7656 370.507 29.7656 371.705C29.7656 372.902 30.7363 373.872 31.9336 373.872Z" fill="white"/>
<path d="M46.7148 373.872C47.9122 373.872 48.8828 372.902 48.8828 371.705C48.8828 370.507 47.9122 369.537 46.7148 369.537C45.5175 369.537 44.5469 370.507 44.5469 371.705C44.5469 372.902 45.5175 373.872 46.7148 373.872Z" fill="white"/>
</svg>
