<svg width="186" height="185" viewBox="0 0 186 185" fill="none" xmlns="http://www.w3.org/2000/svg">
<path d="M166.618 30.7454C165.919 30.6734 165.215 30.6734 164.517 30.7454H21.031C20.1114 30.7596 19.1979 30.8974 18.315 31.1553L92.364 104.897L166.618 30.7454Z" fill="white"/>
<path d="M174.201 37.8716L99.5883 112.177C97.668 114.086 95.0704 115.157 92.3628 115.157C89.6551 115.157 87.0575 114.086 85.1372 112.177L11.1908 38.4353C10.9635 39.2708 10.8429 40.1317 10.8321 40.9975V143.487C10.8321 146.206 11.9119 148.812 13.8339 150.735C15.756 152.657 18.3628 153.736 21.0811 153.736H164.567C167.285 153.736 169.892 152.657 171.814 150.735C173.736 148.812 174.816 146.206 174.816 143.487V40.9975C174.775 39.9299 174.568 38.8751 174.201 37.8716ZM28.1016 143.487H20.9786V136.159L58.2336 99.2118L65.4592 106.437L28.1016 143.487ZM164.464 143.487H157.29L119.933 106.437L127.158 99.2118L164.413 136.159L164.464 143.487Z" fill="white"/>
</svg>
