<svg width="146" height="146" viewBox="0 0 146 146" fill="none" xmlns="http://www.w3.org/2000/svg">
<path d="M85.2276 0.759277H30.8713C26.0659 0.759277 21.4574 2.66821 18.0594 6.06613C14.6615 9.46406 12.7526 14.0726 12.7526 18.878V62.1456C9.21653 63.3958 6.15559 65.7125 3.99203 68.7761C1.82848 71.8396 0.668948 75.4991 0.673414 79.2497V127.603C0.673414 132.408 2.58235 137.017 5.98027 140.414C9.3782 143.812 13.9868 145.721 18.7922 145.721H127.505C132.31 145.721 136.919 143.812 140.317 140.414C143.714 137.017 145.623 132.408 145.623 127.603V79.2376C145.625 75.4891 144.465 71.8323 142.301 68.7711C140.138 65.7099 137.078 63.3951 133.544 62.1456V49.0518H103.346C98.5409 49.0518 93.9323 47.1428 90.5344 43.7449C87.1365 40.347 85.2276 35.7384 85.2276 30.933V0.759277ZM18.7922 73.198H127.505C129.106 73.198 130.643 73.8343 131.775 74.967C132.908 76.0996 133.544 77.6358 133.544 79.2376V127.59C133.544 129.192 132.908 130.728 131.775 131.861C130.643 132.994 129.106 133.63 127.505 133.63H18.7922C17.1904 133.63 15.6542 132.994 14.5215 131.861C13.3889 130.728 12.7526 129.192 12.7526 127.59V79.2376C12.7526 77.6358 13.3889 76.0996 14.5215 74.967C15.6542 73.8343 17.1904 73.198 18.7922 73.198Z" fill="white"/>
<path d="M129.462 36.4882H103.557C101.999 36.4882 100.506 35.8689 99.4047 34.7665C98.3036 33.6642 97.685 32.1691 97.685 30.6101V4.71143L129.462 36.4882Z" fill="white"/>
<path d="M30.7422 85.2129C29.1128 85.2129 27.5502 85.8453 26.3981 86.9709C25.246 88.0966 24.5987 89.6233 24.5987 91.2152V115.224C24.5987 116.816 25.246 118.343 26.3981 119.468C27.5502 120.594 29.1128 121.227 30.7422 121.227C32.3716 121.227 33.9342 120.594 35.0863 119.468C36.2384 118.343 36.8857 116.816 36.8857 115.224V113.231H40.9773C44.7802 113.231 48.4274 111.756 51.1164 109.128C53.8055 106.501 55.3162 102.938 55.3162 99.2222C55.3162 95.5067 53.8055 91.9434 51.1164 89.3161C48.4274 86.6889 44.7802 85.2129 40.9773 85.2129H30.7422ZM40.9773 101.227H36.8857V97.2174H40.9773C41.5215 97.2174 42.0434 97.4286 42.4282 97.8046C42.813 98.1806 43.0292 98.6905 43.0292 99.2222C43.0292 99.7539 42.813 100.264 42.4282 100.64C42.0434 101.016 41.5215 101.227 40.9773 101.227Z" fill="white"/>
<path d="M97.685 91.2032C97.6881 89.6133 98.3035 88.0897 99.3963 86.9667C100.489 85.8436 101.97 85.2129 103.514 85.2129H115.159C116.705 85.2129 118.188 85.8453 119.281 86.9709C120.374 88.0966 120.988 89.6233 120.988 91.2152C120.988 92.8071 120.374 94.3338 119.281 95.4594C118.188 96.585 116.705 97.2174 115.159 97.2174H109.331V101.239H115.159C116.705 101.239 118.188 101.871 119.281 102.997C120.374 104.123 120.988 105.649 120.988 107.241C120.988 108.833 120.374 110.36 119.281 111.485C118.188 112.611 116.705 113.243 115.159 113.243H109.342V115.212C109.344 116 109.195 116.781 108.903 117.51C108.612 118.239 108.184 118.902 107.643 119.46C106.552 120.588 105.071 121.223 103.525 121.227C101.979 121.23 100.496 120.6 99.4004 119.477C98.3051 118.354 97.6881 116.828 97.685 115.236V107.229V91.2032Z" fill="white"/>
<path d="M66.7509 85.2129C65.1228 85.2129 63.5615 85.8453 62.4103 86.9709C61.259 88.0966 60.6123 89.6233 60.6123 91.2152V115.224C60.6123 116.816 61.259 118.343 62.4103 119.468C63.5615 120.594 65.1228 121.227 66.7509 121.227H72.914C77.7982 121.227 82.4823 119.329 85.936 115.952C89.3896 112.576 91.3298 107.995 91.3298 103.22C91.3298 98.444 89.3896 93.8639 85.936 90.487C82.4823 87.11 77.7982 85.2129 72.914 85.2129H66.7509ZM72.8895 109.222V97.2174H72.914C74.5421 97.2174 76.1035 97.8498 77.2547 98.9755C78.4059 100.101 79.0526 101.628 79.0526 103.22C79.0526 104.812 78.4059 106.338 77.2547 107.464C76.1035 108.59 74.5421 109.222 72.914 109.222H72.8895Z" fill="white"/>
</svg>
