<svg width="132" height="132" viewBox="0 0 132 132" fill="none" xmlns="http://www.w3.org/2000/svg">
<path d="M94.3141 79.3749C94.8395 75.0406 95.2336 70.7062 95.2336 66.2405C95.2336 61.7748 94.8395 57.4405 94.3141 53.1061H116.511C117.562 57.3091 118.219 61.7092 118.219 66.2405C118.219 70.7719 117.562 75.1719 116.511 79.3749H94.3141ZM82.6902 115.888C86.6305 108.599 89.6514 100.718 91.7529 92.5093H111.126C104.764 103.465 94.6695 111.764 82.6902 115.888ZM81.0484 79.3749H50.314C49.6572 75.0406 49.2632 70.7062 49.2632 66.2405C49.2632 61.7748 49.6572 57.3748 50.314 53.1061H81.0484C81.6395 57.3748 82.0992 61.7748 82.0992 66.2405C82.0992 70.7062 81.6395 75.0406 81.0484 79.3749ZM65.6812 118.515C60.2304 110.635 55.8304 101.9 53.1379 92.5093H78.2245C75.532 101.9 71.132 110.635 65.6812 118.515ZM39.4124 39.9717H20.2362C26.5332 28.9862 36.62 20.674 48.6065 16.5926C44.6662 23.8821 41.7109 31.7628 39.4124 39.9717ZM20.2362 92.5093H39.4124C41.7109 100.718 44.6662 108.599 48.6065 115.888C36.6452 111.762 26.5726 103.462 20.2362 92.5093ZM14.8511 79.3749C13.8004 75.1719 13.1437 70.7719 13.1437 66.2405C13.1437 61.7092 13.8004 57.3091 14.8511 53.1061H37.0482C36.5229 57.4405 36.1288 61.7748 36.1288 66.2405C36.1288 70.7062 36.5229 75.0406 37.0482 79.3749H14.8511ZM65.6812 13.9C71.132 21.7806 75.532 30.5807 78.2245 39.9717H53.1379C55.8304 30.5807 60.2304 21.7806 65.6812 13.9ZM111.126 39.9717H91.7529C89.6975 31.838 86.654 23.9865 82.6902 16.5926C94.7738 20.7299 104.822 29.0702 111.126 39.9717ZM65.6812 0.568604C29.3646 0.568604 0.00927734 30.121 0.00927734 66.2405C0.00927734 83.6578 6.92826 100.362 19.2441 112.678C25.3423 118.776 32.582 123.613 40.5496 126.913C48.5173 130.214 57.057 131.912 65.6812 131.912C83.0985 131.912 99.8024 124.993 112.118 112.678C124.434 100.362 131.353 83.6578 131.353 66.2405C131.353 57.6164 129.654 49.0766 126.354 41.109C123.054 33.1413 118.216 25.9017 112.118 19.8035C106.02 13.7053 98.7804 8.8679 90.8127 5.56758C82.8451 2.26726 74.3053 0.568604 65.6812 0.568604Z" fill="white"/>
</svg>
