<svg width="49" height="374" viewBox="0 0 49 374" fill="none" xmlns="http://www.w3.org/2000/svg">
<path d="M2.3828 4.33589C3.58013 4.33589 4.55076 3.36527 4.55076 2.16795C4.55076 0.970623 3.58013 0 2.3828 0C1.18548 0 0.214844 0.970623 0.214844 2.16795C0.214844 3.36527 1.18548 4.33589 2.3828 4.33589Z" fill="white"/>
<path d="M17.1636 4.33589C18.3609 4.33589 19.3315 3.36527 19.3315 2.16795C19.3315 0.970623 18.3609 0 17.1636 0C15.9662 0 14.9956 0.970623 14.9956 2.16795C14.9956 3.36527 15.9662 4.33589 17.1636 4.33589Z" fill="white"/>
<path d="M31.9448 4.33589C33.1421 4.33589 34.1128 3.36527 34.1128 2.16795C34.1128 0.970623 33.1421 0 31.9448 0C30.7475 0 29.7769 0.970623 29.7769 2.16795C29.7769 3.36527 30.7475 4.33589 31.9448 4.33589Z" fill="white"/>
<path d="M46.7266 4.33589C47.9239 4.33589 48.8945 3.36527 48.8945 2.16795C48.8945 0.970623 47.9239 0 46.7266 0C45.5292 0 44.5586 0.970623 44.5586 2.16795C44.5586 3.36527 45.5292 4.33589 46.7266 4.33589Z" fill="white"/>
<path d="M2.38183 19.1174C3.57915 19.1174 4.54978 18.1468 4.54978 16.9494C4.54978 15.7521 3.57915 14.7815 2.38183 14.7815C1.1845 14.7815 0.213867 15.7521 0.213867 16.9494C0.213867 18.1468 1.1845 19.1174 2.38183 19.1174Z" fill="white"/>
<path d="M17.1636 19.1174C18.3609 19.1174 19.3315 18.1468 19.3315 16.9494C19.3315 15.7521 18.3609 14.7815 17.1636 14.7815C15.9662 14.7815 14.9956 15.7521 14.9956 16.9494C14.9956 18.1468 15.9662 19.1174 17.1636 19.1174Z" fill="white"/>
<path d="M31.9448 19.1174C33.1421 19.1174 34.1128 18.1468 34.1128 16.9494C34.1128 15.7521 33.1421 14.7815 31.9448 14.7815C30.7475 14.7815 29.7769 15.7521 29.7769 16.9494C29.7769 18.1468 30.7475 19.1174 31.9448 19.1174Z" fill="white"/>
<path d="M46.7266 19.1174C47.9239 19.1174 48.8945 18.1468 48.8945 16.9494C48.8945 15.7521 47.9239 14.7815 46.7266 14.7815C45.5292 14.7815 44.5586 15.7521 44.5586 16.9494C44.5586 18.1468 45.5292 19.1174 46.7266 19.1174Z" fill="white"/>
<path d="M2.38183 33.8988C3.57915 33.8988 4.54978 32.9282 4.54978 31.7309C4.54978 30.5336 3.57915 29.5629 2.38183 29.5629C1.1845 29.5629 0.213867 30.5336 0.213867 31.7309C0.213867 32.9282 1.1845 33.8988 2.38183 33.8988Z" fill="white"/>
<path d="M17.1636 33.8988C18.3609 33.8988 19.3315 32.9282 19.3315 31.7309C19.3315 30.5336 18.3609 29.5629 17.1636 29.5629C15.9662 29.5629 14.9956 30.5336 14.9956 31.7309C14.9956 32.9282 15.9662 33.8988 17.1636 33.8988Z" fill="white"/>
<path d="M31.9448 33.8988C33.1421 33.8988 34.1128 32.9282 34.1128 31.7309C34.1128 30.5336 33.1421 29.5629 31.9448 29.5629C30.7475 29.5629 29.7769 30.5336 29.7769 31.7309C29.7769 32.9282 30.7475 33.8988 31.9448 33.8988Z" fill="white"/>
<path d="M46.7266 33.8988C47.9239 33.8988 48.8945 32.9282 48.8945 31.7309C48.8945 30.5336 47.9239 29.5629 46.7266 29.5629C45.5292 29.5629 44.5586 30.5336 44.5586 31.7309C44.5586 32.9282 45.5292 33.8988 46.7266 33.8988Z" fill="white"/>
<path d="M2.38183 48.6803C3.57915 48.6803 4.54978 47.7096 4.54978 46.5123C4.54978 45.315 3.57915 44.3444 2.38183 44.3444C1.1845 44.3444 0.213867 45.315 0.213867 46.5123C0.213867 47.7096 1.1845 48.6803 2.38183 48.6803Z" fill="white"/>
<path d="M17.1636 48.6803C18.3609 48.6803 19.3315 47.7096 19.3315 46.5123C19.3315 45.315 18.3609 44.3444 17.1636 44.3444C15.9662 44.3444 14.9956 45.315 14.9956 46.5123C14.9956 47.7096 15.9662 48.6803 17.1636 48.6803Z" fill="white"/>
<path d="M31.9448 48.6803C33.1421 48.6803 34.1128 47.7096 34.1128 46.5123C34.1128 45.315 33.1421 44.3444 31.9448 44.3444C30.7475 44.3444 29.7769 45.315 29.7769 46.5123C29.7769 47.7096 30.7475 48.6803 31.9448 48.6803Z" fill="white"/>
<path d="M46.7266 48.6803C47.9239 48.6803 48.8945 47.7096 48.8945 46.5123C48.8945 45.315 47.9239 44.3444 46.7266 44.3444C45.5292 44.3444 44.5586 45.315 44.5586 46.5123C44.5586 47.7096 45.5292 48.6803 46.7266 48.6803Z" fill="white"/>
<path d="M2.38183 63.4617C3.57915 63.4617 4.54978 62.4911 4.54978 61.2938C4.54978 60.0965 3.57915 59.1259 2.38183 59.1259C1.1845 59.1259 0.213867 60.0965 0.213867 61.2938C0.213867 62.4911 1.1845 63.4617 2.38183 63.4617Z" fill="white"/>
<path d="M17.1636 63.4617C18.3609 63.4617 19.3315 62.4911 19.3315 61.2938C19.3315 60.0965 18.3609 59.1259 17.1636 59.1259C15.9662 59.1259 14.9956 60.0965 14.9956 61.2938C14.9956 62.4911 15.9662 63.4617 17.1636 63.4617Z" fill="white"/>
<path d="M31.9448 63.4617C33.1421 63.4617 34.1128 62.4911 34.1128 61.2938C34.1128 60.0965 33.1421 59.1259 31.9448 59.1259C30.7475 59.1259 29.7769 60.0965 29.7769 61.2938C29.7769 62.4911 30.7475 63.4617 31.9448 63.4617Z" fill="white"/>
<path d="M46.7266 63.4617C47.9239 63.4617 48.8945 62.4911 48.8945 61.2938C48.8945 60.0965 47.9239 59.1259 46.7266 59.1259C45.5292 59.1259 44.5586 60.0965 44.5586 61.2938C44.5586 62.4911 45.5292 63.4617 46.7266 63.4617Z" fill="white"/>
<path d="M2.38183 78.2432C3.57915 78.2432 4.54978 77.2726 4.54978 76.0752C4.54978 74.8779 3.57915 73.9073 2.38183 73.9073C1.1845 73.9073 0.213867 74.8779 0.213867 76.0752C0.213867 77.2726 1.1845 78.2432 2.38183 78.2432Z" fill="white"/>
<path d="M17.1636 78.2432C18.3609 78.2432 19.3315 77.2726 19.3315 76.0752C19.3315 74.8779 18.3609 73.9073 17.1636 73.9073C15.9662 73.9073 14.9956 74.8779 14.9956 76.0752C14.9956 77.2726 15.9662 78.2432 17.1636 78.2432Z" fill="white"/>
<path d="M31.9448 78.2432C33.1421 78.2432 34.1128 77.2726 34.1128 76.0752C34.1128 74.8779 33.1421 73.9073 31.9448 73.9073C30.7475 73.9073 29.7769 74.8779 29.7769 76.0752C29.7769 77.2726 30.7475 78.2432 31.9448 78.2432Z" fill="white"/>
<path d="M46.7266 78.2432C47.9239 78.2432 48.8945 77.2726 48.8945 76.0752C48.8945 74.8779 47.9239 73.9073 46.7266 73.9073C45.5292 73.9073 44.5586 74.8779 44.5586 76.0752C44.5586 77.2726 45.5292 78.2432 46.7266 78.2432Z" fill="white"/>
<path d="M2.38183 93.0246C3.57915 93.0246 4.54978 92.054 4.54978 90.8567C4.54978 89.6593 3.57915 88.6887 2.38183 88.6887C1.1845 88.6887 0.213867 89.6593 0.213867 90.8567C0.213867 92.054 1.1845 93.0246 2.38183 93.0246Z" fill="white"/>
<path d="M17.1636 93.0246C18.3609 93.0246 19.3315 92.054 19.3315 90.8567C19.3315 89.6593 18.3609 88.6887 17.1636 88.6887C15.9662 88.6887 14.9956 89.6593 14.9956 90.8567C14.9956 92.054 15.9662 93.0246 17.1636 93.0246Z" fill="white"/>
<path d="M31.9448 93.0246C33.1421 93.0246 34.1128 92.054 34.1128 90.8567C34.1128 89.6593 33.1421 88.6887 31.9448 88.6887C30.7475 88.6887 29.7769 89.6593 29.7769 90.8567C29.7769 92.054 30.7475 93.0246 31.9448 93.0246Z" fill="white"/>
<path d="M46.7266 93.0246C47.9239 93.0246 48.8945 92.054 48.8945 90.8567C48.8945 89.6593 47.9239 88.6887 46.7266 88.6887C45.5292 88.6887 44.5586 89.6593 44.5586 90.8567C44.5586 92.054 45.5292 93.0246 46.7266 93.0246Z" fill="white"/>
<path d="M2.38183 107.806C3.57915 107.806 4.54978 106.835 4.54978 105.638C4.54978 104.441 3.57915 103.47 2.38183 103.47C1.1845 103.47 0.213867 104.441 0.213867 105.638C0.213867 106.835 1.1845 107.806 2.38183 107.806Z" fill="white"/>
<path d="M17.1636 107.806C18.3609 107.806 19.3315 106.835 19.3315 105.638C19.3315 104.441 18.3609 103.47 17.1636 103.47C15.9662 103.47 14.9956 104.441 14.9956 105.638C14.9956 106.835 15.9662 107.806 17.1636 107.806Z" fill="white"/>
<path d="M31.9448 107.806C33.1421 107.806 34.1128 106.835 34.1128 105.638C34.1128 104.441 33.1421 103.47 31.9448 103.47C30.7475 103.47 29.7769 104.441 29.7769 105.638C29.7769 106.835 30.7475 107.806 31.9448 107.806Z" fill="white"/>
<path d="M46.7266 107.806C47.9239 107.806 48.8945 106.835 48.8945 105.638C48.8945 104.441 47.9239 103.47 46.7266 103.47C45.5292 103.47 44.5586 104.441 44.5586 105.638C44.5586 106.835 45.5292 107.806 46.7266 107.806Z" fill="white"/>
<path d="M2.38183 122.588C3.57915 122.588 4.54978 121.617 4.54978 120.42C4.54978 119.222 3.57915 118.252 2.38183 118.252C1.1845 118.252 0.213867 119.222 0.213867 120.42C0.213867 121.617 1.1845 122.588 2.38183 122.588Z" fill="white"/>
<path d="M17.1636 122.588C18.3609 122.588 19.3315 121.617 19.3315 120.42C19.3315 119.222 18.3609 118.252 17.1636 118.252C15.9662 118.252 14.9956 119.222 14.9956 120.42C14.9956 121.617 15.9662 122.588 17.1636 122.588Z" fill="white"/>
<path d="M31.9448 122.588C33.1421 122.588 34.1128 121.617 34.1128 120.42C34.1128 119.222 33.1421 118.252 31.9448 118.252C30.7475 118.252 29.7769 119.222 29.7769 120.42C29.7769 121.617 30.7475 122.588 31.9448 122.588Z" fill="white"/>
<path d="M46.7266 122.588C47.9239 122.588 48.8945 121.617 48.8945 120.42C48.8945 119.222 47.9239 118.252 46.7266 118.252C45.5292 118.252 44.5586 119.222 44.5586 120.42C44.5586 121.617 45.5292 122.588 46.7266 122.588Z" fill="white"/>
<path d="M2.38183 137.369C3.57915 137.369 4.54978 136.398 4.54978 135.201C4.54978 134.004 3.57915 133.033 2.38183 133.033C1.1845 133.033 0.213867 134.004 0.213867 135.201C0.213867 136.398 1.1845 137.369 2.38183 137.369Z" fill="white"/>
<path d="M17.1636 137.369C18.3609 137.369 19.3315 136.398 19.3315 135.201C19.3315 134.004 18.3609 133.033 17.1636 133.033C15.9662 133.033 14.9956 134.004 14.9956 135.201C14.9956 136.398 15.9662 137.369 17.1636 137.369Z" fill="white"/>
<path d="M31.9448 137.369C33.1421 137.369 34.1128 136.398 34.1128 135.201C34.1128 134.004 33.1421 133.033 31.9448 133.033C30.7475 133.033 29.7769 134.004 29.7769 135.201C29.7769 136.398 30.7475 137.369 31.9448 137.369Z" fill="white"/>
<path d="M46.7266 137.369C47.9239 137.369 48.8945 136.398 48.8945 135.201C48.8945 134.004 47.9239 133.033 46.7266 133.033C45.5292 133.033 44.5586 134.004 44.5586 135.201C44.5586 136.398 45.5292 137.369 46.7266 137.369Z" fill="white"/>
<path d="M2.38183 152.15C3.57915 152.15 4.54978 151.18 4.54978 149.983C4.54978 148.785 3.57915 147.815 2.38183 147.815C1.1845 147.815 0.213867 148.785 0.213867 149.983C0.213867 151.18 1.1845 152.15 2.38183 152.15Z" fill="white"/>
<path d="M17.1636 152.15C18.3609 152.15 19.3315 151.18 19.3315 149.983C19.3315 148.785 18.3609 147.815 17.1636 147.815C15.9662 147.815 14.9956 148.785 14.9956 149.983C14.9956 151.18 15.9662 152.15 17.1636 152.15Z" fill="white"/>
<path d="M31.9448 152.15C33.1421 152.15 34.1128 151.18 34.1128 149.983C34.1128 148.785 33.1421 147.815 31.9448 147.815C30.7475 147.815 29.7769 148.785 29.7769 149.983C29.7769 151.18 30.7475 152.15 31.9448 152.15Z" fill="white"/>
<path d="M46.7266 152.15C47.9239 152.15 48.8945 151.18 48.8945 149.983C48.8945 148.785 47.9239 147.815 46.7266 147.815C45.5292 147.815 44.5586 148.785 44.5586 149.983C44.5586 151.18 45.5292 152.15 46.7266 152.15Z" fill="white"/>
<path d="M2.38183 166.932C3.57915 166.932 4.54978 165.961 4.54978 164.764C4.54978 163.567 3.57915 162.596 2.38183 162.596C1.1845 162.596 0.213867 163.567 0.213867 164.764C0.213867 165.961 1.1845 166.932 2.38183 166.932Z" fill="white"/>
<path d="M17.1636 166.932C18.3609 166.932 19.3315 165.961 19.3315 164.764C19.3315 163.567 18.3609 162.596 17.1636 162.596C15.9662 162.596 14.9956 163.567 14.9956 164.764C14.9956 165.961 15.9662 166.932 17.1636 166.932Z" fill="white"/>
<path d="M31.9448 166.932C33.1421 166.932 34.1128 165.961 34.1128 164.764C34.1128 163.567 33.1421 162.596 31.9448 162.596C30.7475 162.596 29.7769 163.567 29.7769 164.764C29.7769 165.961 30.7475 166.932 31.9448 166.932Z" fill="white"/>
<path d="M46.7266 166.932C47.9239 166.932 48.8945 165.961 48.8945 164.764C48.8945 163.567 47.9239 162.596 46.7266 162.596C45.5292 162.596 44.5586 163.567 44.5586 164.764C44.5586 165.961 45.5292 166.932 46.7266 166.932Z" fill="white"/>
<path d="M2.38183 181.713C3.57915 181.713 4.54978 180.743 4.54978 179.545C4.54978 178.348 3.57915 177.377 2.38183 177.377C1.1845 177.377 0.213867 178.348 0.213867 179.545C0.213867 180.743 1.1845 181.713 2.38183 181.713Z" fill="white"/>
<path d="M17.1636 181.713C18.3609 181.713 19.3315 180.743 19.3315 179.545C19.3315 178.348 18.3609 177.377 17.1636 177.377C15.9662 177.377 14.9956 178.348 14.9956 179.545C14.9956 180.743 15.9662 181.713 17.1636 181.713Z" fill="white"/>
<path d="M31.9448 181.713C33.1421 181.713 34.1128 180.743 34.1128 179.545C34.1128 178.348 33.1421 177.377 31.9448 177.377C30.7475 177.377 29.7769 178.348 29.7769 179.545C29.7769 180.743 30.7475 181.713 31.9448 181.713Z" fill="white"/>
<path d="M46.7266 181.713C47.9239 181.713 48.8945 180.743 48.8945 179.545C48.8945 178.348 47.9239 177.377 46.7266 177.377C45.5292 177.377 44.5586 178.348 44.5586 179.545C44.5586 180.743 45.5292 181.713 46.7266 181.713Z" fill="white"/>
<path d="M2.38183 196.495C3.57915 196.495 4.54978 195.524 4.54978 194.327C4.54978 193.13 3.57915 192.159 2.38183 192.159C1.1845 192.159 0.213867 193.13 0.213867 194.327C0.213867 195.524 1.1845 196.495 2.38183 196.495Z" fill="white"/>
<path d="M17.1636 196.495C18.3609 196.495 19.3315 195.524 19.3315 194.327C19.3315 193.13 18.3609 192.159 17.1636 192.159C15.9662 192.159 14.9956 193.13 14.9956 194.327C14.9956 195.524 15.9662 196.495 17.1636 196.495Z" fill="white"/>
<path d="M31.9448 196.495C33.1421 196.495 34.1128 195.524 34.1128 194.327C34.1128 193.13 33.1421 192.159 31.9448 192.159C30.7475 192.159 29.7769 193.13 29.7769 194.327C29.7769 195.524 30.7475 196.495 31.9448 196.495Z" fill="white"/>
<path d="M46.7266 196.495C47.9239 196.495 48.8945 195.524 48.8945 194.327C48.8945 193.13 47.9239 192.159 46.7266 192.159C45.5292 192.159 44.5586 193.13 44.5586 194.327C44.5586 195.524 45.5292 196.495 46.7266 196.495Z" fill="white"/>
<path d="M2.38183 211.276C3.57915 211.276 4.54978 210.306 4.54978 209.108C4.54978 207.911 3.57915 206.94 2.38183 206.94C1.1845 206.94 0.213867 207.911 0.213867 209.108C0.213867 210.306 1.1845 211.276 2.38183 211.276Z" fill="white"/>
<path d="M17.1636 211.276C18.3609 211.276 19.3315 210.306 19.3315 209.108C19.3315 207.911 18.3609 206.94 17.1636 206.94C15.9662 206.94 14.9956 207.911 14.9956 209.108C14.9956 210.306 15.9662 211.276 17.1636 211.276Z" fill="white"/>
<path d="M31.9448 211.276C33.1421 211.276 34.1128 210.306 34.1128 209.108C34.1128 207.911 33.1421 206.94 31.9448 206.94C30.7475 206.94 29.7769 207.911 29.7769 209.108C29.7769 210.306 30.7475 211.276 31.9448 211.276Z" fill="white"/>
<path d="M46.7266 211.276C47.9239 211.276 48.8945 210.306 48.8945 209.108C48.8945 207.911 47.9239 206.94 46.7266 206.94C45.5292 206.94 44.5586 207.911 44.5586 209.108C44.5586 210.306 45.5292 211.276 46.7266 211.276Z" fill="white"/>
<path d="M2.38183 226.058C3.57915 226.058 4.54978 225.087 4.54978 223.89C4.54978 222.692 3.57915 221.722 2.38183 221.722C1.1845 221.722 0.213867 222.692 0.213867 223.89C0.213867 225.087 1.1845 226.058 2.38183 226.058Z" fill="white"/>
<path d="M17.1636 226.058C18.3609 226.058 19.3315 225.087 19.3315 223.89C19.3315 222.692 18.3609 221.722 17.1636 221.722C15.9662 221.722 14.9956 222.692 14.9956 223.89C14.9956 225.087 15.9662 226.058 17.1636 226.058Z" fill="white"/>
<path d="M31.9448 226.058C33.1421 226.058 34.1128 225.087 34.1128 223.89C34.1128 222.692 33.1421 221.722 31.9448 221.722C30.7475 221.722 29.7769 222.692 29.7769 223.89C29.7769 225.087 30.7475 226.058 31.9448 226.058Z" fill="white"/>
<path d="M46.7266 226.058C47.9239 226.058 48.8945 225.087 48.8945 223.89C48.8945 222.692 47.9239 221.722 46.7266 221.722C45.5292 221.722 44.5586 222.692 44.5586 223.89C44.5586 225.087 45.5292 226.058 46.7266 226.058Z" fill="white"/>
<path d="M2.38183 240.839C3.57915 240.839 4.54978 239.868 4.54978 238.671C4.54978 237.474 3.57915 236.503 2.38183 236.503C1.1845 236.503 0.213867 237.474 0.213867 238.671C0.213867 239.868 1.1845 240.839 2.38183 240.839Z" fill="white"/>
<path d="M17.1636 240.839C18.3609 240.839 19.3315 239.868 19.3315 238.671C19.3315 237.474 18.3609 236.503 17.1636 236.503C15.9662 236.503 14.9956 237.474 14.9956 238.671C14.9956 239.868 15.9662 240.839 17.1636 240.839Z" fill="white"/>
<path d="M31.9448 240.839C33.1421 240.839 34.1128 239.868 34.1128 238.671C34.1128 237.474 33.1421 236.503 31.9448 236.503C30.7475 236.503 29.7769 237.474 29.7769 238.671C29.7769 239.868 30.7475 240.839 31.9448 240.839Z" fill="white"/>
<path d="M46.7266 240.839C47.9239 240.839 48.8945 239.868 48.8945 238.671C48.8945 237.474 47.9239 236.503 46.7266 236.503C45.5292 236.503 44.5586 237.474 44.5586 238.671C44.5586 239.868 45.5292 240.839 46.7266 240.839Z" fill="white"/>
<path d="M2.38183 255.621C3.57915 255.621 4.54978 254.65 4.54978 253.453C4.54978 252.255 3.57915 251.285 2.38183 251.285C1.1845 251.285 0.213867 252.255 0.213867 253.453C0.213867 254.65 1.1845 255.621 2.38183 255.621Z" fill="white"/>
<path d="M17.1636 255.621C18.3609 255.621 19.3315 254.65 19.3315 253.453C19.3315 252.255 18.3609 251.285 17.1636 251.285C15.9662 251.285 14.9956 252.255 14.9956 253.453C14.9956 254.65 15.9662 255.621 17.1636 255.621Z" fill="white"/>
<path d="M31.9448 255.621C33.1421 255.621 34.1128 254.65 34.1128 253.453C34.1128 252.255 33.1421 251.285 31.9448 251.285C30.7475 251.285 29.7769 252.255 29.7769 253.453C29.7769 254.65 30.7475 255.621 31.9448 255.621Z" fill="white"/>
<path d="M46.7266 255.621C47.9239 255.621 48.8945 254.65 48.8945 253.453C48.8945 252.255 47.9239 251.285 46.7266 251.285C45.5292 251.285 44.5586 252.255 44.5586 253.453C44.5586 254.65 45.5292 255.621 46.7266 255.621Z" fill="white"/>
<path d="M2.38183 270.402C3.57915 270.402 4.54978 269.431 4.54978 268.234C4.54978 267.037 3.57915 266.066 2.38183 266.066C1.1845 266.066 0.213867 267.037 0.213867 268.234C0.213867 269.431 1.1845 270.402 2.38183 270.402Z" fill="white"/>
<path d="M17.1636 270.402C18.3609 270.402 19.3315 269.431 19.3315 268.234C19.3315 267.037 18.3609 266.066 17.1636 266.066C15.9662 266.066 14.9956 267.037 14.9956 268.234C14.9956 269.431 15.9662 270.402 17.1636 270.402Z" fill="white"/>
<path d="M31.9448 270.402C33.1421 270.402 34.1128 269.431 34.1128 268.234C34.1128 267.037 33.1421 266.066 31.9448 266.066C30.7475 266.066 29.7769 267.037 29.7769 268.234C29.7769 269.431 30.7475 270.402 31.9448 270.402Z" fill="white"/>
<path d="M46.7266 270.402C47.9239 270.402 48.8945 269.431 48.8945 268.234C48.8945 267.037 47.9239 266.066 46.7266 266.066C45.5292 266.066 44.5586 267.037 44.5586 268.234C44.5586 269.431 45.5292 270.402 46.7266 270.402Z" fill="white"/>
<path d="M2.38183 285.184C3.57915 285.184 4.54978 284.213 4.54978 283.016C4.54978 281.818 3.57915 280.848 2.38183 280.848C1.1845 280.848 0.213867 281.818 0.213867 283.016C0.213867 284.213 1.1845 285.184 2.38183 285.184Z" fill="white"/>
<path d="M17.1636 285.184C18.3609 285.184 19.3315 284.213 19.3315 283.016C19.3315 281.818 18.3609 280.848 17.1636 280.848C15.9662 280.848 14.9956 281.818 14.9956 283.016C14.9956 284.213 15.9662 285.184 17.1636 285.184Z" fill="white"/>
<path d="M31.9448 285.184C33.1421 285.184 34.1128 284.213 34.1128 283.016C34.1128 281.818 33.1421 280.848 31.9448 280.848C30.7475 280.848 29.7769 281.818 29.7769 283.016C29.7769 284.213 30.7475 285.184 31.9448 285.184Z" fill="white"/>
<path d="M46.7266 285.184C47.9239 285.184 48.8945 284.213 48.8945 283.016C48.8945 281.818 47.9239 280.848 46.7266 280.848C45.5292 280.848 44.5586 281.818 44.5586 283.016C44.5586 284.213 45.5292 285.184 46.7266 285.184Z" fill="white"/>
<path d="M2.38183 299.965C3.57915 299.965 4.54978 298.994 4.54978 297.797C4.54978 296.6 3.57915 295.629 2.38183 295.629C1.1845 295.629 0.213867 296.6 0.213867 297.797C0.213867 298.994 1.1845 299.965 2.38183 299.965Z" fill="white"/>
<path d="M17.1636 299.965C18.3609 299.965 19.3315 298.994 19.3315 297.797C19.3315 296.6 18.3609 295.629 17.1636 295.629C15.9662 295.629 14.9956 296.6 14.9956 297.797C14.9956 298.994 15.9662 299.965 17.1636 299.965Z" fill="white"/>
<path d="M31.9448 299.965C33.1421 299.965 34.1128 298.994 34.1128 297.797C34.1128 296.6 33.1421 295.629 31.9448 295.629C30.7475 295.629 29.7769 296.6 29.7769 297.797C29.7769 298.994 30.7475 299.965 31.9448 299.965Z" fill="white"/>
<path d="M46.7266 299.965C47.9239 299.965 48.8945 298.994 48.8945 297.797C48.8945 296.6 47.9239 295.629 46.7266 295.629C45.5292 295.629 44.5586 296.6 44.5586 297.797C44.5586 298.994 45.5292 299.965 46.7266 299.965Z" fill="white"/>
<path d="M2.38183 314.746C3.57915 314.746 4.54978 313.776 4.54978 312.578C4.54978 311.381 3.57915 310.41 2.38183 310.41C1.1845 310.41 0.213867 311.381 0.213867 312.578C0.213867 313.776 1.1845 314.746 2.38183 314.746Z" fill="white"/>
<path d="M17.1636 314.746C18.3609 314.746 19.3315 313.776 19.3315 312.578C19.3315 311.381 18.3609 310.41 17.1636 310.41C15.9662 310.41 14.9956 311.381 14.9956 312.578C14.9956 313.776 15.9662 314.746 17.1636 314.746Z" fill="white"/>
<path d="M31.9448 314.746C33.1421 314.746 34.1128 313.776 34.1128 312.578C34.1128 311.381 33.1421 310.41 31.9448 310.41C30.7475 310.41 29.7769 311.381 29.7769 312.578C29.7769 313.776 30.7475 314.746 31.9448 314.746Z" fill="white"/>
<path d="M46.7266 314.746C47.9239 314.746 48.8945 313.776 48.8945 312.578C48.8945 311.381 47.9239 310.41 46.7266 310.41C45.5292 310.41 44.5586 311.381 44.5586 312.578C44.5586 313.776 45.5292 314.746 46.7266 314.746Z" fill="white"/>
<path d="M2.38183 329.528C3.57915 329.528 4.54978 328.557 4.54978 327.36C4.54978 326.163 3.57915 325.192 2.38183 325.192C1.1845 325.192 0.213867 326.163 0.213867 327.36C0.213867 328.557 1.1845 329.528 2.38183 329.528Z" fill="white"/>
<path d="M17.1636 329.528C18.3609 329.528 19.3315 328.557 19.3315 327.36C19.3315 326.163 18.3609 325.192 17.1636 325.192C15.9662 325.192 14.9956 326.163 14.9956 327.36C14.9956 328.557 15.9662 329.528 17.1636 329.528Z" fill="white"/>
<path d="M31.9448 329.528C33.1421 329.528 34.1128 328.557 34.1128 327.36C34.1128 326.163 33.1421 325.192 31.9448 325.192C30.7475 325.192 29.7769 326.163 29.7769 327.36C29.7769 328.557 30.7475 329.528 31.9448 329.528Z" fill="white"/>
<path d="M46.7266 329.528C47.9239 329.528 48.8945 328.557 48.8945 327.36C48.8945 326.163 47.9239 325.192 46.7266 325.192C45.5292 325.192 44.5586 326.163 44.5586 327.36C44.5586 328.557 45.5292 329.528 46.7266 329.528Z" fill="white"/>
<path d="M2.38183 344.309C3.57915 344.309 4.54978 343.339 4.54978 342.141C4.54978 340.944 3.57915 339.973 2.38183 339.973C1.1845 339.973 0.213867 340.944 0.213867 342.141C0.213867 343.339 1.1845 344.309 2.38183 344.309Z" fill="white"/>
<path d="M17.1636 344.309C18.3609 344.309 19.3315 343.339 19.3315 342.141C19.3315 340.944 18.3609 339.973 17.1636 339.973C15.9662 339.973 14.9956 340.944 14.9956 342.141C14.9956 343.339 15.9662 344.309 17.1636 344.309Z" fill="white"/>
<path d="M31.9448 344.309C33.1421 344.309 34.1128 343.339 34.1128 342.141C34.1128 340.944 33.1421 339.973 31.9448 339.973C30.7475 339.973 29.7769 340.944 29.7769 342.141C29.7769 343.339 30.7475 344.309 31.9448 344.309Z" fill="white"/>
<path d="M46.7266 344.309C47.9239 344.309 48.8945 343.339 48.8945 342.141C48.8945 340.944 47.9239 339.973 46.7266 339.973C45.5292 339.973 44.5586 340.944 44.5586 342.141C44.5586 343.339 45.5292 344.309 46.7266 344.309Z" fill="white"/>
<path d="M2.38183 359.091C3.57915 359.091 4.54978 358.12 4.54978 356.923C4.54978 355.726 3.57915 354.755 2.38183 354.755C1.1845 354.755 0.213867 355.726 0.213867 356.923C0.213867 358.12 1.1845 359.091 2.38183 359.091Z" fill="white"/>
<path d="M17.1636 359.091C18.3609 359.091 19.3315 358.12 19.3315 356.923C19.3315 355.726 18.3609 354.755 17.1636 354.755C15.9662 354.755 14.9956 355.726 14.9956 356.923C14.9956 358.12 15.9662 359.091 17.1636 359.091Z" fill="white"/>
<path d="M31.9448 359.091C33.1421 359.091 34.1128 358.12 34.1128 356.923C34.1128 355.726 33.1421 354.755 31.9448 354.755C30.7475 354.755 29.7769 355.726 29.7769 356.923C29.7769 358.12 30.7475 359.091 31.9448 359.091Z" fill="white"/>
<path d="M46.7266 359.091C47.9239 359.091 48.8945 358.12 48.8945 356.923C48.8945 355.726 47.9239 354.755 46.7266 354.755C45.5292 354.755 44.5586 355.726 44.5586 356.923C44.5586 358.12 45.5292 359.091 46.7266 359.091Z" fill="white"/>
<path d="M2.38183 373.872C3.57915 373.872 4.54978 372.902 4.54978 371.704C4.54978 370.507 3.57915 369.536 2.38183 369.536C1.1845 369.536 0.213867 370.507 0.213867 371.704C0.213867 372.902 1.1845 373.872 2.38183 373.872Z" fill="white"/>
<path d="M17.1636 373.872C18.3609 373.872 19.3315 372.902 19.3315 371.704C19.3315 370.507 18.3609 369.536 17.1636 369.536C15.9662 369.536 14.9956 370.507 14.9956 371.704C14.9956 372.902 15.9662 373.872 17.1636 373.872Z" fill="white"/>
<path d="M31.9448 373.872C33.1421 373.872 34.1128 372.902 34.1128 371.704C34.1128 370.507 33.1421 369.536 31.9448 369.536C30.7475 369.536 29.7769 370.507 29.7769 371.704C29.7769 372.902 30.7475 373.872 31.9448 373.872Z" fill="white"/>
<path d="M46.7266 373.872C47.9239 373.872 48.8945 372.902 48.8945 371.704C48.8945 370.507 47.9239 369.536 46.7266 369.536C45.5292 369.536 44.5586 370.507 44.5586 371.704C44.5586 372.902 45.5292 373.872 46.7266 373.872Z" fill="white"/>
</svg>
