<svg width="6232" height="5155" viewBox="0 0 6232 5155" fill="none" xmlns="http://www.w3.org/2000/svg">
<g opacity="0.5">
<path d="M506.428 4897.53C451.242 4656.07 635.398 4424.79 840.822 4361.69C1046.25 4298.59 1266.78 4351.87 1481.48 4377.39C1695.57 4402.98 1932.34 4391.59 2089.42 4229.19C2290.23 4021.47 2296.43 3634.1 2505.37 3436.35C2667.82 3282.06 2904.93 3294.71 3099.28 3371.52C3209.07 3415.36 3308.41 3498.38 3414.96 3552.09C3898.18 3795.88 4000.76 4398.64 4392.24 4443.26C4815.72 4492.09 5011.7 4233.14 5070.72 4061.98C5145.55 3843.71 5248.18 3287.3 4796.98 2963.1C4613.69 2830.98 4431.15 2689.29 4285.69 2504.52C4068.17 2227.66 4015.15 1771.47 4218.74 1497.03C4358.28 1308.99 4596.28 1217.94 4678.61 988.568C4733.92 833.9 4701.64 647.341 4620.85 503.029C4539.43 358.792 4415.81 251.673 4285.52 167.961" stroke="white" stroke-width="3" stroke-miterlimit="10"/>
<path d="M517.201 4908.65C469.234 4659.03 650.864 4417.12 861.901 4348.24C1068.05 4280.67 1291.6 4332.86 1507 4364.14C1719.73 4394.27 1951.32 4392.25 2109.31 4242.87C2311.48 4051.77 2330.46 3681.84 2539.12 3487.04C2705.29 3332.32 2936.8 3329.58 3134.04 3393.65C3247.41 3430.5 3352.98 3507.67 3464.59 3561.5C3936.6 3790.58 4042.46 4373.26 4425.79 4418.11C4837.83 4466.11 5034.03 4219.54 5095.87 4050.97C5174.4 3837.36 5271.36 3302.05 4843.03 2979.5C4666.57 2846.57 4489.81 2700.55 4346.39 2517C4134.7 2246.74 4081.08 1806.66 4271.88 1535.93C4403.96 1348.79 4631.79 1251.65 4714.46 1025.15C4771.01 870.339 4744.58 685.272 4671.69 538.561C4598.01 390.486 4482.31 275.858 4355.52 184.436" stroke="white" stroke-width="3" stroke-miterlimit="10"/>
<path d="M527.973 4919.77C487.226 4662 666.33 4409.44 883.6 4334.72C1090.57 4263.41 1317.76 4314.43 1533.04 4350.1C1743.81 4384.84 1970.21 4392.19 2129.66 4255.04C2332.46 4079.91 2364.94 3728.08 2573.85 3535.44C2743.67 3379.55 2970.36 3362.79 3169.87 3414.19C3286.82 3444.05 3399.24 3515.29 3515.29 3569.33C3975.65 3785.21 4085.24 4346.28 4460.32 4390.66C4860.3 4437.91 5056.71 4203.71 5122 4037.65C5203.7 3829.5 5295.43 3313.78 4889.98 2992.89C4720.27 2858.42 4548.76 2708.86 4407.91 2525.73C4202.66 2262 4147.82 1838.12 4325.83 1571.1C4450.46 1384.84 4668.74 1281.54 4751.04 1057.28C4808.75 901.596 4788.25 718.742 4722.73 570.425C4656.16 418.585 4547.77 296.523 4425.09 197.316" stroke="white" stroke-width="3" stroke-miterlimit="10"/>
<path d="M538.747 4930.89C505.305 4665.69 681.883 4402.48 904.68 4321.27C1112.38 4245.49 1342.59 4295.43 1559.18 4336.77C1768.06 4376.85 1989.73 4392.06 2150.18 4268.65C2354.33 4110.13 2398.97 3775.82 2608.23 3586.06C2781.68 3429.01 3002.85 3397.59 3205.88 3436.17C3326.4 3459.03 3445.06 3524.43 3566.25 3579.32C4014.96 3781.99 4128.9 4321.39 4495.19 4366.08C4883.12 4412.58 5079.83 4191.48 5148.48 4027.2C5233.88 3823.72 5320.47 3328.3 4937.36 3009.86C4773.77 2873.94 4609.38 2720.61 4469.32 2538.85C4271.05 2280.85 4214.45 1873.96 4379.76 1611.37C4496.85 1425.28 4704.95 1315.9 4787.69 1095.23C4846.55 938.679 4831.99 758.036 4774.37 607.32C4714.99 452.435 4614.44 322.145 4495.26 215.228" stroke="white" stroke-width="3" stroke-miterlimit="10"/>
<path d="M549.519 4942.01C523.297 4668.65 697.434 4395.53 925.759 4307.82C1134.27 4228.3 1367.42 4276.43 1584.61 4322.81C1791.51 4367.49 2008.62 4392 2169.37 4281.69C2374.25 4139.86 2432.38 3823.64 2641.89 3636.04C2818.37 3477.89 3035.25 3431.67 3240.55 3457.58C3364.66 3473.45 3490.17 3532.93 3615.79 3588.01C4053.02 3778.92 4171.23 4295.93 4528.65 4340.22C4905.14 4385.88 5101.44 4177.24 5173.54 4015.46C5262.12 3817.44 5343.39 3340.9 4983.94 3025.48C4827.11 2888.02 4667.87 2730.43 4530.55 2550.53C4338.65 2298.34 4280.91 1908.36 4433.43 1649.48C4542.98 1463.56 4741.62 1348.74 4824.07 1131.02C4884.09 973.605 4875.38 794.456 4825.21 642.852C4772.86 483.484 4679.71 346.479 4564.64 231.778" stroke="white" stroke-width="3" stroke-miterlimit="10"/>
<path d="M560.913 4953.06C541.91 4671.54 714.142 4387.7 948.08 4294.22C1156.7 4210.31 1394.11 4257.2 1611.98 4309.34C1816.92 4358.63 2029.55 4393.16 2191.13 4295.15C2397.35 4169.94 2468.27 3871.16 2677.51 3686.51C2857.62 3527.21 3069.52 3465.52 3277.26 3480.2C3405.57 3489.01 3536.69 3542.71 3667.36 3597.93C4091.79 3776.49 4214.27 4271.11 4563.44 4314.92C4927.87 4359.84 5124.38 4163.56 5200.55 4004.23C5292.3 3811.67 5368.87 3353.91 5031.86 3041.66C4881.68 2901.96 4728.4 2741.47 4593.03 2562.06C4407.57 2316.4 4348.53 1941.9 4488.43 1688.17C4590.52 1503.13 4778.99 1382.23 4861.79 1167.39C4922.96 1009.1 4920.1 831.446 4877.3 678.237C4832.06 515.105 4746.21 370.665 4635.25 248.179" stroke="white" stroke-width="3" stroke-miterlimit="10"/>
<path d="M571.685 4964.18C559.902 4674.51 729.694 4380.75 969.158 4280.77C1178.59 4193.11 1418.94 4238.2 1637.41 4295.37C1840.37 4349.28 2047.82 4393.17 2210.85 4307.39C2418.43 4198.8 2502.22 3918.19 2711.62 3734.98C2895.38 3574.51 3102.91 3497.3 3312.39 3500.09C3444.27 3501.91 3581.63 3549.77 3717.98 3605.04C4129.77 3772.71 4257.58 4243.35 4597.89 4286.75C4950.26 4330.91 5146.98 4147.02 5226.6 3990.18C5321.43 3802.36 5393.31 3363.41 5078.72 3054.32C4934.67 2913.16 4787.88 2748.98 4654.55 2570.8C4475.53 2331.66 4415.27 1973.35 4542.39 1723.33C4636.94 1538.46 4815.94 1412.12 4898.45 1200.23C4960.16 1041.15 4963.77 864.915 4928.96 710.025C4891.46 543.055 4812.82 390.461 4705.44 260.984" stroke="white" stroke-width="3" stroke-miterlimit="10"/>
<path d="M582.458 4975.3C577.98 4678.2 745.246 4373.79 990.238 4267.32C1200.48 4175.92 1444.3 4218.4 1662.92 4282.12C1863.83 4339.92 2066.8 4393.83 2230.75 4321.07C2439.05 4229.18 2536.25 3965.94 2745.37 3785.67C2932.77 3624.04 3135.31 3531.38 3347.15 3522.22C3483.15 3516.25 3626.82 3558.98 3767.61 3614.45C4166.76 3771.22 4299.29 4217.96 4631.44 4261.6C4971.75 4305.01 5168.77 4134.21 5251.75 3979.17C5349.66 3796.09 5416.76 3375.21 5125.39 3070.66C4988 2927.24 4847.17 2760.16 4715.25 2583.27C4541.98 2350.02 4480.49 2007.91 4595.61 1762.96C4682 1578.33 4851.53 1446.55 4934.39 1237.54C4997.26 1077.59 5007.33 902.773 4979.36 747.07C4948.88 575.616 4877.64 416.307 4773.75 279.12" stroke="white" stroke-width="3" stroke-miterlimit="10"/>
<path d="M593.23 4986.42C595.972 4681.16 760.798 4366.83 1011.94 4253.79C1223 4158.65 1469.75 4199.33 1689.68 4268.73C1888.61 4331.14 2086.93 4393.63 2251.89 4334.61C2461.54 4259.33 2571.6 4014.25 2780.98 3836.15C2972.11 3674.08 3170.2 3565.16 3383.86 3544.85C3523.43 3531.89 3673.35 3568.76 3819.18 3624.36C4205.17 3771.03 4343.03 4193.79 4666.85 4236.24C4995.72 4278.81 5192.33 4120.47 5278.76 3967.93C5379.22 3790.38 5442.7 3386.71 5173.31 3086.84C5041.87 2940.53 4907.7 2771.2 4777.82 2595.52C4610.99 2368.8 4548.1 2041.44 4650.61 1801.64C4729.37 1616.46 4889.53 1479.96 4972.02 1273.18C5036.05 1112.37 5052.05 939.764 5031.98 781.662C5009.23 606.37 4944.68 439.7 4844.9 294.729" stroke="white" stroke-width="3" stroke-miterlimit="10"/>
<path d="M604.002 4997.54C613.964 4684.13 776.349 4359.88 1033.02 4240.34C1244.89 4141.46 1494.58 4180.32 1715.1 4254.76C1912.07 4321.78 2105.82 4393.57 2271.7 4347.57C2482.07 4288.98 2605.55 4061.28 2815.27 3886.05C3010.04 3722.82 3203.05 3597.73 3419.16 3566.18C3562.84 3545.44 3718.54 3577.98 3869.35 3632.99C4242.78 3769.47 4385.27 4167.61 4700.93 4210.3C5017.74 4252.12 5214.57 4106.15 5304.36 3955.4C5407.9 3782.59 5467.05 3395.49 5219.8 3101.74C5095.03 2953.17 4966.2 2781.02 4838.88 2605.77C4678.5 2385.57 4613.69 2073.76 4704.11 1838.32C4775.33 1653.31 4926.02 1511.37 5008.24 1307.54C5073.5 1146.58 5095.89 974.671 5082.57 815.036C5067.47 635.187 5010.3 461.803 4914.02 309.12" stroke="white" stroke-width="3" stroke-miterlimit="10"/>
<path d="M615.396 5008.58C632.577 4687.02 793.229 4353.49 1054.72 4226.82C1267.41 4124.19 1520.56 4160.45 1741.86 4241.36C1936.77 4312.28 2125.42 4394.15 2292.22 4361.18C2503.85 4318.49 2640.28 4109.67 2849.56 3935.96C3047.97 3771.56 3235.9 3630.29 3454.45 3587.51C3601.63 3559.06 3763.65 3586.47 3919.51 3641.61C4279.86 3768.71 4428.14 4141.35 4734.93 4183.64C5039.68 4224.71 5236.1 4091.19 5330.58 3942.8C5437.21 3774.73 5492.03 3404.19 5267.46 3115.76C5149.27 2964.23 5026.47 2789.9 4901.19 2615.86C4747.26 2402.19 4680.42 2105.22 4758.94 1875.57C4822.54 1690 4963.22 1543.41 5045.78 1342.46C5112.2 1180.64 5141.06 1010.15 5135.19 849.627C5127.83 665.94 5077.34 485.195 4985.18 324.728" stroke="white" stroke-width="3" stroke-miterlimit="10"/>
<path d="M626.169 5019.7C650.655 4690.7 808.78 4346.54 1075.8 4213.37C1289.3 4106.99 1545.39 4141.45 1767.29 4227.39C1960.84 4302.85 2144.31 4394.09 2311.95 4373.42C2524.3 4347.43 2674.23 4156.7 2883.76 3985.14C3085.9 3820.3 3269.29 3662.06 3489.75 3608.85C3640.96 3571.89 3808.22 3595.76 3969.76 3650.95C4317.02 3768.67 4470.47 4115.89 4769.09 4158.42C5062.41 4198.66 5258.42 4077.59 5356.35 3931.71C5465.52 3769.17 5517.71 3413.53 5314.13 3132.09C5202.52 2977.59 5085.76 2801.08 4961.89 2628.34C4813.78 2421.27 4745.47 2138.33 4812.08 1914.47C4867.43 1728.43 4999.27 1576.33 5081.63 1379.05C5149.21 1216.36 5184.54 1047.29 5185.42 885.233C5186.32 696.915 5142.61 509.528 5053.93 341.351" stroke="white" stroke-width="3" stroke-miterlimit="10"/>
<path d="M636.941 5030.82C668.646 4693.67 824.331 4339.58 1097.49 4199.84C1311.19 4089.8 1571.37 4121.58 1793.42 4214.07C1984.92 4293.42 2163.91 4394.68 2332.46 4387.03C2546.17 4377.65 2708.88 4204.37 2918.13 4035.76C3123.91 3869.76 3302.23 3695.35 3525.13 3630.9C3679.83 3586.23 3853.5 3605.69 4020.01 3660.29C4354.27 3769.34 4512.88 4091.15 4803.18 4132.48C5084.52 4172.68 5280.03 4063.34 5382.03 3919.9C5494.29 3762.1 5543.3 3422.16 5360.72 3147.71C5255.59 2989.51 5144.34 2811.62 5023.04 2639.3C4881.38 2438.76 4810.43 2170.72 4865.75 1952.59C4912.85 1766.07 5035.93 1609.17 5118.02 1414.84C5186.76 1251.28 5229.17 1083.56 5236.17 920.046C5244.81 727.889 5207.78 533.142 5123.22 357.18" stroke="white" stroke-width="3" stroke-miterlimit="10"/>
<path d="M647.715 5041.94C686.64 4696.64 840.591 4333.27 1118.57 4186.39C1333.17 4073.32 1596.12 4101.86 1819.47 4200.03C2008.91 4283.27 2182.8 4394.62 2352.9 4399.92C2567.33 4407.23 2743.53 4252.04 2953.04 4085.59C3162.54 3919.15 3335.62 3727.12 3561.05 3652.16C3719.24 3599.78 3899.32 3614.83 4070.8 3668.84C4391.43 3769.3 4555.83 4065.61 4837.88 4106.46C5107.16 4145.92 5302.89 4048.95 5408.34 3908.02C5523.06 3755.03 5569.97 3429.2 5408.55 3163.17C5310.53 3001.21 5204.79 2821.94 5085.52 2650.83C4950.22 2456.1 4876.64 2202.97 4920.66 1990.55C4959.44 1802.84 5073.22 1641.94 5155.56 1449.77C5225.46 1285.34 5274.34 1119.04 5288.8 954.637C5305.79 758.569 5274.82 556.535 5193.76 372.863" stroke="white" stroke-width="3" stroke-miterlimit="10"/>
<path d="M658.487 5053.06C704.632 4699.6 856.228 4327.03 1139.65 4172.94C1355.07 4056.13 1621.48 4082.06 1844.98 4186.78C2032.46 4274.63 2201.7 4394.56 2372.79 4413.6C2588.49 4436.81 2777.64 4300.51 2986.79 4136.29C3199.94 3968.68 3367.85 3759.76 3595.81 3674.28C3758.03 3613.4 3943.98 3624.84 4121.04 3678.18C4428.68 3769.97 4598.78 4040.07 4871.96 4080.52C5129.19 4119.22 5324.5 4034.71 5434.02 3896.21C5551.21 3748.04 5596.64 3436.24 5455.05 3178.07C5364.14 3012.34 5263.28 2831.75 5146.68 2661.79C5017.2 2473.67 4940.89 2234.72 4974.25 2027.95C5004.16 1839.83 5109.8 1674.06 5191.24 1484.92C5262.29 1319.62 5318.27 1154.66 5338.85 988.805C5364.11 788.106 5339.92 579.43 5262.34 388.047" stroke="white" stroke-width="3" stroke-miterlimit="10"/>
<path d="M669.88 5064.11C723.33 4703.21 873.022 4319.93 1161.97 4159.35C1378.29 4039.51 1647.55 4062.91 1872.27 4172.59C2058.31 4264.26 2222.45 4394.28 2394.47 4426.34C2610.89 4466.25 2813.53 4348.03 3022.85 4185.25C3239.73 4017.2 3402.48 3791.39 3632.97 3695.39C3798.6 3626.08 3990.5 3634.62 4173.07 3686.58C4467.17 3770.5 4642.89 4013.67 4907.91 4054.36C5153.07 4092.31 5348.6 4020.17 5462.19 3884.1C5582.46 3740.67 5626.41 3442.91 5504.12 3193.38C5420.86 3023.1 5324.97 2841.92 5209.78 2673.25C5086.75 2491.66 5007.1 2266.96 5029.87 2066.56C5050.82 1877.31 5148.42 1707.4 5229.58 1521.21C5301.87 1355.77 5364.23 1191.5 5392.18 1024.04C5425.8 819.43 5407.66 603.468 5334.2 404.301" stroke="white" stroke-width="3" stroke-miterlimit="10"/>
<path d="M680.653 5075.23C741.323 4706.18 888.659 4313.69 1183.05 4145.89C1400.18 4022.31 1672.92 4043.12 1897.78 4159.34C2081.77 4254.91 2240.81 4395.01 2413.66 4439.38C2631.34 4495.18 2846.94 4395.85 3055.89 4235.31C3276.41 4066.09 3434.01 3823.38 3667.03 3716.87C3836.15 3639.85 4034.54 3644.7 4221.99 3695.35C4502.56 3771.39 4683.89 3987.64 4940.75 4028.57C5174.39 4064.97 5368.89 4005.35 5486.63 3872.44C5609.36 3733.82 5652.99 3449.23 5550.08 3209.07C5475.09 3034.16 5382.93 2852.53 5270.31 2684.29C5153.1 2509.29 5070.73 2298.78 5082.84 2104.03C5094.84 1913.66 5184.38 1739.6 5265.26 1556.36C5338.71 1390.05 5408.24 1227.85 5442.32 1058.93C5484.29 850.405 5472.22 627.155 5402.87 420.204" stroke="white" stroke-width="3" stroke-miterlimit="10"/>
<path d="M691.426 5086.35C759.315 4709.15 904.918 4307.38 1204.13 4132.44C1422.07 4005.12 1698.28 4023.32 1923.3 4146.1C2105.84 4245.48 2259.7 4394.95 2433.56 4453.06C2652.5 4524.76 2881.68 4444.24 3090.26 4285.93C3314.51 4116.27 3466.86 3855.95 3702.41 3738.93C3874.94 3653.48 4079.28 3655.43 4272.24 3704.69C4539.89 3772.79 4726.84 3962.1 4974.83 4002.63C5196.41 4038.27 5390.5 3991.11 5512.31 3860.63C5637.42 3726.11 5681.44 3455.33 5596.67 3224.68C5530.57 3045.07 5442.13 2863 5331.54 2695.97C5220.16 2527.58 5134.45 2331.33 5136.6 2142.86C5138.49 1952.24 5221.13 1773.16 5301.73 1592.87C5376.34 1425.69 5452.96 1264.84 5493.17 1094.46C5543.49 882.025 5538.1 651.415 5472.24 436.753" stroke="white" stroke-width="3" stroke-miterlimit="10"/>
<path d="M702.198 5097.47C777.928 4712.04 920.469 4300.42 1225.83 4118.92C1444.67 3988.57 1724.18 4002.73 1949.97 4131.98C2130.46 4235.25 2279.84 4394.75 2454.61 4465.87C2674.28 4554.27 2916.95 4491.84 3125.79 4335.68C3353.77 4165.58 3500.87 3887.65 3739.03 3760.83C3914.97 3666.95 4125.35 3666.72 4323.73 3713.88C4577.93 3774.83 4770.41 3936.49 5010.24 3977.26C5220.38 4012.08 5413.36 3976.72 5539.33 3849.39C5666.9 3719.68 5712.45 3461.85 5644.5 3240.15C5587.91 3055.75 5501.96 2873.39 5394.02 2707.5C5289.09 2545.64 5198.79 2363.79 5191.51 2180.83C5183.83 1989.15 5258.41 1805.93 5339.36 1628.51C5415.13 1460.47 5498.92 1301.68 5545.79 1129.05C5604.47 912.703 5605.14 674.806 5543.4 452.36" stroke="white" stroke-width="3" stroke-miterlimit="10"/>
<path d="M712.971 5108.59C795.385 4715.8 936.728 4294.11 1247 4106.19C1467.27 3972.02 1749.63 3983.65 1975.56 4119.45C2154.62 4226.54 2298.9 4396.13 2474.59 4480.27C2695.61 4585.29 2951.15 4541.02 3159.54 4386.38C3391.86 4215.76 3533.1 3920.29 3773.8 3782.96C3953.14 3680.65 4169.65 3678.96 4373.45 3724.02C4614.11 3777.09 4812.2 3911.82 5043.79 3952.11C5241.87 3986.18 5434.44 3963.27 5564.47 3838.37C5695.04 3712.69 5742.31 3469.25 5691.17 3256.48C5645.42 3067.88 5560.71 2885.37 5455.26 2719.19C5356.15 2563.92 5261.89 2396.41 5245.18 2218.94C5226.77 2027.08 5295.79 1839.42 5375.66 1663.59C5453.29 1495.32 5542.93 1338.03 5596.55 1163.86C5664.29 944.25 5670.94 698.347 5612.07 468.264" stroke="white" stroke-width="3" stroke-miterlimit="10"/>
<path d="M724.365 5119.63C813.998 4718.69 953.693 4288.44 1268.7 4092.67C1489.96 3956.19 1775.61 3963.79 2002.23 4105.34C2179.23 4216.32 2318.41 4396 2495.56 4492.37C2717.3 4614.08 2986.34 4587.9 3194.99 4435.42C3431.03 4264.35 3566.41 3951.34 3810.25 3803.43C3993 3692.68 4215.55 3688.82 4424.77 3731.77C4652.6 3777.62 4856.23 3884.7 5079.03 3925.31C5265.05 3958.62 5457.75 3947.37 5591.85 3824.9C5724.88 3704.03 5775.1 3474.83 5739.45 3270.43C5705.69 3076.76 5621.6 2894.17 5517.57 2729.28C5424.37 2581.34 5326.14 2428.16 5300.01 2256.19C5270.87 2064.15 5332.99 1871.47 5413.21 1698.52C5491.99 1529.38 5588.72 1373.43 5649.09 1197.74C5725.18 974.212 5737.9 721.022 5683.14 483.155" stroke="white" stroke-width="3" stroke-miterlimit="10"/>
<path d="M735.138 5130.75C831.99 4721.65 969.245 4281.49 1289.69 4078.5C1511.77 3938.27 1800.89 3943.27 2027.66 4091.37C2203.22 4206.17 2337.22 4395.22 2515.37 4505.33C2738.38 4642.94 3020.28 4634.93 3228.65 4485.4C3468.34 4313.17 3598.55 3983.26 3845.01 3825.55C4031.16 3706.38 4259.93 3701.78 4474.4 3741.19C4688.87 3780.6 4898.02 3860.03 5112.49 3899.44C5286.46 3932 5478.65 3932.48 5616.91 3813.17C5752.32 3696.39 5806.37 3483.51 5785.41 3286.12C5764.45 3088.73 5679.56 2904.78 5578.19 2741.04C5490.81 2599.7 5388.08 2461.64 5353.06 2294.37C5312.56 2102.23 5369.03 1904.38 5448.97 1734.38C5528.91 1564.38 5632.82 1410.5 5699.23 1232.62C5783.76 1005.91 5802.45 744.709 5751.81 499.058" stroke="white" stroke-width="3" stroke-miterlimit="10"/>
</g>
</svg>
