<svg width="575" height="500" viewBox="0 0 575 500" fill="none" xmlns="http://www.w3.org/2000/svg">
<mask id="path-1-outside-1" maskUnits="userSpaceOnUse" x="0" y="0" width="575" height="500" fill="black">
<rect fill="white" width="575" height="500"/>
<path d="M25.5651 324.397C23.8858 318.527 23.0461 311.493 23.0461 303.294C23.0461 285.498 26.3115 271.382 32.8423 260.947C39.4664 250.418 52.0616 245.154 70.6278 245.154C94.512 245.154 108.6 256.614 112.892 279.535C114.757 289.411 115.69 301.85 115.69 316.85V331.385H87.9812V314.894C87.9812 299.241 87.1881 288.712 85.602 283.308C84.016 277.904 82.0567 274.317 79.7243 272.547C77.3918 270.776 74.3597 269.891 70.6278 269.891C63.6305 269.891 58.5925 272.453 55.5137 277.578C52.4348 282.703 50.8954 290.296 50.8954 300.359C50.8954 310.421 52.2948 317.782 55.0938 322.441C57.8927 327.099 61.3447 331.572 65.4498 335.858C69.5549 340.05 71.8407 342.426 72.3072 342.985L89.1007 360.735C109.253 381.792 119.329 405.365 119.329 431.453C119.329 452.696 116.017 468.955 109.393 480.229C102.862 491.41 90.3602 497 71.8873 497C49.5892 497 35.4546 487.217 29.4836 467.651C26.0316 456.656 24.3056 442.261 24.3056 424.465C24.3056 423.999 24.3056 423.533 24.3056 423.067V399.168H52.4348V424.186C52.4348 442.168 53.741 454.7 56.3533 461.781C58.9657 468.769 63.8171 472.263 70.9077 472.263C77.9983 472.263 82.8964 470.632 85.602 467.371C88.3077 464.017 89.847 458.939 90.2202 452.137C90.6867 445.336 90.92 437.696 90.92 429.217C90.92 412.166 83.4095 396.14 68.3886 381.14L52.2949 365.067C37.9271 350.346 29.0171 336.789 25.5651 324.397Z"/>
<path d="M147.951 245.573H176.64V306.788C178.599 299.986 182.658 294.163 188.815 289.318C194.973 284.38 202.717 281.911 212.046 281.911C221.469 281.911 229.12 285.731 234.997 293.371C240.875 300.918 243.814 312.145 243.814 327.053V494.205H215.125V329.429C215.125 314.241 209.387 306.648 197.912 306.648C191.661 306.648 186.529 308.884 182.518 313.356C178.599 317.735 176.64 324.258 176.64 332.923V494.205H147.951V245.573Z"/>
<path d="M281.252 284.566H309.941V494.205H281.252V284.566ZM281.252 239.004H310.081V265.279H281.252V239.004Z"/>
<path d="M377.188 306.788C379.054 299.986 383.113 294.163 389.364 289.318C395.708 284.38 403.545 281.911 412.875 281.911C422.298 281.911 429.901 285.731 435.686 293.371C441.563 300.918 444.502 312.145 444.502 327.053V494.205H415.814V327.193C415.814 320.111 414.181 314.801 410.915 311.26C407.65 307.719 403.125 305.949 397.34 305.949C391.556 305.949 386.751 307.952 382.926 311.959C379.101 315.965 377.188 321.975 377.188 329.988V494.205H348.499V284.566H377.188V306.788Z"/>
<path d="M478.162 349.554C478.162 323.093 482.92 304.691 492.437 294.349C499.9 286.15 510.91 282.05 525.464 282.05C546.549 282.05 559.797 291.135 565.209 309.303C568.194 319.552 569.687 333.389 569.687 350.812V390.364H506.991V432.152C506.991 450.32 508.437 461.641 511.329 466.113C514.222 470.586 518.793 472.822 525.044 472.822C531.295 472.822 535.447 470.213 537.499 464.995C539.645 459.778 540.765 454.141 540.858 448.084C540.951 441.935 540.998 436.764 540.998 432.571V415.66H569.127V424.605C569.127 446.873 567.541 462.48 564.369 471.424C561.29 480.369 556.579 486.844 550.234 490.851C543.89 494.764 536.007 496.721 526.583 496.721C517.254 496.721 509.743 495.556 504.052 493.227C498.454 490.804 493.976 487.636 490.617 483.723C487.352 479.81 484.46 473.567 481.941 464.995C479.422 456.423 478.162 442.634 478.162 423.626V349.554ZM540.998 344.243C540.998 329.336 540.438 320.344 539.319 317.27C538.292 314.195 536.94 311.493 535.26 309.164C533.581 306.834 530.549 305.67 526.164 305.67C517.767 305.67 512.449 309.21 510.21 316.291C507.971 323.279 506.851 332.923 506.851 345.221V370.937H540.998V344.243Z"/>
<path d="M3 10.1392H65.9799V28.7444H46.3596V200.518H24.0294V28.7444H3V10.1392Z"/>
<path d="M83.1633 38.2634H105.385V200.518H83.1633V38.2634ZM83.1633 3H105.494V23.3359H83.1633V3Z"/>
<path d="M157.473 55.1379C158.991 49.6572 161.99 45.1502 166.47 41.6166C170.951 38.011 176.407 36.2081 182.838 36.2081C194.257 36.2081 201.917 41.6887 205.819 52.6499C208.565 47.602 212.287 43.5997 216.984 40.6431C221.754 37.6864 227.21 36.2081 233.352 36.2081C241.952 36.2081 248.492 39.2729 252.973 45.4026C257.453 51.5322 259.693 60.5463 259.693 72.445V200.518H237.472V71.796C237.472 60.8348 233.136 55.3542 224.464 55.3542C214.636 55.3542 209.36 60.3661 208.637 70.3898V200.518H186.307V71.6878C186.307 60.7987 182.044 55.3542 173.516 55.3542C168.313 55.3542 164.338 57.0489 161.592 60.4382C158.846 63.7554 157.473 68.3346 157.473 74.1757V200.518H135.251V38.2634H157.473V55.1379Z"/>
<path d="M285.766 88.5623C285.766 68.0822 289.451 53.8398 296.822 45.8352C302.604 39.4893 311.131 36.3163 322.404 36.3163C338.737 36.3163 348.998 43.3474 353.19 57.4094C355.502 65.3419 356.659 76.0507 356.659 89.5359V120.148H308.096V152.491C308.096 166.553 309.216 175.315 311.456 178.776C313.696 182.237 317.237 183.968 322.079 183.968C326.921 183.968 330.137 181.949 331.727 177.911C333.389 173.872 334.256 169.509 334.328 164.822C334.401 160.063 334.437 156.06 334.437 152.815V139.727H356.225V146.65C356.225 163.885 354.996 175.964 352.539 182.886C350.155 189.809 346.505 194.821 341.591 197.922C336.677 200.951 330.571 202.465 323.272 202.465C316.045 202.465 310.228 201.564 305.819 199.761C301.483 197.886 298.015 195.434 295.413 192.405C292.884 189.377 290.644 184.545 288.692 177.911C286.741 171.276 285.766 160.603 285.766 145.892V88.5623ZM334.437 84.4519C334.437 72.9138 334.003 65.9548 333.136 63.5751C332.341 61.1954 331.293 59.1041 329.992 57.3012C328.692 55.4984 326.343 54.597 322.946 54.597C316.443 54.597 312.323 57.3373 310.589 62.8179C308.855 68.2264 307.987 75.6901 307.987 85.2091V105.112H334.437V84.4519Z"/>
<path d="M422.461 10.1392H485.441V28.7444H465.821V200.518H443.491V28.7444H422.461V10.1392Z"/>
<path d="M499.806 89.4277C499.806 63.1063 505.876 46.7006 518.017 40.2104C522.931 37.6143 528.64 36.3163 535.144 36.3163C552.127 36.3163 562.967 43.131 567.664 56.7604C570.555 65.3419 572 76.231 572 89.4277V146.866C572 169.654 568.929 184.617 562.786 191.756C556.643 198.896 547.755 202.465 536.12 202.465C519.137 202.465 508.334 195.254 503.709 180.831C501.107 172.538 499.806 161.216 499.806 146.866V89.4277ZM549.67 84.9927C549.67 69.5605 547.466 60.1858 543.057 56.8686C541.251 55.4984 538.902 54.8133 536.011 54.8133C530.158 54.8133 526.364 57.4455 524.63 62.7097C522.967 67.974 522.136 75.4017 522.136 84.9927V153.032C522.136 168.969 524.377 178.596 528.857 181.913C530.664 183.283 532.904 183.968 535.578 183.968C535.722 183.968 535.867 183.968 536.011 183.968C541.72 183.968 545.406 181.3 547.068 175.964C548.803 170.555 549.67 162.911 549.67 153.032V84.9927Z"/>
</mask>
<path d="M25.5651 324.397C23.8858 318.527 23.0461 311.493 23.0461 303.294C23.0461 285.498 26.3115 271.382 32.8423 260.947C39.4664 250.418 52.0616 245.154 70.6278 245.154C94.512 245.154 108.6 256.614 112.892 279.535C114.757 289.411 115.69 301.85 115.69 316.85V331.385H87.9812V314.894C87.9812 299.241 87.1881 288.712 85.602 283.308C84.016 277.904 82.0567 274.317 79.7243 272.547C77.3918 270.776 74.3597 269.891 70.6278 269.891C63.6305 269.891 58.5925 272.453 55.5137 277.578C52.4348 282.703 50.8954 290.296 50.8954 300.359C50.8954 310.421 52.2948 317.782 55.0938 322.441C57.8927 327.099 61.3447 331.572 65.4498 335.858C69.5549 340.05 71.8407 342.426 72.3072 342.985L89.1007 360.735C109.253 381.792 119.329 405.365 119.329 431.453C119.329 452.696 116.017 468.955 109.393 480.229C102.862 491.41 90.3602 497 71.8873 497C49.5892 497 35.4546 487.217 29.4836 467.651C26.0316 456.656 24.3056 442.261 24.3056 424.465C24.3056 423.999 24.3056 423.533 24.3056 423.067V399.168H52.4348V424.186C52.4348 442.168 53.741 454.7 56.3533 461.781C58.9657 468.769 63.8171 472.263 70.9077 472.263C77.9983 472.263 82.8964 470.632 85.602 467.371C88.3077 464.017 89.847 458.939 90.2202 452.137C90.6867 445.336 90.92 437.696 90.92 429.217C90.92 412.166 83.4095 396.14 68.3886 381.14L52.2949 365.067C37.9271 350.346 29.0171 336.789 25.5651 324.397Z" stroke="url(#paint0_linear)" stroke-width="6" mask="url(#path-1-outside-1)"/>
<path d="M147.951 245.573H176.64V306.788C178.599 299.986 182.658 294.163 188.815 289.318C194.973 284.38 202.717 281.911 212.046 281.911C221.469 281.911 229.12 285.731 234.997 293.371C240.875 300.918 243.814 312.145 243.814 327.053V494.205H215.125V329.429C215.125 314.241 209.387 306.648 197.912 306.648C191.661 306.648 186.529 308.884 182.518 313.356C178.599 317.735 176.64 324.258 176.64 332.923V494.205H147.951V245.573Z" stroke="url(#paint1_linear)" stroke-width="6" mask="url(#path-1-outside-1)"/>
<path d="M281.252 284.566H309.941V494.205H281.252V284.566ZM281.252 239.004H310.081V265.279H281.252V239.004Z" stroke="url(#paint2_linear)" stroke-width="6" mask="url(#path-1-outside-1)"/>
<path d="M377.188 306.788C379.054 299.986 383.113 294.163 389.364 289.318C395.708 284.38 403.545 281.911 412.875 281.911C422.298 281.911 429.901 285.731 435.686 293.371C441.563 300.918 444.502 312.145 444.502 327.053V494.205H415.814V327.193C415.814 320.111 414.181 314.801 410.915 311.26C407.65 307.719 403.125 305.949 397.34 305.949C391.556 305.949 386.751 307.952 382.926 311.959C379.101 315.965 377.188 321.975 377.188 329.988V494.205H348.499V284.566H377.188V306.788Z" stroke="url(#paint3_linear)" stroke-width="6" mask="url(#path-1-outside-1)"/>
<path d="M478.162 349.554C478.162 323.093 482.92 304.691 492.437 294.349C499.9 286.15 510.91 282.05 525.464 282.05C546.549 282.05 559.797 291.135 565.209 309.303C568.194 319.552 569.687 333.389 569.687 350.812V390.364H506.991V432.152C506.991 450.32 508.437 461.641 511.329 466.113C514.222 470.586 518.793 472.822 525.044 472.822C531.295 472.822 535.447 470.213 537.499 464.995C539.645 459.778 540.765 454.141 540.858 448.084C540.951 441.935 540.998 436.764 540.998 432.571V415.66H569.127V424.605C569.127 446.873 567.541 462.48 564.369 471.424C561.29 480.369 556.579 486.844 550.234 490.851C543.89 494.764 536.007 496.721 526.583 496.721C517.254 496.721 509.743 495.556 504.052 493.227C498.454 490.804 493.976 487.636 490.617 483.723C487.352 479.81 484.46 473.567 481.941 464.995C479.422 456.423 478.162 442.634 478.162 423.626V349.554ZM540.998 344.243C540.998 329.336 540.438 320.344 539.319 317.27C538.292 314.195 536.94 311.493 535.26 309.164C533.581 306.834 530.549 305.67 526.164 305.67C517.767 305.67 512.449 309.21 510.21 316.291C507.971 323.279 506.851 332.923 506.851 345.221V370.937H540.998V344.243Z" stroke="url(#paint4_linear)" stroke-width="6" mask="url(#path-1-outside-1)"/>
<path d="M3 10.1392H65.9799V28.7444H46.3596V200.518H24.0294V28.7444H3V10.1392Z" stroke="url(#paint5_linear)" stroke-width="6" mask="url(#path-1-outside-1)"/>
<path d="M83.1633 38.2634H105.385V200.518H83.1633V38.2634ZM83.1633 3H105.494V23.3359H83.1633V3Z" stroke="url(#paint6_linear)" stroke-width="6" mask="url(#path-1-outside-1)"/>
<path d="M157.473 55.1379C158.991 49.6572 161.99 45.1502 166.47 41.6166C170.951 38.011 176.407 36.2081 182.838 36.2081C194.257 36.2081 201.917 41.6887 205.819 52.6499C208.565 47.602 212.287 43.5997 216.984 40.6431C221.754 37.6864 227.21 36.2081 233.352 36.2081C241.952 36.2081 248.492 39.2729 252.973 45.4026C257.453 51.5322 259.693 60.5463 259.693 72.445V200.518H237.472V71.796C237.472 60.8348 233.136 55.3542 224.464 55.3542C214.636 55.3542 209.36 60.3661 208.637 70.3898V200.518H186.307V71.6878C186.307 60.7987 182.044 55.3542 173.516 55.3542C168.313 55.3542 164.338 57.0489 161.592 60.4382C158.846 63.7554 157.473 68.3346 157.473 74.1757V200.518H135.251V38.2634H157.473V55.1379Z" stroke="url(#paint7_linear)" stroke-width="6" mask="url(#path-1-outside-1)"/>
<path d="M285.766 88.5623C285.766 68.0822 289.451 53.8398 296.822 45.8352C302.604 39.4893 311.131 36.3163 322.404 36.3163C338.737 36.3163 348.998 43.3474 353.19 57.4094C355.502 65.3419 356.659 76.0507 356.659 89.5359V120.148H308.096V152.491C308.096 166.553 309.216 175.315 311.456 178.776C313.696 182.237 317.237 183.968 322.079 183.968C326.921 183.968 330.137 181.949 331.727 177.911C333.389 173.872 334.256 169.509 334.328 164.822C334.401 160.063 334.437 156.06 334.437 152.815V139.727H356.225V146.65C356.225 163.885 354.996 175.964 352.539 182.886C350.155 189.809 346.505 194.821 341.591 197.922C336.677 200.951 330.571 202.465 323.272 202.465C316.045 202.465 310.228 201.564 305.819 199.761C301.483 197.886 298.015 195.434 295.413 192.405C292.884 189.377 290.644 184.545 288.692 177.911C286.741 171.276 285.766 160.603 285.766 145.892V88.5623ZM334.437 84.4519C334.437 72.9138 334.003 65.9548 333.136 63.5751C332.341 61.1954 331.293 59.1041 329.992 57.3012C328.692 55.4984 326.343 54.597 322.946 54.597C316.443 54.597 312.323 57.3373 310.589 62.8179C308.855 68.2264 307.987 75.6901 307.987 85.2091V105.112H334.437V84.4519Z" stroke="url(#paint8_linear)" stroke-width="6" mask="url(#path-1-outside-1)"/>
<path d="M422.461 10.1392H485.441V28.7444H465.821V200.518H443.491V28.7444H422.461V10.1392Z" stroke="url(#paint9_linear)" stroke-width="6" mask="url(#path-1-outside-1)"/>
<path d="M499.806 89.4277C499.806 63.1063 505.876 46.7006 518.017 40.2104C522.931 37.6143 528.64 36.3163 535.144 36.3163C552.127 36.3163 562.967 43.131 567.664 56.7604C570.555 65.3419 572 76.231 572 89.4277V146.866C572 169.654 568.929 184.617 562.786 191.756C556.643 198.896 547.755 202.465 536.12 202.465C519.137 202.465 508.334 195.254 503.709 180.831C501.107 172.538 499.806 161.216 499.806 146.866V89.4277ZM549.67 84.9927C549.67 69.5605 547.466 60.1858 543.057 56.8686C541.251 55.4984 538.902 54.8133 536.011 54.8133C530.158 54.8133 526.364 57.4455 524.63 62.7097C522.967 67.974 522.136 75.4017 522.136 84.9927V153.032C522.136 168.969 524.377 178.596 528.857 181.913C530.664 183.283 532.904 183.968 535.578 183.968C535.722 183.968 535.867 183.968 536.011 183.968C541.72 183.968 545.406 181.3 547.068 175.964C548.803 170.555 549.67 162.911 549.67 153.032V84.9927Z" stroke="url(#paint10_linear)" stroke-width="6" mask="url(#path-1-outside-1)"/>
<defs>
<linearGradient id="paint0_linear" x1="37.5" y1="21.5" x2="531.5" y2="520" gradientUnits="userSpaceOnUse">
<stop stop-color="#E9554D"/>
<stop offset="1" stop-color="#6D02EA"/>
</linearGradient>
<linearGradient id="paint1_linear" x1="37.5" y1="21.5" x2="531.5" y2="520" gradientUnits="userSpaceOnUse">
<stop stop-color="#E9554D"/>
<stop offset="1" stop-color="#6D02EA"/>
</linearGradient>
<linearGradient id="paint2_linear" x1="37.5" y1="21.5" x2="531.5" y2="520" gradientUnits="userSpaceOnUse">
<stop stop-color="#E9554D"/>
<stop offset="1" stop-color="#6D02EA"/>
</linearGradient>
<linearGradient id="paint3_linear" x1="37.5" y1="21.5" x2="531.5" y2="520" gradientUnits="userSpaceOnUse">
<stop stop-color="#E9554D"/>
<stop offset="1" stop-color="#6D02EA"/>
</linearGradient>
<linearGradient id="paint4_linear" x1="37.5" y1="21.5" x2="531.5" y2="520" gradientUnits="userSpaceOnUse">
<stop stop-color="#E9554D"/>
<stop offset="1" stop-color="#6D02EA"/>
</linearGradient>
<linearGradient id="paint5_linear" x1="37.5" y1="21.5" x2="531.5" y2="520" gradientUnits="userSpaceOnUse">
<stop stop-color="#E9554D"/>
<stop offset="1" stop-color="#6D02EA"/>
</linearGradient>
<linearGradient id="paint6_linear" x1="37.5" y1="21.5" x2="531.5" y2="520" gradientUnits="userSpaceOnUse">
<stop stop-color="#E9554D"/>
<stop offset="1" stop-color="#6D02EA"/>
</linearGradient>
<linearGradient id="paint7_linear" x1="37.5" y1="21.5" x2="531.5" y2="520" gradientUnits="userSpaceOnUse">
<stop stop-color="#E9554D"/>
<stop offset="1" stop-color="#6D02EA"/>
</linearGradient>
<linearGradient id="paint8_linear" x1="37.5" y1="21.5" x2="531.5" y2="520" gradientUnits="userSpaceOnUse">
<stop stop-color="#E9554D"/>
<stop offset="1" stop-color="#6D02EA"/>
</linearGradient>
<linearGradient id="paint9_linear" x1="37.5" y1="21.5" x2="531.5" y2="520" gradientUnits="userSpaceOnUse">
<stop stop-color="#E9554D"/>
<stop offset="1" stop-color="#6D02EA"/>
</linearGradient>
<linearGradient id="paint10_linear" x1="37.5" y1="21.5" x2="531.5" y2="520" gradientUnits="userSpaceOnUse">
<stop stop-color="#E9554D"/>
<stop offset="1" stop-color="#6D02EA"/>
</linearGradient>
</defs>
</svg>
