<svg width="255" height="232" viewBox="0 0 255 232" fill="none" xmlns="http://www.w3.org/2000/svg">
<g filter="url(#filter0_d)">
<path d="M83.8383 111.918C96.2 126.96 83.9489 150.488 96.3859 165.48C102.932 173.366 114.633 176.025 124.666 174.492C134.698 172.959 143.492 167.985 152.025 163.096C162.224 157.259 172.427 151.413 182.626 145.576C193.325 139.449 204.547 132.78 209.764 121.985C215.6 109.921 212.447 94.6905 204.324 82.9558C196.202 71.221 183.76 62.5925 170.708 56.0199C140.074 40.5779 88.6125 29.2127 57.0459 43.7297C43.8726 49.785 37.8335 61.2877 40.9584 75.7467C46.0766 99.467 70.4343 95.5938 83.8383 111.918Z" fill="url(#paint0_linear)"/>
</g>
<defs>
<filter id="filter0_d" x="0.508608" y="0.340158" width="253.856" height="231.048" filterUnits="userSpaceOnUse" color-interpolation-filters="sRGB">
<feFlood flood-opacity="0" result="BackgroundImageFix"/>
<feColorMatrix in="SourceAlpha" type="matrix" values="0 0 0 0 0 0 0 0 0 0 0 0 0 0 0 0 0 0 127 0"/>
<feOffset dx="8.43679" dy="10.546"/>
<feGaussianBlur stdDeviation="8.96409"/>
<feColorMatrix type="matrix" values="0 0 0 0 0.988235 0 0 0 0 0.219608 0 0 0 0 0.219608 0 0 0 0.28 0"/>
<feBlend mode="normal" in2="BackgroundImageFix" result="effect1_dropShadow"/>
<feBlend mode="normal" in="SourceGraphic" in2="effect1_dropShadow" result="shape"/>
</filter>
<linearGradient id="paint0_linear" x1="37.5878" y1="68.1491" x2="200.412" y2="142.487" gradientUnits="userSpaceOnUse">
<stop stop-color="#FE4531"/>
<stop offset="0.411458" stop-color="#FC383E"/>
<stop offset="1" stop-color="#9C063B"/>
</linearGradient>
</defs>
</svg>
