<svg width="1360" height="981" viewBox="0 0 1360 981" fill="none" xmlns="http://www.w3.org/2000/svg">
<g style="mix-blend-mode:color-dodge" clip-path="url(#clip0)">
<path d="M92.7385 510.151C107.612 490.948 129.632 476.647 150.768 469.289C181.975 458.425 215.761 457.156 248.43 455.927C257.223 455.592 266.32 455.251 275.207 454.717C309.357 452.705 358.567 446.469 391.545 415.841C424.401 385.331 434.268 339.035 443.802 294.26C444.856 289.317 445.915 284.409 446.977 279.533C461.686 212.777 487.333 173.125 525.358 158.285C553.88 147.151 585.872 152.091 616.804 156.843C652.644 162.381 686.506 167.593 715.802 150.243C753.855 127.738 763.496 76.9854 767.438 40.7534C767.787 37.6168 768.103 34.4844 768.447 31.3144C772.585 -8.32359 776.892 -49.3083 803.061 -78.4252C842.674 -122.486 912.658 -115.136 940.894 -109.94C957.039 -106.962 973.281 -102.825 988.996 -98.8241C1020.27 -90.8536 1052.58 -82.624 1085.2 -83.3198C1133.92 -84.3285 1187.79 -114.179 1193.6 -162.288L1194.79 -162.15C1188.91 -113.404 1134.47 -83.1422 1085.23 -82.0843C1052.45 -81.3673 1020.05 -89.6365 988.725 -97.6172C973.029 -101.603 956.801 -105.76 940.708 -108.727C912.662 -113.896 843.174 -121.224 803.964 -77.6055C778.062 -48.7943 773.782 -7.99992 769.656 31.4666C769.311 34.6367 768.981 37.7879 768.647 40.9056C764.686 77.3948 754.973 128.513 716.444 151.283C686.782 168.832 651.118 163.339 616.648 158.018C585.868 153.264 554.033 148.355 525.803 159.384C488.167 174.072 462.758 213.457 448.146 279.776C447.065 284.636 446.025 289.56 444.986 294.483C435.407 339.434 425.512 385.92 392.366 416.688C359.113 447.555 309.62 453.844 275.284 455.862C266.379 456.382 257.281 456.723 248.475 457.077C215.891 458.312 182.205 459.568 151.161 470.378C114.796 483.035 75.7338 516.458 75.9373 559.911L74.7499 559.926C74.6491 541.215 81.7479 524.342 92.7385 510.151Z" fill="white"/>
<path d="M140.702 682.762C283.778 678.343 329.345 588.212 398.335 451.762C405.383 437.834 412.658 423.419 420.292 408.619C475.4 301.848 528.464 240.226 587.319 214.686C641.248 191.302 695.267 199.1 757.805 208.161C796.628 213.778 836.751 219.588 882.208 218.977C1028.8 217.068 1137.51 176.052 1205.35 97.0564C1254.53 39.7843 1272.26 -27.1345 1278.48 -73.1865C1285.19 -123.074 1280.22 -159.873 1280.15 -160.255L1281.34 -160.423C1281.39 -160.055 1286.37 -123.089 1279.65 -73.03C1273.41 -26.8212 1255.64 40.3402 1206.25 97.8427C1138.18 177.088 1029.17 218.261 882.208 220.183C836.665 220.788 796.491 214.968 757.615 209.34C695.253 200.325 641.387 192.524 587.783 215.8C529.202 241.22 476.303 302.668 421.347 409.165C413.713 423.965 406.419 438.365 399.39 452.307C365.662 519.016 336.538 576.628 298.406 617.102C257.338 660.669 207.231 681.919 140.735 683.964L140.702 682.762Z" fill="white"/>
<path d="M124.257 655.764C270.959 661.691 323.913 561.633 397.182 423.161C402.732 412.686 408.39 401.994 414.199 391.146C468.249 290.219 519.086 231.937 574.197 207.689C624.901 185.394 675.373 192.556 733.822 200.862C773.342 206.476 818.157 212.845 868.493 210.254C1013.21 202.824 1119.49 158.905 1184.42 79.7016C1229.17 25.1166 1245.09 -36.271 1250.58 -78.1528C1256.5 -123.556 1251.8 -156.499 1251.74 -156.814L1252.93 -156.982C1252.97 -156.647 1257.7 -123.59 1251.75 -78.0298C1246.25 -35.9765 1230.26 25.6579 1185.34 80.4691C1120.19 159.955 1013.6 204.031 868.546 211.471C818.09 214.059 773.223 207.68 733.651 202.056C616.667 185.438 532.142 173.428 415.239 391.711C409.416 402.577 403.772 413.25 398.222 423.725C361.708 492.708 330.184 552.29 289.237 594.142C244.604 639.741 192.162 659.725 124.191 656.979L124.257 655.764Z" fill="white"/>
<path d="M107.793 628.752C257.836 645.468 318.743 535.259 395.852 395.721C399.87 388.431 403.947 381.066 408.081 373.625C429.063 335.908 448.841 305.428 467.801 280.948C552.734 171.288 621.553 181.114 710.583 193.808C752.252 199.761 799.493 206.501 854.758 201.517C997.608 188.632 1101.44 141.881 1163.32 62.6065C1163.54 62.3239 1163.76 62.0412 1164 61.7397C1203.83 10.3111 1217.87 -45.265 1222.61 -82.9244C1227.8 -123.953 1223.36 -153.105 1223.33 -153.406L1224.49 -153.589C1224.54 -153.306 1228.99 -123.968 1223.79 -82.7679C1219.03 -44.9705 1204.93 10.8335 1164.92 62.4883C1164.7 62.771 1164.49 63.0537 1164.25 63.3552C1102.13 142.898 998.043 189.783 854.859 202.71C799.46 207.711 752.148 200.946 710.412 195.002C601.968 179.542 523.614 168.362 409.107 374.209C404.987 381.63 400.91 388.995 396.878 396.304C357.742 467.115 323.938 528.278 280.115 571.43C231.712 619.054 176.903 637.657 107.655 629.942L107.793 628.752Z" fill="white"/>
<path d="M91.3473 601.754C244.345 629.682 313.769 509.215 394.163 369.719C396.75 365.21 399.371 360.698 401.987 356.151C453.915 266.333 500.647 214.521 549.078 193.058C593.889 173.194 637.588 179.602 688.179 187.038C731.635 193.409 780.894 200.657 841.095 192.803C982.128 174.44 1083.43 125.004 1142.17 45.8573C1211.06 -46.9827 1195.13 -148.924 1194.95 -149.937L1196.13 -150.138C1196.3 -149.106 1212.33 -46.7198 1143.14 46.5495C1084.2 125.96 982.63 175.583 841.23 193.993C780.875 201.849 731.53 194.595 687.989 188.217C637.574 180.827 594.047 174.431 549.557 194.153C501.399 215.495 454.836 267.168 403.032 356.749C400.415 361.295 397.794 365.808 395.207 370.317C355.367 439.467 317.738 504.752 270.955 549.078C218.64 598.678 161.499 615.777 91.124 602.938L91.3473 601.754Z" fill="white"/>
<path d="M74.8873 574.775C145.708 592.722 204.778 577.299 260.796 526.226C310.372 481.018 349.976 415.091 391.89 345.286L395.86 338.682C446.708 254.149 491.561 205.464 537 185.452C579.14 166.896 619.627 173.168 666.492 180.432C711.346 187.373 762.197 195.251 827.313 184.088C966.662 160.231 1065.4 108.147 1120.83 29.3015C1181.54 -57.0619 1166.67 -145.613 1166.5 -146.493L1167.69 -146.694C1167.85 -145.814 1182.8 -56.7802 1121.82 30.0082C1066.21 109.132 967.212 161.35 827.533 185.284C762.216 196.472 711.26 188.573 666.321 181.626C619.631 174.408 579.301 168.166 537.497 186.561C492.28 206.443 447.597 254.988 396.889 339.299L392.92 345.903C350.948 415.783 311.319 481.781 261.621 527.106C234.882 551.471 207.777 567.471 178.785 575.98C146.301 585.494 112.235 585.49 74.6117 575.948L74.8873 574.775Z" fill="white"/>
<path d="M58.4417 547.777C128.919 570.645 191.964 556.551 251.208 504.66C303.695 458.692 347.026 389.471 388.929 322.522L389.775 321.157C439.52 241.709 482.59 196.104 525.33 177.591C564.979 160.421 602.405 166.675 645.719 173.931C691.6 181.608 743.593 190.31 813.645 175.343C1005.11 134.447 1083.12 49.9964 1114.88 -13.6249C1149.23 -82.503 1138.25 -142.477 1138.14 -143.075L1139.32 -143.309C1139.43 -142.711 1150.51 -82.3593 1115.97 -13.117C1095.7 27.5344 1063.89 63.2629 1021.47 93.0862C968.47 130.336 898.652 158.39 813.928 176.496C743.66 191.508 691.548 182.804 645.577 175.087C602.439 167.877 565.184 161.635 525.857 178.662C483.357 197.06 440.457 242.524 390.839 321.77L389.993 323.134C348.05 390.174 304.675 459.451 252.067 505.537C192.484 557.708 129.043 571.886 58.1387 548.869L58.4417 547.777Z" fill="white"/>
<path d="M41.9634 520.783C112.482 548.658 177.352 536.762 240.256 484.389C295.987 438.008 342.546 366.645 383.648 303.688C432.302 229.153 473.694 186.531 513.96 169.538C551.308 153.782 585.829 160.167 625.798 167.577C672.289 176.179 724.995 185.945 799.897 166.624C983.373 119.386 1057.84 38.6144 1087.97 -20.8077C1120.63 -85.1542 1109.8 -139.066 1109.7 -139.596L1110.86 -139.845C1110.98 -139.3 1121.88 -85.0585 1089.07 -20.3521C1069.8 17.64 1039.48 51.7704 998.928 81.0839C948.26 117.698 881.405 146.87 800.199 167.792C725.047 187.162 672.204 177.379 625.589 168.741C585.815 161.392 551.466 155.019 514.439 170.632C474.414 187.51 433.156 229.996 384.664 304.323C343.536 367.351 296.919 438.79 241.034 485.293C177.744 537.969 112.491 549.931 41.5413 521.873L41.9634 520.783Z" fill="white"/>
</g>
<defs>
<clipPath id="clip0">
<rect width="1366" height="661.869" fill="white" transform="translate(1359.72 -99.718) rotate(127.758)"/>
</clipPath>
</defs>
</svg>
