<svg width="1093" height="750" viewBox="0 0 1093 750" fill="none" xmlns="http://www.w3.org/2000/svg">
<g style="mix-blend-mode:color-dodge" clip-path="url(#clip0)">
<path d="M982.074 633.92C957.836 635.495 932.537 628.469 913.026 617.507C884.217 601.321 860.889 576.849 838.331 553.186C832.256 546.821 825.975 540.231 819.689 533.927C795.563 509.674 758.298 476.935 713.509 472.513C668.889 468.104 627.668 491.374 587.807 513.886C583.406 516.37 579.027 518.828 574.671 521.261C514.914 554.455 468.219 561.503 431.916 542.842C404.683 528.847 387.195 501.607 370.268 475.285C350.68 444.765 332.157 415.943 299.756 405.485C257.69 391.88 213.28 418.272 183.524 439.315C180.943 441.131 178.387 442.97 175.783 444.811C143.345 467.964 109.786 491.882 70.6388 491.561C11.3911 491.064 -29.4538 433.763 -44.262 409.167C-52.7248 395.098 -60.3822 380.189 -67.7931 365.766C-82.5343 337.056 -97.767 307.4 -119.892 283.422C-152.916 247.589 -210.962 226.997 -250.856 254.505L-251.541 253.522C-211.121 225.646 -152.397 246.385 -118.992 282.575C-96.7399 306.664 -81.4772 336.414 -66.7092 365.17C-59.2998 379.569 -51.6661 394.48 -43.2303 408.503C-28.528 432.939 12.0051 489.854 70.6551 490.341C109.397 490.665 142.795 466.853 175.097 443.805C177.7 441.963 180.28 440.124 182.837 438.309C212.799 417.109 257.531 390.529 300.11 404.315C332.903 414.915 352.409 445.273 371.252 474.624C388.076 500.833 405.484 527.935 432.445 541.781C468.377 560.251 514.713 553.202 574.078 520.225C578.436 517.816 582.813 515.334 587.19 512.852C627.213 490.257 668.594 466.881 713.6 471.336C758.75 475.806 796.242 508.722 820.496 533.11C826.783 539.438 833.064 546.028 839.163 552.392C861.669 575.986 884.921 600.392 913.581 616.492C947.15 635.354 998.062 642.483 1030.48 613.551L1031.28 614.431C1017.33 626.899 999.985 632.756 982.074 633.92Z" fill="white"/>
<path d="M1079.63 483.662C981.558 379.393 883.85 404.949 735.925 443.635C720.822 447.579 705.204 451.675 689.059 455.758C572.565 485.187 491.251 486.245 433.135 459.065C379.896 434.148 349.961 388.511 315.329 335.656C293.825 302.848 271.603 268.939 241.038 235.287C142.519 126.724 39.7882 72.4423 -64.3333 73.9315C-139.817 75.0162 -201.697 106.055 -240.313 131.902C-282.134 159.917 -306.416 188.01 -306.659 188.312L-307.569 187.535C-307.325 187.256 -282.931 159.037 -240.975 130.918C-202.22 104.99 -140.134 73.8186 -64.3392 72.7375C40.1168 71.2505 143.166 125.655 241.942 234.488C272.559 268.209 294.807 302.163 316.339 335.017C350.889 387.711 380.721 433.235 433.662 457.98C491.507 485.034 572.581 483.968 688.769 454.607C704.914 450.524 720.534 446.451 735.635 442.483C807.953 423.57 870.406 407.232 925.986 408.994C985.828 410.909 1034.94 434.374 1080.51 482.84L1079.63 483.662Z" fill="white"/>
<path d="M1070.29 513.863C977.572 400.026 867.534 426.623 715.26 463.441C703.736 466.221 691.977 469.063 680.003 471.896C568.588 498.248 491.252 498.76 436.583 473.53C386.297 450.308 358.234 407.751 325.745 358.458C303.776 325.131 278.866 287.337 243.586 251.339C142.171 147.837 38.8712 97.2951 -63.4751 101.105C-134.009 103.732 -190.545 132.464 -225.556 156.094C-263.494 181.731 -285.065 207.067 -285.263 207.319L-286.174 206.542C-285.952 206.289 -264.315 180.852 -226.239 155.136C-191.092 131.401 -134.325 102.558 -63.5048 99.9129C39.1982 96.0795 142.816 146.744 244.463 250.494C279.82 286.582 304.757 324.422 326.753 357.795C391.784 456.449 438.769 527.73 679.737 470.743C691.735 467.909 703.47 465.068 714.994 462.288C790.861 443.956 856.38 428.112 914.856 431.071C978.582 434.31 1028.29 460.364 1071.25 513.108L1070.29 513.863Z" fill="white"/>
<path d="M1060.96 544.089C974.109 420.603 851.198 447.964 695.582 482.612C687.459 484.429 679.241 486.254 670.928 488.084C628.773 497.345 592.838 502.715 561.939 504.723C423.527 513.72 385.307 455.651 335.852 380.541C312.713 345.379 286.474 305.522 246.137 267.417C141.87 168.925 38.0714 122.094 -62.3078 128.237C-62.6646 128.26 -63.0214 128.283 -63.402 128.308C-128.315 132.527 -179.253 158.817 -210.611 180.204C-244.784 203.494 -263.689 226.125 -263.889 226.353L-264.798 225.6C-264.621 225.374 -245.582 202.614 -211.272 179.22C-179.799 157.754 -128.654 131.355 -63.4555 127.117C-63.0987 127.094 -62.7419 127.07 -62.3613 127.046C38.3763 120.904 142.444 167.837 246.964 266.551C287.403 304.745 313.67 344.672 336.86 379.879C397.102 471.367 440.621 537.475 670.686 486.929C678.975 485.1 687.193 483.276 695.34 481.457C774.313 463.878 842.527 448.695 903.882 452.948C971.621 457.67 1021.86 486.412 1061.94 543.404L1060.96 544.089Z" fill="white"/>
<path d="M1051.63 574.292C971.217 441.166 834.98 468.94 677.22 501.099C672.129 502.147 667.012 503.172 661.873 504.223C560.187 524.806 490.416 524.111 442.259 502.04C397.696 481.623 373.555 444.639 345.618 401.811C321.61 365.033 294.415 323.327 248.658 283.424C141.491 189.922 37.3579 146.768 -60.8434 155.181C-176.029 165.057 -241.856 244.508 -242.496 245.314L-243.429 244.563C-242.765 243.755 -176.675 163.929 -60.9683 153.995C37.566 145.56 142.015 188.789 249.46 282.536C295.32 322.551 322.567 364.326 346.628 401.172C374.482 443.838 398.519 480.686 442.761 500.957C490.648 522.901 560.202 523.563 661.629 503.044C666.768 501.994 671.885 500.968 676.976 499.921C755.172 483.969 829.008 468.922 893.203 474.615C965.013 480.959 1015.67 512.445 1052.66 573.675L1051.63 574.292Z" fill="white"/>
<path d="M1042.31 604.493C1008.86 539.546 958.176 505.505 882.81 497.362C816.103 490.161 740.479 504.153 660.419 518.984L652.843 520.384C555.831 538.275 489.648 536.916 444.559 516.127C402.746 496.845 380.631 462.357 355.032 422.434C330.526 384.232 302.748 340.915 251.257 299.522C141.088 210.921 36.6682 171.44 -59.1157 182.133C-164.029 193.849 -220.524 263.64 -221.075 264.345L-222.008 263.593C-221.456 262.889 -164.652 192.719 -59.2421 180.923C36.8732 170.184 141.562 209.768 252.007 298.566C303.65 340.092 331.481 383.501 356.04 421.772C381.556 461.533 403.591 495.883 445.061 515.02C489.905 535.729 555.871 537.054 652.623 519.204L660.199 517.804C740.355 502.967 816.048 488.946 882.923 496.16C918.887 500.057 948.827 509.768 974.404 525.853C1003.05 543.889 1025.61 569.414 1043.38 603.922L1042.31 604.493Z" fill="white"/>
<path d="M1032.98 634.696C1003.43 566.747 951.119 528.847 873.003 518.829C803.799 509.951 723.238 523.333 645.325 536.28L643.742 536.55C551.271 551.9 488.577 549.837 446.398 530.077C407.274 511.743 387.172 479.561 363.921 442.304C339.284 402.844 311.368 358.127 253.757 315.555C96.3026 199.19 -18.637 196.676 -87.3375 215.02C-161.695 234.902 -199.352 282.855 -199.727 283.333L-200.682 282.607C-200.307 282.128 -162.432 233.851 -87.6749 213.872C-43.7934 202.133 4.03866 202.297 54.4815 214.329C117.493 229.367 184.753 263.094 254.434 314.579C312.221 357.283 340.215 402.09 364.881 441.644C388.05 478.739 408.048 510.785 446.852 528.973C488.785 548.629 551.262 550.659 643.497 535.348L645.08 535.077C723.087 522.1 803.718 508.714 873.09 517.605C951.641 527.691 1004.28 565.832 1034 634.199L1032.98 634.696Z" fill="white"/>
<path d="M1023.67 664.92C997.848 593.625 945.97 552.902 865.069 540.46C793.408 529.425 709.104 541.808 634.713 552.711C546.645 565.625 487.297 562.843 447.896 543.93C411.355 526.383 393.276 496.291 372.354 461.438C348.007 420.908 320.416 374.952 256.33 331.631C99.4192 225.454 -10.4184 223.158 -74.8971 239.938C-144.733 258.093 -177.953 301.911 -178.284 302.338L-179.237 301.636C-178.908 301.184 -145.49 257.091 -75.2805 238.816C-34.0566 228.086 11.5986 228.2 60.4196 239.168C121.41 252.879 187.546 283.646 257.006 330.631C321.293 374.107 348.962 420.177 373.365 460.823C394.203 495.49 412.178 525.446 448.399 542.846C487.554 561.656 546.711 564.427 634.516 551.529C708.978 540.598 793.377 528.209 865.231 539.279C946.616 551.809 998.796 592.775 1024.77 664.515L1023.67 664.92Z" fill="white"/>
</g>
<defs>
<clipPath id="clip0">
<rect width="1366" height="661.869" fill="white" transform="translate(-314 88.6063) rotate(-3.71913)"/>
</clipPath>
</defs>
</svg>
